<svg width="32" height="32" viewBox="0 0 32 32" fill="none" xmlns="http://www.w3.org/2000/svg">
<path d="M27.9999 16.0004C28.7359 16.0004 29.3399 15.4017 29.2665 14.6697C28.9591 11.6086 27.6026 8.74798 25.427 6.57281C23.2513 4.39764 20.3904 3.04176 17.3292 2.73505C16.5959 2.66171 15.9985 3.26571 15.9985 4.00171V14.6684C15.9985 15.022 16.139 15.3611 16.3891 15.6112C16.6391 15.8612 16.9782 16.0017 17.3319 16.0017L27.9999 16.0004Z" stroke="black" stroke-width="2" stroke-linecap="round" stroke-linejoin="round"/>
<path d="M28.2799 21.1843C27.4316 23.1903 26.1049 24.958 24.4157 26.3327C22.7265 27.7075 20.7262 28.6476 18.5898 29.0707C16.4534 29.4938 14.2458 29.3872 12.1601 28.7601C10.0744 28.1329 8.17405 27.0044 6.62525 25.4732C5.07644 23.942 3.92631 22.0547 3.2754 19.9763C2.62449 17.8979 2.49264 15.6916 2.89135 13.5505C3.29007 11.4094 4.20721 9.3985 5.56261 7.6937C6.91801 5.9889 8.6704 4.64209 10.6666 3.771" stroke="black" stroke-width="2" stroke-linecap="round" stroke-linejoin="round"/>
</svg>
