<svg width="36" height="36" viewBox="0 0 36 36" fill="none" xmlns="http://www.w3.org/2000/svg">
<path d="M18 33C26.2843 33 33 26.2843 33 18C33 9.71573 26.2843 3 18 3C9.71573 3 3 9.71573 3 18C3 26.2843 9.71573 33 18 33Z" stroke="black" stroke-width="2.5" stroke-linecap="round" stroke-linejoin="round"/>
<path d="M18.9375 25.2461C18.9375 25.8674 18.4338 26.3711 17.8125 26.3711C17.1912 26.3711 16.6875 25.8674 16.6875 25.2461C16.6875 24.6248 17.1912 24.1211 17.8125 24.1211C18.4338 24.1211 18.9375 24.6248 18.9375 25.2461Z" fill="black"/>
<path d="M17.7769 21.1211V20.067C17.7769 18.2273 21.7643 16.9049 21.1163 13.7427C20.4682 10.5805 15.5506 10.5806 14.4375 13.7427" stroke="black" stroke-width="2.5" stroke-linecap="round"/>
</svg>
