<svg width="60" height="60" viewBox="0 0 60 60" fill="none" xmlns="http://www.w3.org/2000/svg">
<circle cx="30" cy="30" r="30" fill="#FF0000"/>
<path d="M42 31.4999C42 38.9986 36.75 42.748 30.51 44.9226C30.1832 45.0333 29.8283 45.028 29.505 44.9076C23.25 42.748 18 38.9986 18 31.4999V21.0016C18 20.6039 18.158 20.2224 18.4393 19.9411C18.7206 19.6599 19.1022 19.5019 19.5 19.5019C22.5 19.5019 26.25 17.7022 28.86 15.4226C29.1778 15.1511 29.582 15.002 30 15.002C30.418 15.002 30.8222 15.1511 31.14 15.4226C33.765 17.7172 37.5 19.5019 40.5 19.5019C40.8978 19.5019 41.2794 19.6599 41.5607 19.9411C41.842 20.2224 42 20.6039 42 21.0016V31.4999Z" stroke="white" stroke-width="3" stroke-linecap="round" stroke-linejoin="round"/>
<path d="M26 30.002L28.6667 33.002L34 27.002" stroke="white" stroke-width="3" stroke-linecap="round" stroke-linejoin="round"/>
</svg>
