<svg width="32" height="32" viewBox="0 0 32 32" fill="none" xmlns="http://www.w3.org/2000/svg">
<path d="M16.0013 9.33854C17.8423 9.33854 19.3346 7.84616 19.3346 6.00521C19.3346 4.16426 17.8423 2.67188 16.0013 2.67188C14.1604 2.67188 12.668 4.16426 12.668 6.00521C12.668 7.84616 14.1604 9.33854 16.0013 9.33854Z" stroke="black" stroke-width="2" stroke-linecap="round" stroke-linejoin="round"/>
<path d="M13.5984 8.39844L8.39844 13.5984" stroke="black" stroke-width="2" stroke-linecap="round" stroke-linejoin="round"/>
<path d="M6.0013 19.3385C7.84225 19.3385 9.33463 17.8462 9.33463 16.0052C9.33463 14.1643 7.84225 12.6719 6.0013 12.6719C4.16035 12.6719 2.66797 14.1643 2.66797 16.0052C2.66797 17.8462 4.16035 19.3385 6.0013 19.3385Z" stroke="black" stroke-width="2" stroke-linecap="round" stroke-linejoin="round"/>
<path d="M9.33203 16H22.6654" stroke="black" stroke-width="2" stroke-linecap="round" stroke-linejoin="round"/>
<path d="M26.0013 19.3385C27.8423 19.3385 29.3346 17.8462 29.3346 16.0052C29.3346 14.1643 27.8423 12.6719 26.0013 12.6719C24.1604 12.6719 22.668 14.1643 22.668 16.0052C22.668 17.8462 24.1604 19.3385 26.0013 19.3385Z" stroke="black" stroke-width="2" stroke-linecap="round" stroke-linejoin="round"/>
<path d="M18.3984 23.5984L23.5984 18.3984" stroke="black" stroke-width="2" stroke-linecap="round" stroke-linejoin="round"/>
<path d="M16.0013 29.3385C17.8423 29.3385 19.3346 27.8462 19.3346 26.0052C19.3346 24.1643 17.8423 22.6719 16.0013 22.6719C14.1604 22.6719 12.668 24.1643 12.668 26.0052C12.668 27.8462 14.1604 29.3385 16.0013 29.3385Z" stroke="black" stroke-width="2" stroke-linecap="round" stroke-linejoin="round"/>
</svg>
