<svg width="32" height="32" viewBox="0 0 32 32" fill="none" xmlns="http://www.w3.org/2000/svg">
<path d="M4 9.33333V6.66667C4 5.95942 4.28095 5.28115 4.78105 4.78105C5.28115 4.28095 5.95942 4 6.66667 4H9.33333" stroke="black" stroke-width="2" stroke-linecap="round" stroke-linejoin="round"/>
<path d="M22.6665 4H25.3332C26.0404 4 26.7187 4.28095 27.2188 4.78105C27.7189 5.28115 27.9998 5.95942 27.9998 6.66667V9.33333" stroke="black" stroke-width="2" stroke-linecap="round" stroke-linejoin="round"/>
<path d="M27.9998 22.6641V25.3307C27.9998 26.038 27.7189 26.7162 27.2188 27.2163C26.7187 27.7164 26.0404 27.9974 25.3332 27.9974H22.6665" stroke="black" stroke-width="2" stroke-linecap="round" stroke-linejoin="round"/>
<path d="M9.33333 27.9974H6.66667C5.95942 27.9974 5.28115 27.7164 4.78105 27.2163C4.28095 26.7162 4 26.038 4 25.3307V22.6641" stroke="black" stroke-width="2" stroke-linecap="round" stroke-linejoin="round"/>
<path d="M9.3335 10.6641H20.0002" stroke="black" stroke-width="2" stroke-linecap="round" stroke-linejoin="round"/>
<path d="M9.3335 16H22.6668" stroke="black" stroke-width="2" stroke-linecap="round" stroke-linejoin="round"/>
<path d="M9.3335 21.3359H17.3335" stroke="black" stroke-width="2" stroke-linecap="round" stroke-linejoin="round"/>
</svg>
