<svg width="32" height="32" viewBox="0 0 32 32" fill="none" xmlns="http://www.w3.org/2000/svg">
<path d="M19.5979 8.40225C19.3536 8.65149 19.2167 8.98658 19.2167 9.33559C19.2167 9.68459 19.3536 10.0197 19.5979 10.2689L21.7312 12.4023C21.9804 12.6466 22.3155 12.7834 22.6645 12.7834C23.0135 12.7834 23.3486 12.6466 23.5979 12.4023L28.6245 7.37559C29.295 8.85717 29.498 10.5079 29.2065 12.1078C28.915 13.7077 28.1428 15.1807 26.9929 16.3306C25.843 17.4805 24.3699 18.2527 22.77 18.5442C21.1702 18.8357 19.5194 18.6327 18.0379 17.9623L8.82452 27.1756C8.29409 27.706 7.57467 28.004 6.82452 28.004C6.07438 28.004 5.35495 27.706 4.82452 27.1756C4.29409 26.6452 3.99609 25.9257 3.99609 25.1756C3.99609 24.4254 4.29409 23.706 4.82452 23.1756L14.0379 13.9623C13.3674 12.4807 13.1644 10.8299 13.4559 9.23006C13.7474 7.63018 14.5196 6.15713 15.6695 5.00721C16.8194 3.8573 18.2924 3.08514 19.8923 2.79364C21.4922 2.50214 23.1429 2.70514 24.6245 3.37558L19.6112 8.38892L19.5979 8.40225Z" stroke="black" stroke-width="2" stroke-linecap="round" stroke-linejoin="round"/>
</svg>
