<svg width="32" height="32" viewBox="0 0 32 32" fill="none" xmlns="http://www.w3.org/2000/svg">
<path d="M29.3346 16H2.66797" stroke="black" stroke-width="2" stroke-linecap="round" stroke-linejoin="round"/>
<path d="M7.26797 6.80813L2.66797 15.9948V23.9948C2.66797 24.702 2.94892 25.3803 3.44902 25.8804C3.94911 26.3805 4.62739 26.6615 5.33464 26.6615H26.668C27.3752 26.6615 28.0535 26.3805 28.5536 25.8804C29.0537 25.3803 29.3346 24.702 29.3346 23.9948V15.9948L24.7346 6.80813C24.5139 6.36384 24.1735 5.98995 23.7519 5.7285C23.3303 5.46704 22.8441 5.32839 22.348 5.32812H9.65463C9.15852 5.32839 8.67232 5.46704 8.25069 5.7285C7.82907 5.98995 7.48874 6.36384 7.26797 6.80813Z" stroke="black" stroke-width="2" stroke-linecap="round" stroke-linejoin="round"/>
<path d="M8 21.3281H8.01333" stroke="black" stroke-width="2" stroke-linecap="round" stroke-linejoin="round"/>
<path d="M13.332 21.3281H13.3454" stroke="black" stroke-width="2" stroke-linecap="round" stroke-linejoin="round"/>
</svg>
