<svg width="36" height="36" viewBox="0 0 36 36" fill="none" xmlns="http://www.w3.org/2000/svg">
<path d="M18 12C25.4558 12 31.5 9.98528 31.5 7.5C31.5 5.01472 25.4558 3 18 3C10.5442 3 4.5 5.01472 4.5 7.5C4.5 9.98528 10.5442 12 18 12Z" stroke="black" stroke-width="2.5" stroke-linecap="round" stroke-linejoin="round"/>
<path d="M4.5 7.5V28.5C4.5 29.6935 5.92232 30.8381 8.45406 31.682C10.9858 32.5259 14.4196 33 18 33C21.5804 33 25.0142 32.5259 27.5459 31.682C30.0777 30.8381 31.5 29.6935 31.5 28.5V7.5" stroke="black" stroke-width="2.5" stroke-linecap="round" stroke-linejoin="round"/>
<path d="M4.5 18C4.5 19.1935 5.92232 20.3381 8.45406 21.182C10.9858 22.0259 14.4196 22.5 18 22.5C21.5804 22.5 25.0142 22.0259 27.5459 21.182C30.0777 20.3381 31.5 19.1935 31.5 18" stroke="black" stroke-width="2.5" stroke-linecap="round" stroke-linejoin="round"/>
</svg>
