<svg width="28" height="34" viewBox="0 0 28 34" fill="none" xmlns="http://www.w3.org/2000/svg">
<path d="M26 18.4999C26 25.9986 20.75 29.748 14.51 31.9226C14.1832 32.0333 13.8283 32.028 13.505 31.9076C7.25 29.748 2 25.9986 2 18.4999V8.00162C2 7.60386 2.15804 7.2224 2.43934 6.94114C2.72064 6.65988 3.10218 6.50187 3.5 6.50187C6.5 6.50187 10.25 4.70217 12.86 2.42256C13.1778 2.1511 13.582 2.00195 14 2.00195C14.418 2.00195 14.8222 2.1511 15.14 2.42256C17.765 4.71717 21.5 6.50187 24.5 6.50187C24.8978 6.50187 25.2794 6.65988 25.5607 6.94114C25.842 7.2224 26 7.60386 26 8.00162V18.4999Z" stroke="white" stroke-width="3" stroke-linecap="round" stroke-linejoin="round"/>
<path d="M10 17.002L12.6667 20.002L18 14.002" stroke="white" stroke-width="3" stroke-linecap="round" stroke-linejoin="round"/>
</svg>
