<svg width="32" height="32" viewBox="0 0 32 32" fill="none" xmlns="http://www.w3.org/2000/svg">
<path d="M16 26.6665V29.3332" stroke="black" stroke-width="2" stroke-linecap="round" stroke-linejoin="round"/>
<path d="M16 2.6665V5.33317" stroke="black" stroke-width="2" stroke-linecap="round" stroke-linejoin="round"/>
<path d="M22.6665 26.6665V29.3332" stroke="black" stroke-width="2" stroke-linecap="round" stroke-linejoin="round"/>
<path d="M22.6665 2.6665V5.33317" stroke="black" stroke-width="2" stroke-linecap="round" stroke-linejoin="round"/>
<path d="M2.6665 16H5.33317" stroke="black" stroke-width="2" stroke-linecap="round" stroke-linejoin="round"/>
<path d="M2.6665 22.6665H5.33317" stroke="black" stroke-width="2" stroke-linecap="round" stroke-linejoin="round"/>
<path d="M2.6665 9.3335H5.33317" stroke="black" stroke-width="2" stroke-linecap="round" stroke-linejoin="round"/>
<path d="M26.6665 16H29.3332" stroke="black" stroke-width="2" stroke-linecap="round" stroke-linejoin="round"/>
<path d="M26.6665 22.6665H29.3332" stroke="black" stroke-width="2" stroke-linecap="round" stroke-linejoin="round"/>
<path d="M26.6665 9.3335H29.3332" stroke="black" stroke-width="2" stroke-linecap="round" stroke-linejoin="round"/>
<path d="M9.3335 26.6665V29.3332" stroke="black" stroke-width="2" stroke-linecap="round" stroke-linejoin="round"/>
<path d="M9.3335 2.6665V5.33317" stroke="black" stroke-width="2" stroke-linecap="round" stroke-linejoin="round"/>
<path d="M24.0002 5.3335H8.00016C6.5274 5.3335 5.3335 6.5274 5.3335 8.00016V24.0002C5.3335 25.4729 6.5274 26.6668 8.00016 26.6668H24.0002C25.4729 26.6668 26.6668 25.4729 26.6668 24.0002V8.00016C26.6668 6.5274 25.4729 5.3335 24.0002 5.3335Z" stroke="black" stroke-width="2" stroke-linecap="round" stroke-linejoin="round"/>
<path d="M19.9998 10.6665H11.9998C11.2635 10.6665 10.6665 11.2635 10.6665 11.9998V19.9998C10.6665 20.7362 11.2635 21.3332 11.9998 21.3332H19.9998C20.7362 21.3332 21.3332 20.7362 21.3332 19.9998V11.9998C21.3332 11.2635 20.7362 10.6665 19.9998 10.6665Z" stroke="black" stroke-width="2" stroke-linecap="round" stroke-linejoin="round"/>
</svg>
