<svg width="36" height="36" viewBox="0 0 36 36" fill="none" xmlns="http://www.w3.org/2000/svg">
<path d="M18 8.1599C18.0016 7.59757 17.8908 7.04059 17.674 6.52171C17.4572 6.00283 17.1389 5.53254 16.7377 5.13848C16.3364 4.74443 15.8604 4.43457 15.3377 4.22714C14.8149 4.01971 14.256 3.91888 13.6937 3.9306C13.1314 3.94232 12.5771 4.06634 12.0635 4.29538C11.5498 4.52441 11.0872 4.85383 10.7027 5.26426C10.3182 5.67469 10.0198 6.15784 9.82479 6.6853C9.62981 7.21276 9.5423 7.77387 9.56739 8.33564C8.74087 8.54813 7.97354 8.94589 7.32353 9.49878C6.67351 10.0517 6.15785 10.7452 5.8156 11.5269C5.47336 12.3085 5.3135 13.1578 5.34813 14.0104C5.38276 14.863 5.61098 15.6965 6.0155 16.4479C5.30424 17.0256 4.74495 17.7683 4.38626 18.6115C4.02757 19.4546 3.88036 20.3726 3.95743 21.2856C4.03449 22.1986 4.3335 23.079 4.82844 23.8501C5.32339 24.6212 5.99927 25.2597 6.79731 25.7101C6.69876 26.4725 6.75757 27.2469 6.9701 27.9856C7.18264 28.7244 7.54438 29.4117 8.033 30.0052C8.52161 30.5986 9.12672 31.0856 9.81096 31.4361C10.4952 31.7866 11.244 31.9931 12.0112 32.0429C12.7784 32.0927 13.5477 31.9847 14.2715 31.7255C14.9953 31.4664 15.6582 31.0617 16.2195 30.5363C16.7807 30.011 17.2283 29.3762 17.5345 28.6711C17.8407 27.966 17.9992 27.2057 18 26.437V8.1599Z" stroke="black" stroke-width="2.5" stroke-linecap="round" stroke-linejoin="round"/>
<path d="M18 8.1599C17.9984 7.59757 18.1092 7.04059 18.326 6.52171C18.5428 6.00283 18.8611 5.53254 19.2623 5.13848C19.6636 4.74443 20.1396 4.43457 20.6623 4.22714C21.1851 4.01971 21.744 3.91888 22.3063 3.9306C22.8686 3.94232 23.4229 4.06634 23.9365 4.29538C24.4502 4.52441 24.9128 4.85383 25.2973 5.26426C25.6817 5.67469 25.9802 6.15784 26.1752 6.6853C26.3702 7.21276 26.4577 7.77387 26.4326 8.33564C27.2591 8.54813 28.0265 8.94589 28.6765 9.49878C29.3265 10.0517 29.8421 10.7452 30.1844 11.5269C30.5266 12.3085 30.6865 13.1578 30.6519 14.0104C30.6172 14.863 30.389 15.6965 29.9845 16.4479C30.6958 17.0256 31.255 17.7683 31.6137 18.6115C31.9724 19.4546 32.1196 20.3726 32.0426 21.2856C31.9655 22.1986 31.6665 23.079 31.1716 23.8501C30.6766 24.6212 30.0007 25.2597 29.2027 25.7101C29.3012 26.4725 29.2424 27.2469 29.0299 27.9856C28.8174 28.7244 28.4556 29.4117 27.967 30.0052C27.4784 30.5986 26.8733 31.0856 26.189 31.4361C25.5048 31.7866 24.756 31.9931 23.9888 32.0429C23.2216 32.0927 22.4523 31.9847 21.7285 31.7255C21.0047 31.4664 20.3418 31.0617 19.7805 30.5363C19.2193 30.011 18.7717 29.3762 18.4655 28.6711C18.1593 27.966 18.0008 27.2057 18 26.437V8.1599Z" stroke="black" stroke-width="2.5" stroke-linecap="round" stroke-linejoin="round"/>
<path d="M21.9375 19.6797C20.8356 19.2644 19.8734 18.5083 19.1725 17.507C18.4716 16.5058 18.0636 15.3044 18 14.0547C17.9364 15.3044 17.5284 16.5058 16.8275 17.507C16.1266 18.5083 15.1644 19.2644 14.0625 19.6797" stroke="black" stroke-width="2.5" stroke-linecap="round" stroke-linejoin="round"/>
<path d="M25.875 10.1172C26.2162 9.43087 26.4092 8.65889 26.4375 7.86719" stroke="black" stroke-width="2.5" stroke-linecap="round" stroke-linejoin="round"/>
<path d="M9.5625 7.86719C9.59045 8.65875 9.78344 9.43073 10.125 10.1172" stroke="black" stroke-width="2.5" stroke-linecap="round" stroke-linejoin="round"/>
<path d="M6.1875 16.3047C6.53931 16.093 6.91577 15.9048 7.3125 15.7422" stroke="black" stroke-width="2.5" stroke-linecap="round" stroke-linejoin="round"/>
<path d="M28.6875 15.7422C29.0842 15.9048 29.4607 16.093 29.8125 16.3047" stroke="black" stroke-width="2.5" stroke-linecap="round" stroke-linejoin="round"/>
<path d="M9.5625 26.4297C8.5771 26.43 7.60829 26.2363 6.75 25.8672" stroke="black" stroke-width="2.5" stroke-linecap="round" stroke-linejoin="round"/>
<path d="M29.25 25.8672C28.3917 26.2363 27.4229 26.43 26.4375 26.4297" stroke="black" stroke-width="2.5" stroke-linecap="round" stroke-linejoin="round"/>
</svg>
