<svg width="43" height="35" viewBox="0 0 43 35" fill="none" xmlns="http://www.w3.org/2000/svg">
<path d="M13.7084 20.4268L23.3706 8.53359H18.1011C15.7398 8.53359 14.1164 9.25413 12.6754 10.9383L7.58819 17.1974V0H2.48366C1.27698 0 0.304688 0.972291 0.304688 2.17897V34.2559H5.40922C6.60722 34.2559 7.58819 33.2836 7.58819 32.0769V23.5433L11.7204 28.6218L15.2363 32.9537C15.9482 33.8392 16.8857 34.2559 17.8407 34.2559H24.9679L20.3582 28.6045L13.7084 20.4268ZM36.0451 28.2051C34.9773 28.2051 34.0918 27.3283 34.0918 26.2519V0H28.9873C27.7893 0 26.8083 0.972291 26.8083 2.17897V27.6235C26.8083 31.5561 29.5255 34.2646 33.4581 34.2646H39.0661C40.2641 34.2646 41.2451 33.2923 41.2451 32.0856V28.2051H36.0451Z" fill="white"/>
<path d="M8.2832 16.321V16.3036C8.2832 16.3036 8.2832 16.3036 8.2832 16.3123V16.321ZM42.296 11.4682V6.63281L41.8446 7.11028C41.8273 7.11028 40.4643 8.51663 36.5317 8.51663H17.9714C15.0372 8.51663 13.6568 9.71463 12.6064 10.9994L12.0335 11.7026C12.0335 11.7026 11.9987 11.746 11.9814 11.7634L8.30057 16.3036C9.64615 15.2879 11.4779 14.6803 13.353 14.6803H36.5404C39.3531 14.6803 42.0616 13.8555 42.2787 11.746C42.3134 11.5724 42.3047 11.4595 42.3047 11.4595L42.296 11.4682Z" fill="#FF0000"/>
</svg>
