<svg width="28" height="29" viewBox="0 0 28 29" fill="none" xmlns="http://www.w3.org/2000/svg">
<path d="M13.9961 24.1797C19.5189 24.1797 23.9961 19.7025 23.9961 14.1797C23.9961 8.65684 19.5189 4.17969 13.9961 4.17969C8.47325 4.17969 3.99609 8.65684 3.99609 14.1797C3.99609 19.7025 8.47325 24.1797 13.9961 24.1797Z" stroke="black" stroke-width="1.6" stroke-linecap="round" stroke-linejoin="round"/>
<path d="M13.9011 24.1797C16.8463 24.1797 19.2339 19.7025 19.2339 14.1797C19.2339 8.65684 16.8463 4.17969 13.9011 4.17969C10.9559 4.17969 8.56836 8.65684 8.56836 14.1797C8.56836 19.7025 10.9559 24.1797 13.9011 24.1797Z" stroke="black" stroke-width="1.6" stroke-linecap="round" stroke-linejoin="round"/>
<path d="M3.99609 14.2385H23.9933" stroke="black" stroke-width="1.6" stroke-linecap="round" stroke-linejoin="round"/>
<path d="M14.0547 4.17969V24.1769" stroke="black" stroke-width="1.6" stroke-miterlimit="10"/>
</svg>
