<svg width="28" height="29" viewBox="0 0 28 29" fill="none" xmlns="http://www.w3.org/2000/svg">
<path d="M13.9961 24.1797C19.5189 24.1797 23.9961 19.7025 23.9961 14.1797C23.9961 8.65684 19.5189 4.17969 13.9961 4.17969C8.47325 4.17969 3.99609 8.65684 3.99609 14.1797C3.99609 19.7025 8.47325 24.1797 13.9961 24.1797Z" stroke="white" stroke-width="1.6" stroke-linecap="round" stroke-linejoin="round"/>
<path d="M13.8992 24.1797C16.8444 24.1797 19.232 19.7025 19.232 14.1797C19.232 8.65684 16.8444 4.17969 13.8992 4.17969C10.954 4.17969 8.56641 8.65684 8.56641 14.1797C8.56641 19.7025 10.954 24.1797 13.8992 24.1797Z" stroke="white" stroke-width="1.6" stroke-linecap="round" stroke-linejoin="round"/>
<path d="M3.99609 14.2383H23.9933" stroke="white" stroke-width="1.6" stroke-linecap="round" stroke-linejoin="round"/>
<path d="M14.0547 4.17969V24.1769" stroke="white" stroke-width="1.6" stroke-miterlimit="10"/>
</svg>
