<svg width="28" height="28" viewBox="0 0 28 28" fill="none" xmlns="http://www.w3.org/2000/svg">
<path d="M10.6881 20H8.19973V11.9803H10.6881V20ZM9.44393 10.8876C8.64502 10.8876 8 10.2412 8 9.44381C8 8.64643 8.64502 8 9.44393 8C10.2396 8 10.8846 8.64643 10.8846 9.44381C10.8846 10.2379 10.2396 10.8876 9.44393 10.8876ZM20 20H17.5149V16.1017C17.5149 15.1731 17.4985 13.9754 16.2216 13.9754C14.9282 13.9754 14.7318 14.9893 14.7318 16.0361V20H12.2499V11.9803H14.6336V13.0763H14.6663C14.997 12.4463 15.809 11.7801 17.0172 11.7801C19.5351 11.7801 20 13.4405 20 15.5997V20Z" fill="white"/>
<rect x="4.3" y="4.3" width="19.4023" height="19.4023" rx="3.2" stroke="white" stroke-width="1.6"/>
</svg>
