<svg width="162" height="33" viewBox="0 0 162 33" fill="none" xmlns="http://www.w3.org/2000/svg">
<path d="M7.86254 0.961914H0V28.0308H7.86254V0.961914Z" fill="#FF0000"/>
<path d="M26.7013 0.964735H18.15L10.0791 14.4963L18.1471 28.0337H26.6984L18.6304 14.4992L26.7013 0.964735Z" fill="#FF0000"/>
<mask id="mask0_246_673" style="mask-type:luminance" maskUnits="userSpaceOnUse" x="10" y="0" width="17" height="15">
<path d="M10.0791 14.4963L18.6304 14.4992L26.7013 0.964735H18.15L10.0791 14.4963Z" fill="white"/>
</mask>
<g mask="url(#mask0_246_673)">
<path d="M17.1085 -7.22944L3.39746 8.79576L19.6799 22.7269L33.3909 6.70169L17.1085 -7.22944Z" fill="url(#paint0_linear_246_673)"/>
</g>
<path d="M34.5146 9.52181H37.7123V12.6934H34.5146V9.52181ZM37.6602 28.0337H34.5696V14.4963H37.6602V28.0337Z" fill="#FF0000"/>
<path d="M40.4756 14.4994H43.5662V15.9434C44.3417 15.0406 45.5514 14.2419 47.305 14.2419C50.141 14.2419 51.8425 16.201 51.8425 19.1151V28.0339H48.749V20.018C48.749 18.3395 48.0806 17.1299 46.3761 17.1299C44.9842 17.1299 43.5662 18.1601 43.5662 20.0932V28.0339H40.4756V14.4965V14.4994Z" fill="#FF0000"/>
<path d="M54.8409 17.1299H52.957V14.4994H54.8409V10.5291H57.8823V14.4994H60.7183V17.1299H57.8823V24.1445C57.8823 25.3571 58.5797 25.4844 59.6881 25.4844C60.2032 25.4844 60.4868 25.4583 60.9498 25.4062V28.0107C60.3826 28.1149 59.6099 28.1901 58.8112 28.1901C56.2328 28.1901 54.8409 27.3914 54.8409 24.6307V17.127V17.1299Z" fill="#FF0000"/>
<path d="M61.8584 21.2794C61.8584 17.3091 64.541 14.2416 68.3059 14.2416C72.0707 14.2416 74.3106 17.2049 74.3106 20.9177V21.9508H64.8246C65.0561 24.2717 66.448 25.6867 68.4332 25.6867C69.9554 25.6867 71.1679 24.9141 71.5788 23.5222L74.2353 24.5292C73.2833 26.9022 71.1447 28.3172 68.4361 28.3172C64.5699 28.3172 61.8613 25.4552 61.8613 21.2794M64.978 19.63H71.191C71.165 18.1367 70.239 16.8461 68.2769 16.8461C66.6795 16.8461 65.4439 17.7982 64.978 19.63Z" fill="#FF0000"/>
<path d="M79.2937 9.52181H76.2031V28.0337H79.2937V9.52181Z" fill="#FF0000"/>
<path d="M85.1971 9.52173H82.1064V28.0336H85.1971V9.52173Z" fill="#FF0000"/>
<path d="M87.9609 9.52181H91.1586V12.6934H87.9609V9.52181ZM91.1065 28.0337H88.0159V14.4963H91.1065V28.0337Z" fill="#FF0000"/>
<path d="M99.3602 32.959C96.2406 32.959 94.05 31.6423 93.1992 29.0147L96.0844 27.9816C96.4982 29.5038 97.6557 30.4559 99.3602 30.4559C101.45 30.4559 102.865 29.4257 102.865 26.9514V25.9994C102.144 26.9514 100.778 27.7009 99.0506 27.7009C95.3378 27.7009 93.1211 24.6856 93.1211 20.9728C93.1211 17.26 95.3378 14.2446 99.0506 14.2446C100.752 14.2446 102.144 14.9912 102.865 15.9462V14.5022H105.958V26.6707C105.958 30.6671 103.223 32.9619 99.3573 32.9619M99.6438 16.9475C97.5052 16.9475 96.2406 18.4407 96.2406 20.9699C96.2406 23.4991 97.5052 24.9923 99.6438 24.9923C101.577 24.9923 102.92 23.5743 102.92 21.1522V20.8426C102.92 18.3683 101.58 16.9475 99.6438 16.9475Z" fill="#FF0000"/>
<path d="M107.951 21.2794C107.951 17.3091 110.634 14.2416 114.399 14.2416C118.163 14.2416 120.403 17.2049 120.403 20.9177V21.9508H110.917C111.149 24.2717 112.541 25.6867 114.526 25.6867C116.048 25.6867 117.261 24.9141 117.672 23.5222L120.328 24.5292C119.376 26.9022 117.237 28.3172 114.529 28.3172C110.663 28.3172 107.954 25.4552 107.954 21.2794M111.071 19.63H117.284C117.258 18.1367 116.332 16.8461 114.37 16.8461C112.772 16.8461 111.537 17.7982 111.071 19.63Z" fill="#FF0000"/>
<path d="M122.296 14.4992H125.387V15.9432C126.162 15.0403 127.372 14.2416 129.125 14.2416C131.961 14.2416 133.663 16.2008 133.663 19.1149V28.0337H130.569V20.0177C130.569 18.3393 129.901 17.1297 128.196 17.1297C126.804 17.1297 125.387 18.1599 125.387 20.093V28.0337H122.296V14.4963V14.4992Z" fill="#FF0000"/>
<path d="M142.18 25.6376C143.83 25.6376 144.837 24.5553 145.222 23.0592L147.878 24.3991C147.184 26.5897 145.12 28.3173 142.18 28.3173C138.314 28.3173 135.527 25.4553 135.527 21.2795C135.527 17.1037 138.314 14.2417 142.18 14.2417C145.094 14.2417 147.106 15.8912 147.826 18.0558L145.222 19.4738C144.837 18.0037 143.83 16.8953 142.18 16.8953C140.065 16.8953 138.621 18.5188 138.621 21.2795C138.621 24.0402 140.065 25.6376 142.18 25.6376Z" fill="#FF0000"/>
<path d="M148.477 21.2794C148.477 17.3091 151.159 14.2416 154.924 14.2416C158.689 14.2416 160.929 17.2049 160.929 20.9177V21.9508H151.443C151.674 24.2717 153.066 25.6867 155.051 25.6867C156.573 25.6867 157.786 24.9141 158.197 23.5222L160.853 24.5292C159.901 26.9022 157.76 28.3172 155.054 28.3172C151.188 28.3172 148.479 25.4552 148.479 21.2794M151.596 19.63H157.809C157.783 18.1367 156.857 16.8461 154.895 16.8461C153.298 16.8461 152.062 17.7982 151.596 19.63Z" fill="#FF0000"/>
<defs>
<linearGradient id="paint0_linear_246_673" x1="4.4584" y1="23.1931" x2="22.3779" y2="2.24911" gradientUnits="userSpaceOnUse">
<stop stop-color="white"/>
<stop offset="1" stop-color="#FF0000"/>
</linearGradient>
</defs>
</svg>
