<svg width="28" height="28" viewBox="0 0 28 28" fill="none" xmlns="http://www.w3.org/2000/svg">
<path d="M24.5916 7.58508C24.4656 7.01951 24.2184 6.50381 23.8747 6.08973C23.5311 5.67566 23.1031 5.37778 22.6337 5.22598C21.3514 4.62903 8.92814 4.33656 5.32386 5.24267C4.85441 5.39453 4.42638 5.69251 4.08273 6.10671C3.73907 6.52091 3.49189 7.03675 3.366 7.60244C2.7869 10.6627 2.74312 17.2786 3.38041 20.4076C3.50639 20.9731 3.7536 21.4888 4.09725 21.9029C4.4409 22.317 4.86889 22.6149 5.33827 22.7667C7.878 23.4711 19.9521 23.57 22.6481 22.7667C23.1175 22.6149 23.5455 22.317 23.8891 21.9029C24.2328 21.4888 24.48 20.9731 24.606 20.4076C25.2233 17.0736 25.2671 10.8677 24.5916 7.58508Z" stroke="white" stroke-width="1.6" stroke-linecap="round" stroke-linejoin="round"/>
<path d="M16.9287 14.343C17.1876 14.1876 17.1876 13.8124 16.9287 13.657L12.2728 10.8635C12.0062 10.7035 11.667 10.8956 11.667 11.2065V16.7935C11.667 17.1044 12.0062 17.2965 12.2728 17.1365L16.9287 14.343Z" stroke="white" stroke-width="1.6" stroke-linecap="round" stroke-linejoin="round"/>
</svg>
