<svg width="184" height="56" viewBox="0 0 184 56" fill="none" xmlns="http://www.w3.org/2000/svg">
<path d="M80.268 32.2442V29.2816H72.043V27.046H91.096V29.2816H82.8456V32.2442H89.5585V39.3344H86.9809V34.4549H73.3419V32.2442H80.268ZM89.5179 19.3633V25.4278H86.9403V21.5989H73.5347V19.3633H89.5179Z" fill="#B2B2B2"/>
<path d="M105.69 29.9182H94.5117V23.7142H102.899V21.6827H94.5117V19.5417H105.456V25.7656H97.069V27.817H105.69V29.9132V29.9182ZM95.6737 30.9887H98.2056V32.6766H109.384V30.9887H111.916V38.8756H95.6737V30.9887ZM109.384 34.728H98.2056V36.7794H109.384V34.728ZM109.338 18.9492H111.916V30.3016H109.338V18.9492Z" fill="#B2B2B2"/>
<path d="M123.67 32.2442V29.2816H115.445V27.046H134.498V29.2816H126.248V32.2442H132.961V39.3344H130.383V34.4549H116.744V32.2442H123.67ZM132.915 19.3633V25.4278H130.338V21.5989H116.932V19.3633H132.915Z" fill="#B2B2B2"/>
<path d="M149.417 27.4784C149.417 28.285 149.245 29.0518 148.905 29.7788C148.565 30.5107 148.108 31.138 147.535 31.6708C146.962 32.2185 146.292 32.6517 145.526 32.9704C144.76 33.289 143.932 33.4483 143.05 33.4483C142.167 33.4483 141.365 33.289 140.599 32.9704C139.833 32.6517 139.163 32.2185 138.589 31.6708C138.016 31.138 137.559 30.5057 137.22 29.7788C136.88 29.0468 136.707 28.28 136.707 27.4784C136.707 26.6768 136.88 25.8801 137.22 25.1532C137.559 24.4212 138.016 23.7939 138.589 23.2611C139.163 22.7284 139.833 22.3051 140.599 21.9865C141.365 21.6678 142.182 21.5085 143.05 21.5085C143.917 21.5085 144.76 21.6678 145.526 21.9865C146.292 22.3051 146.962 22.7333 147.535 23.2611C148.108 23.7939 148.565 24.4262 148.905 25.1532C149.245 25.8851 149.417 26.6569 149.417 27.4784ZM146.86 27.4784C146.86 26.9606 146.759 26.4776 146.556 26.0295C146.353 25.5814 146.084 25.183 145.744 24.8345C145.389 24.5158 144.983 24.252 144.526 24.0478C144.069 23.8437 143.577 23.7391 143.05 23.7391C142.522 23.7391 142.05 23.8437 141.588 24.0478C141.121 24.252 140.721 24.5158 140.381 24.8345C140.041 25.183 139.767 25.5814 139.554 26.0295C139.346 26.4776 139.239 26.9606 139.239 27.4784C139.239 27.9962 139.346 28.4792 139.554 28.9273C139.762 29.3754 140.036 29.7688 140.381 30.1024C140.721 30.436 141.127 30.7049 141.588 30.914C142.055 31.1181 142.542 31.2227 143.05 31.2227C143.557 31.2227 144.069 31.1181 144.526 30.914C144.983 30.7098 145.389 30.441 145.744 30.1024C146.084 29.7688 146.358 29.3754 146.556 28.9273C146.759 28.4792 146.86 27.9962 146.86 27.4784ZM152.736 18.9492H155.314V39.2888H152.736V28.5937H149.996V26.3581H152.736V18.9492Z" fill="#B2B2B2"/>
<path d="M172.534 31.1758H167.049V34.2529H164.471V31.1758H158.758V28.9402H172.534V31.1758ZM160.173 38.9481V33.1326H162.731V36.7324H176.999V38.9432H160.179L160.173 38.9481ZM170.697 23.4233C170.697 24.0756 170.56 24.683 170.281 25.2457C170.002 25.8083 169.637 26.3112 169.19 26.7493C168.708 27.1776 168.155 27.5112 167.531 27.7551C166.902 27.9991 166.232 28.1186 165.522 28.1186C164.811 28.1186 164.141 27.9991 163.512 27.7551C162.883 27.5112 162.33 27.1776 161.853 26.7493C161.401 26.3112 161.041 25.8083 160.762 25.2457C160.483 24.683 160.346 24.0756 160.346 23.4233C160.346 22.771 160.483 22.1586 160.762 21.586C161.041 21.0134 161.406 20.5105 161.853 20.0674C162.335 19.6442 162.888 19.3056 163.512 19.0666C164.141 18.8226 164.811 18.7031 165.522 18.7031C166.232 18.7031 166.902 18.8226 167.531 19.0666C168.16 19.3106 168.713 19.6442 169.19 20.0674C169.642 20.5105 170.002 21.0134 170.281 21.586C170.56 22.1536 170.697 22.7661 170.697 23.4233ZM168.211 23.4233C168.211 22.6914 167.942 22.0839 167.409 21.586C166.876 21.0931 166.242 20.8441 165.516 20.8441C164.791 20.8441 164.157 21.0931 163.624 21.586C163.091 22.079 162.822 22.6914 162.822 23.4233C162.822 24.1552 163.091 24.7428 163.624 25.2357C164.157 25.7286 164.791 25.9776 165.516 25.9776C166.242 25.9776 166.876 25.7286 167.409 25.2357C167.942 24.7428 168.211 24.1353 168.211 23.4233ZM174.183 18.9521H176.74V34.4769H174.183V26.9734H171.301V24.7826H174.183V18.9471V18.9521Z" fill="#B2B2B2"/>
<path d="M44.7776 27.1872C40.4089 24.2744 34.8122 25.4594 31.8744 29.846C29.4185 33.5106 25.7145 33.9637 24.2785 33.9637C19.6054 33.9637 16.4037 30.7373 15.4548 27.3963C15.4497 27.3614 15.4396 27.3365 15.4294 27.3017C15.4244 27.2619 15.4091 27.227 15.399 27.1872C15.0286 25.793 14.9322 25.1258 14.9322 23.647C14.9322 15.6606 23.284 6.76788 35.3095 6.76788C47.3349 6.76788 54.672 15.9693 56.4885 21.0828C56.458 20.9932 56.4276 20.9035 56.3972 20.8089C52.9012 10.8109 43.2351 3.62109 31.8591 3.62109C17.5402 3.62109 5.92578 15.0133 5.92578 29.0693C5.92578 41.6315 15.1605 52.3864 27.9674 52.3864C38.1814 52.3864 45.0516 46.765 48.1975 39.0175C49.9227 34.7803 48.6999 29.8012 44.7776 27.1872Z" fill="#B2B2B2"/>
<path d="M56.6445 21.5774C55.1273 16.5883 48.0288 6.76953 35.3031 6.76953C23.2776 6.76953 14.9258 15.6622 14.9258 23.6487C14.9258 25.1324 15.0171 25.7947 15.3926 27.1888C15.2353 26.5814 15.1541 25.9689 15.1541 25.3714C15.1541 17.0563 23.643 11.2906 32.3652 11.2906C44.1776 11.2906 53.7523 20.6861 53.7523 32.2725C53.7523 41.3544 48.4245 49.2163 40.6816 52.9955C50.6571 49.4553 57.7861 40.0797 57.7861 29.0659C57.7861 26.4619 57.4309 24.1615 56.6445 21.5774Z" fill="#CECECE"/>
</svg>
