<svg width="184" height="56" viewBox="0 0 184 56" fill="none" xmlns="http://www.w3.org/2000/svg">
<g clip-path="url(#clip0_1132_224)">
<path d="M106.059 23.1353C106.032 23.0286 105.566 21.2582 104.502 20.4956C104.312 20.3303 103.335 19.5091 102.739 19.5038C102.614 19.3758 102.294 19.2265 101.149 19.2531H101.127C100.677 19.3171 98.403 19.6637 97.9906 20.1277C97.9635 20.1437 96.6015 21.1889 96.1294 22.1008C96.1186 22.1114 95.5 22.9753 95.5 24.5005C95.5 24.6178 95.5 24.7351 95.5109 24.8577C95.5271 24.9644 95.8093 26.9801 96.6395 27.5881C96.6992 27.6787 97.372 28.6119 98.7394 29.1292C98.8697 29.2625 99.3146 29.6038 100.541 29.6678C100.628 29.6571 102.104 29.4758 103.167 28.9959C103.227 28.9692 104.681 28.3026 105.408 26.9215C105.479 26.8308 106.108 26.0149 106.108 24.2018C106.108 23.8765 106.087 23.5192 106.043 23.13L106.059 23.1353ZM103.075 24.8204C102.809 25.6843 101.914 26.3296 101.903 26.3349C100.861 26.8682 99.7813 26.5855 99.7704 26.5855C98.8588 26.0683 98.5821 25.0924 98.5766 25.0817C98.4953 24.8951 98.4627 24.6764 98.4627 24.4578C98.4627 23.9619 98.6418 23.4286 98.8859 23.098C98.9131 23.066 99.7053 22.2821 99.7053 22.2821C99.9332 22.1274 100.66 22.0368 100.915 22.0208H100.953L100.986 21.9941C101.165 21.8821 101.957 22.2874 102.549 22.73C103.021 23.194 103.075 24.1912 103.075 24.6338C103.075 24.7351 103.075 24.7884 103.075 24.8204Z" fill="#B2B2B2"/>
<path d="M129.31 23.1353C129.283 23.0286 128.816 21.2582 127.758 20.4956C127.568 20.3303 126.592 19.5091 125.995 19.5038C125.87 19.3758 125.55 19.2265 124.405 19.2531H124.389C123.938 19.3171 121.665 19.6637 121.252 20.1277C121.225 20.1437 119.863 21.1889 119.391 22.1008C119.38 22.1114 118.762 22.9753 118.762 24.5005C118.762 24.6178 118.762 24.7351 118.773 24.8577C118.789 24.9644 119.066 26.9801 119.901 27.5881C119.961 27.6787 120.634 28.6119 122.001 29.1292C122.131 29.2625 122.576 29.6038 123.803 29.6678C123.895 29.6571 125.371 29.4758 126.429 28.9959C126.489 28.9692 127.943 28.3026 128.67 26.9215C128.74 26.8308 129.37 26.0149 129.37 24.2018C129.37 23.8765 129.348 23.5192 129.299 23.13L129.31 23.1353ZM126.331 24.8204C126.065 25.6843 125.165 26.3296 125.159 26.3349C124.117 26.8682 123.038 26.5855 123.027 26.5855C122.115 26.0683 121.838 25.0924 121.838 25.0817C121.757 24.8951 121.724 24.6764 121.724 24.4578C121.724 23.9619 121.903 23.4286 122.148 23.098C122.18 23.066 122.967 22.2821 122.967 22.2821C123.195 22.1274 123.917 22.0368 124.177 22.0208H124.215L124.248 21.9941C124.427 21.8821 125.219 22.2874 125.81 22.73C126.277 23.194 126.331 24.1912 126.331 24.6338C126.331 24.7351 126.331 24.7884 126.331 24.8204Z" fill="#B2B2B2"/>
<path d="M15.4891 22.5616C15.5325 22.8442 15.5162 23.0948 15.4457 23.3028C15.3752 23.5161 15.2829 23.6814 15.169 23.8041C15.0496 23.9267 14.9248 24.0227 14.7946 24.0814C14.6643 24.14 14.5504 24.1667 14.4527 24.1667C14.4256 24.1667 14.3496 24.1667 14.2248 24.1507C14.1 24.14 13.9427 24.1294 13.7473 24.1187C13.552 24.108 13.3403 24.0974 13.107 24.0867C12.8737 24.076 12.6349 24.0707 12.4016 24.0707C12.1683 24.0867 11.9458 24.092 11.7396 24.0814C11.5334 24.0707 11.3544 24.0707 11.2024 24.0707C11.0234 24.0707 10.8497 24.06 10.6869 24.0387H9.36295L7.33898 24.0707H6.5142L5.7274 24.1347L4.42511 24.1827L4.11582 24.0067L3.14453 21.6603L3.35073 21.3084L5.41268 21.4204C5.59174 21.4364 5.74368 21.447 5.87391 21.4524C6.00413 21.463 6.15064 21.463 6.31885 21.463C6.55218 21.463 6.80178 21.463 7.06224 21.4577C7.3227 21.4577 7.52889 21.447 7.68083 21.4364L7.55603 18.9887L7.84361 18.6367L10.4048 19.4419L10.6327 19.7459L10.7086 21.3777L11.8481 21.4097H14.1868C14.2682 21.4257 14.3767 21.4364 14.5178 21.447C14.6535 21.4577 14.7891 21.495 14.9194 21.5697C15.0496 21.6443 15.169 21.7563 15.2721 21.911C15.3752 22.0656 15.4511 22.2789 15.4891 22.5669V22.5616Z" fill="#B2B2B2"/>
<path d="M21.7494 36.9626C21.7765 37.1173 21.7873 37.3039 21.7819 37.5332C21.7819 37.6506 21.6842 38.0398 21.5215 38.2851C21.375 38.5144 21.1579 38.5998 21.0982 38.6531C20.9734 38.7597 4.05998 38.7757 4.05998 38.7757L3.72898 38.2691L3.68557 37.3626L3.53906 32.5045L3.89176 32.2539L6.22503 33.3844L6.43122 33.6831L6.53432 35.9441C6.65912 35.9654 6.84361 35.9814 7.09322 35.9921C7.34282 36.0028 7.61956 36.0081 7.92343 36.0081C8.15675 36.0241 8.40093 36.0294 8.64511 36.0188C8.89471 36.0081 9.12804 36.0081 9.35051 36.0081H15.2379L17.9727 35.9441L20.5827 35.8694C20.7781 35.8694 20.9463 35.9121 21.0928 35.9974C21.2393 36.0828 21.3641 36.1841 21.4781 36.3014C21.5486 36.4027 21.6029 36.5094 21.6408 36.6214C21.6842 36.728 21.7168 36.8453 21.7439 36.9626H21.7494Z" fill="#B2B2B2"/>
<path d="M137.438 36.5837C137.466 36.733 137.476 36.925 137.466 37.1543C137.466 37.277 137.368 37.6609 137.2 37.9062C137.053 38.1355 136.842 38.2209 136.782 38.2742C136.657 38.3808 119.744 38.3968 119.744 38.3968L119.413 37.8902L119.369 36.9784L119.223 32.1256L119.575 31.875L121.909 33.0055L122.115 33.3042L122.218 35.5652C122.343 35.5865 122.527 35.6025 122.777 35.6132C123.026 35.6239 123.303 35.6292 123.607 35.6292C123.84 35.6505 124.085 35.6505 124.334 35.6452C124.584 35.6345 124.817 35.6292 125.04 35.6292H130.927L133.662 35.5652L136.272 35.4905C136.467 35.4905 136.635 35.5332 136.782 35.6132C136.928 35.6985 137.053 35.7998 137.167 35.9172C137.238 36.0185 137.292 36.1251 137.33 36.2371C137.373 36.3491 137.406 36.4611 137.433 36.5784L137.438 36.5837Z" fill="#B2B2B2"/>
<path d="M13.5416 28.1888C13.5036 27.6395 13.292 27.0796 12.9122 26.493C12.8959 26.4663 12.8579 26.3863 12.8036 26.2637C12.7439 26.141 12.63 25.9917 12.4618 25.8157C12.2936 25.6398 12.0602 25.4478 11.7727 25.2345C11.4851 25.0318 11.1052 24.8185 10.6332 24.5999C10.1882 24.5679 9.83007 24.5466 9.54791 24.5306C9.26575 24.5146 9.04328 24.5039 8.88049 24.5039C8.70143 24.5039 8.5712 24.5199 8.48438 24.5519L7.3286 24.7119C7.16581 24.7865 7.00303 24.8772 6.84024 24.9678C6.69374 25.0478 6.53095 25.1385 6.36274 25.2451C6.19453 25.3518 6.02631 25.4691 5.86353 25.5918C5.64105 25.8371 5.44571 26.109 5.28835 26.4023C5.14184 26.6636 5.00076 26.9623 4.86511 27.3036C4.72945 27.6448 4.65891 28.0128 4.64263 28.4127C4.6155 28.69 4.60465 28.9673 4.62093 29.2446C4.63721 29.4739 4.67519 29.7139 4.73488 29.9592C4.79457 30.2045 4.89767 30.4232 5.04417 30.6045C5.13099 30.8178 5.24494 31.0257 5.37517 31.2284C5.49455 31.399 5.64105 31.5803 5.82012 31.7723C5.99918 31.9643 6.2108 32.1296 6.46583 32.2683C6.83482 32.4336 7.21465 32.5829 7.59991 32.7055C7.9092 32.8122 8.2402 32.8975 8.59833 32.9455C8.95103 33.0042 9.26575 32.9882 9.53163 32.9135C9.61845 32.9135 9.78666 32.9082 10.02 32.8868C10.2587 32.8708 10.5355 32.8069 10.8502 32.6895C11.1649 32.5775 11.4959 32.3962 11.8378 32.1616C12.1742 31.9216 12.4889 31.5803 12.7711 31.1324C13.0641 30.6685 13.2866 30.1832 13.4385 29.6766C13.5579 29.2286 13.5959 28.7327 13.5579 28.1888H13.5416ZM10.7471 28.7007C10.7037 28.9513 10.6169 29.2073 10.4866 29.4579C10.275 29.7939 10.0417 30.0232 9.79209 30.1405C9.53163 30.2632 9.29831 30.3272 9.08669 30.3432C8.83165 30.3592 8.58205 30.3112 8.3433 30.2098C7.94719 30.0445 7.68673 29.8366 7.56193 29.5859C7.43712 29.33 7.37201 29.0793 7.37201 28.8447C7.37201 28.5781 7.43712 28.2954 7.56735 27.9968C7.61076 27.8475 7.69215 27.7142 7.8061 27.5915L8.16423 27.2609L8.61461 26.9943C8.91847 26.9569 9.20064 26.9463 9.42854 26.9676C9.64558 26.9889 9.8138 27.0316 9.92232 27.0849C10.0634 27.1436 10.1611 27.2182 10.2316 27.2982C10.4758 27.5275 10.6332 27.7622 10.6928 28.0075C10.7362 28.1834 10.7634 28.3488 10.7634 28.5034C10.7634 28.5674 10.7634 28.6367 10.7525 28.6954L10.7471 28.7007Z" fill="#B2B2B2"/>
<path d="M59.5819 27.4158C59.5439 26.8558 59.3269 26.2799 58.9362 25.6827C58.9199 25.6507 58.8819 25.5707 58.8223 25.448C58.7626 25.3254 58.6432 25.1707 58.4696 24.9894C58.2959 24.8081 58.0626 24.6108 57.7696 24.4028C57.4766 24.1895 57.0859 23.9762 56.6029 23.7522C56.1526 23.7202 55.7782 23.6989 55.496 23.6829C55.2084 23.6669 54.9805 23.6562 54.8177 23.6562C54.6387 23.6562 54.503 23.6722 54.4108 23.7042L53.2333 23.8696C53.0651 23.9495 52.9023 24.0349 52.7341 24.1309C52.5821 24.2055 52.4193 24.3015 52.2457 24.4135C52.0721 24.5255 51.9039 24.6428 51.7357 24.7708C51.5078 25.0214 51.3124 25.2934 51.1442 25.5973C50.9923 25.864 50.8512 26.1679 50.7155 26.5146C50.5799 26.8612 50.5039 27.2345 50.4876 27.6451C50.4551 27.9277 50.4496 28.2103 50.4659 28.493C50.4822 28.7276 50.5202 28.9729 50.5799 29.2235C50.6396 29.4742 50.7481 29.6928 50.9 29.8848C50.9923 30.1034 51.1008 30.3167 51.2419 30.5194C51.3612 30.6954 51.5132 30.8767 51.6922 31.074C51.8767 31.2713 52.0938 31.4366 52.3488 31.5806C52.7286 31.7512 53.1139 31.9005 53.5046 32.0285C53.8193 32.1405 54.1612 32.2258 54.5247 32.2792C54.8883 32.3325 55.203 32.3218 55.4743 32.2418C55.5665 32.2418 55.7293 32.2365 55.9735 32.2205C56.2123 32.2045 56.4944 32.1352 56.82 32.0179C57.1456 31.9005 57.482 31.7246 57.8293 31.4739C58.1765 31.2286 58.4913 30.882 58.7788 30.4234C59.0827 29.9541 59.3106 29.4582 59.4571 28.9356C59.5765 28.4823 59.6199 27.9757 59.5819 27.4158ZM56.7277 27.933C56.6843 28.189 56.5921 28.4503 56.4619 28.7116C56.2448 29.0582 56.0061 29.2929 55.751 29.4102C55.4906 29.5328 55.2464 29.6022 55.0293 29.6182C54.7689 29.6342 54.5139 29.5862 54.2697 29.4848C53.8627 29.3195 53.5968 29.1062 53.4666 28.8449C53.3364 28.5783 53.2713 28.3223 53.2713 28.0877C53.2713 27.8157 53.3364 27.5278 53.472 27.2238C53.5154 27.0691 53.5968 26.9358 53.7162 26.8079L54.0798 26.4719L54.541 26.1999C54.8503 26.1573 55.1433 26.1466 55.3766 26.1679C55.5991 26.1893 55.7673 26.2319 55.8813 26.2906C56.0223 26.3492 56.1309 26.4239 56.196 26.5039C56.4456 26.7385 56.6029 26.9785 56.6681 27.2345C56.7115 27.4104 56.7332 27.5811 56.7332 27.7411C56.7332 27.8104 56.7332 27.8744 56.7223 27.9384L56.7277 27.933Z" fill="#B2B2B2"/>
<path d="M23.6619 24.7306C23.6728 24.7626 23.6836 24.8212 23.6836 24.8959C23.6836 24.9706 23.6511 25.1465 23.5805 25.2958C23.5534 25.3438 23.5371 25.4132 23.5263 25.4985C23.5208 25.5838 23.4937 25.6585 23.4557 25.7225C23.3743 25.8024 23.3092 25.8824 23.2604 25.9464C23.2115 26.0104 23.1356 26.0904 23.0216 26.1704C22.9945 26.1864 22.9077 26.2184 22.7612 26.2611C22.6147 26.3037 22.517 26.325 22.4627 26.325H20.8674L20.8403 29.1567V31.0658C20.8403 31.3164 20.8294 31.5511 20.8077 31.7697C20.786 31.9883 20.7209 32.1856 20.6124 32.3723C20.4496 32.6549 20.2326 32.8309 19.9721 32.9002C19.9016 32.9695 19.8256 32.9962 19.7442 32.9855C19.6628 32.9802 19.5651 32.9749 19.4566 32.9749C19.3047 32.9749 18.8 32.9375 18.659 32.8629C18.5233 32.7882 18.4202 32.7082 18.3497 32.6229C18.2954 32.5536 18.252 32.4683 18.2249 32.3563C18.1977 32.2496 18.176 32.1536 18.1597 32.0683C18.1435 31.967 18.138 31.8603 18.138 31.743L18.1109 31.3377V25.8878L18.0838 22.4215L18.0458 19.3819L18.0078 18.7313L18.2574 18.582L20.7643 19.6859L20.824 20.0112L20.8023 22.0216L20.8294 23.3388H22.1209L22.5333 23.3868C22.6309 23.4028 22.7286 23.4401 22.8263 23.4881C22.9077 23.5201 22.9945 23.5627 23.0759 23.6107C23.1573 23.6641 23.2332 23.7227 23.3038 23.7867C23.4177 23.92 23.4937 24.1013 23.5425 24.3253C23.5914 24.5546 23.6293 24.6453 23.6565 24.7306H23.6619Z" fill="#B2B2B2"/>
<path d="M46.5748 27.7688C46.5911 27.9181 46.5965 28.062 46.5965 28.2007C46.5965 28.3393 46.5802 28.4887 46.5531 28.638C46.5097 28.7873 46.4283 28.9259 46.3089 29.0593C46.2492 29.1232 46.195 29.1819 46.157 29.2299L45.495 29.5285H39.4556C39.4285 29.5285 37.8495 29.5712 37.7627 29.5552L37.741 29.8058C37.741 29.8538 37.741 30.4191 37.7301 30.6591C37.7247 30.899 37.6596 31.203 37.5565 31.3363C37.4805 31.4216 37.4045 31.5656 37.3123 31.6136L36.9705 31.7949L36.3898 31.9389L35.6899 31.9762C35.5868 31.9762 35.4891 31.9656 35.4023 31.9496C35.2124 31.9176 35.0767 31.8749 35.0062 31.8269C34.9302 31.7949 34.7511 31.6989 34.6263 31.5176C34.4907 31.315 34.4527 30.8244 34.4527 30.771L34.4256 30.5631L34.4039 29.6352V29.5339H29.9327C29.8025 29.5552 27.0677 29.5659 27.0677 29.5659L26.4491 28.542L26.0312 27.1235L26.384 26.8782L30.7032 26.8622L35.8581 26.8355C35.8581 26.8355 45.8314 26.7715 45.9942 26.8569C46.1244 26.9422 46.2492 27.0542 46.3578 27.1928C46.4663 27.3315 46.5368 27.5288 46.5694 27.7741L46.5748 27.7688Z" fill="#B2B2B2"/>
<path d="M92.9335 26.9321C92.9498 27.0601 92.9552 27.1827 92.9552 27.3C92.9552 27.4174 92.939 27.54 92.9118 27.668C92.8684 27.796 92.787 27.9133 92.6676 28.0306C92.608 28.0839 92.5591 28.1373 92.5157 28.1746L91.8537 28.4252C91.8537 28.4252 84.2082 28.4626 84.1214 28.4466L84.0997 28.6599C84.0997 28.7025 84.0997 28.9798 84.0888 29.1825C84.0834 29.3851 84.0292 29.6358 83.9261 29.7477C83.8555 29.8171 83.8013 29.9077 83.7578 29.9184L83.6222 30.0357L83.2424 30.1903L82.8571 30.249L82.2005 30.2863C82.0974 30.2863 81.9726 30.2597 81.8858 30.249C81.6959 30.2223 81.5819 30.169 81.506 30.1264C81.3432 30.0677 81.1533 29.9344 81.0665 29.8437C80.9796 29.7584 80.9199 29.6837 80.8874 29.6144C80.844 29.5291 80.8223 29.3531 80.8223 29.2678V29.0758L80.7789 28.5052V28.4199H76.3077C76.1775 28.4412 73.4427 28.4466 73.4427 28.4466L72.8241 27.5773L72.4062 26.3668L72.6721 26.0469L82.2331 26.1215C82.2331 26.1215 92.2064 26.0682 92.3692 26.1375C92.4994 26.2069 92.6188 26.3028 92.7328 26.4202C92.8413 26.5375 92.9118 26.7081 92.9444 26.9161L92.9335 26.9321Z" fill="#B2B2B2"/>
<path d="M61.3464 22.0436C61.3735 22.2089 61.3681 22.3262 61.3355 22.3902C61.2975 22.4542 61.2595 22.5555 61.2215 22.6835C61.1619 22.8328 61.1022 22.9448 61.0208 23.0248C60.9448 23.1101 60.8634 23.1581 60.782 23.1848C60.7006 23.2114 60.6138 23.2274 60.5324 23.2328C60.451 23.2434 60.3805 23.2434 60.3262 23.2434H59.7619C59.496 23.2274 59.203 23.2221 58.8774 23.2328C58.5519 23.2434 58.2209 23.2434 57.8899 23.2434C57.6945 23.2434 57.5155 23.2434 57.3472 23.2594C57.179 23.2701 57.0325 23.2754 56.9077 23.2754H56.5116L55.1171 23.2274L53.1419 23.2754L52.2846 23.3074L51.3296 23.3394H50.2444L49.9513 23.2914L48.8281 20.9717L49.1211 20.6304L50.5808 20.7264H51.4598L52.6265 20.7584H53.5218V20.5984L53.3753 18.46L53.5815 17.9961L56.2023 18.7267L56.4085 19.1639L56.5116 20.6944L57.51 20.6411L59.241 20.6678H60.0332C60.1417 20.6678 60.2611 20.6784 60.3859 20.6944C60.4999 20.7264 60.603 20.7637 60.7115 20.8064C60.8146 20.8491 60.9231 20.9344 61.0316 21.0624C61.113 21.1637 61.1836 21.3023 61.2324 21.4943C61.2812 21.681 61.3192 21.8676 61.3464 22.0436Z" fill="#B2B2B2"/>
<path d="M67.1122 38.487C66.8463 38.8283 66.5587 38.9989 66.2549 38.9989L65.4192 38.9723L64.8766 38.4603L64.6053 37.8791L64.5402 36.3753V35.5967L52.1631 35.5647L50.1011 35.5914L49.7864 35.4474L49.4934 35.0314L49.2438 34.3702L48.8477 33.4423L49.0973 32.957L51.5336 33.0744L54.9901 33.0477L66.9874 32.989L67.3835 33.357V37.5911C67.3835 37.9484 67.2859 38.247 67.0959 38.487H67.1122Z" fill="#B2B2B2"/>
<path d="M44.9373 38.2409C44.6714 38.5822 44.3893 38.7528 44.0854 38.7528L43.2498 38.7315L42.7071 38.2196L42.4358 37.6383L42.3707 36.1345V35.3559L36.0818 35.3293L27.937 35.3453L27.6223 35.2013L27.3293 34.7853L27.0797 34.1241L26.6836 33.1962L26.9332 32.7109L29.3696 32.8229L42.2676 32.7376H44.8288L45.2249 33.1056V37.3397C45.2249 37.697 45.1272 37.9956 44.9319 38.2356L44.9373 38.2409Z" fill="#B2B2B2"/>
<path d="M44.9373 25.1419C44.6714 25.4832 44.3893 25.6592 44.0854 25.6592L43.2498 25.6325L42.7071 25.1206L42.4358 24.5286L42.3707 23.0088V22.2249H27.9316L27.3293 21.6543L27.0797 20.9877L26.6836 20.0492L26.9332 19.5586L29.3696 19.6759L32.826 19.6546L36.4941 19.6333L39.1801 19.5906H44.8233L45.2195 19.9585V24.2407C45.2195 24.598 45.1218 24.9019 44.9264 25.1472L44.9373 25.1419Z" fill="#B2B2B2"/>
<path d="M69.5727 24.8676C69.589 24.8996 69.5944 24.953 69.5944 25.0223C69.5944 25.0916 69.5564 25.2036 69.4913 25.3476C69.4642 25.3956 69.4425 25.4596 69.437 25.5396C69.4316 25.6196 69.4045 25.6942 69.3665 25.7582C69.2797 25.8382 69.2146 25.9128 69.1657 25.9768C69.1169 26.0408 69.0355 26.1155 68.927 26.1955C68.8999 26.2115 68.813 26.2381 68.6665 26.2755C68.52 26.3181 68.4169 26.3341 68.3681 26.3341H66.7619L66.7348 28.3019V30.147C66.7348 30.3923 66.7239 30.6163 66.7022 30.8242C66.6805 31.0322 66.6154 31.2295 66.5069 31.4055C66.3441 31.6828 66.1271 31.8481 65.8612 31.9174C65.7906 31.9814 65.7147 32.0081 65.6333 32.0027C65.5519 31.9974 65.4542 31.9921 65.3403 31.9921C65.1883 31.9921 64.7868 31.9547 64.6457 31.8854C64.5046 31.8108 64.4015 31.7361 64.3364 31.6561C64.2822 31.5921 64.2388 31.5068 64.2116 31.4002C64.1845 31.2935 64.1628 31.2028 64.1519 31.1229C64.1357 31.0269 64.1302 30.9202 64.1302 30.8082L64.1031 30.4189V25.1503L64.076 21.8014L64.038 18.8631L64 18.2338L64.2496 18.0898L66.6643 19.1564L66.7294 19.471L66.7077 21.4121L66.7348 23.3318H68.0317L68.4495 23.3905C68.5471 23.4065 68.6448 23.4385 68.7425 23.4865C68.8293 23.5185 68.9107 23.5558 68.9921 23.6091C69.0735 23.6571 69.1495 23.7158 69.22 23.7745C69.3285 23.9024 69.4099 24.0784 69.4587 24.2917C69.5076 24.5104 69.5456 24.777 69.5727 24.857V24.8676Z" fill="#B2B2B2"/>
<path d="M116.107 24.6318C116.107 24.7011 115.939 25.5703 115.868 25.7036C115.841 25.7463 115.543 25.9969 115.429 26.0662C115.402 26.0822 115.315 26.1089 115.168 26.1409C115.022 26.1782 114.468 26.1942 114.468 26.1942H113.72L113.258 26.1836L113.22 27.7034L113.172 28.5779C113.172 28.8019 113.155 28.7592 113.134 28.9565C113.112 29.1485 112.911 29.3672 112.797 29.5271C112.629 29.7778 112.45 29.9324 112.189 29.9911C112.119 30.0497 111.462 30.1084 111.321 30.0337C111.186 29.9698 111.05 29.9271 110.979 29.8524C110.925 29.7938 110.583 29.3992 110.572 29.3245C110.556 29.2338 110.551 29.1379 110.551 29.0312V28.8019L110.594 27.3674L110.616 24.7704V21.6828L110.594 18.9685L110.556 18.3872L110.806 18.2539L113.215 19.2564L113.275 19.5497L113.242 21.3415L113.253 23.2239H114.029L114.55 23.2346L114.968 23.2933C115.065 23.3093 115.163 23.3413 115.261 23.3893C115.342 23.4159 115.429 23.4532 115.51 23.5012C115.592 23.5492 115.928 23.9385 115.977 24.1412C116.026 24.3438 116.107 24.5678 116.107 24.6318Z" fill="#B2B2B2"/>
<path d="M91.9012 21.2962C91.8578 21.3602 91.8089 21.4188 91.7547 21.4828C91.7004 21.5308 91.6407 21.5788 91.581 21.6215C91.5159 21.6695 91.4454 21.7068 91.364 21.7388C91.2555 21.7708 91.1252 21.7815 90.9787 21.7708C90.8322 21.7601 90.7454 21.7601 90.7183 21.7601H89.926C89.7198 21.7601 89.4919 21.7495 89.2423 21.7335L88.016 21.7175L86.3936 21.6161L86.5835 21.6855L87.7284 22.1761L90.4904 23.4079C90.588 23.4079 90.6803 23.4612 90.7617 23.5572C90.8431 23.6585 90.9136 23.7705 90.9679 23.8985C91.0276 24.0212 91.071 24.1438 91.1035 24.2718C91.1361 24.3945 91.1469 24.4798 91.1361 24.5278C91.1089 24.7304 91.0547 24.8957 90.9679 25.029C90.8865 25.1624 90.7942 25.2637 90.6966 25.3437C90.5989 25.4237 90.5066 25.4823 90.4198 25.5196C90.3276 25.5623 90.2679 25.5783 90.2408 25.5783C90.1539 25.6103 90.0508 25.6156 89.9152 25.605C89.785 25.589 89.6547 25.5676 89.5299 25.5356C89.378 25.5036 89.2315 25.4663 89.0958 25.4183L87.9943 24.9064L86.4967 24.2078L85.3138 23.5999L83.7944 22.8746L82.2588 22.0588L81.0759 22.7093L79.8279 23.3866L78.7264 23.9199L76.5451 24.8957L75.5303 25.3863L74.8466 25.5463L74.2661 25.3863C74.1521 25.3223 74.0599 25.237 73.9839 25.1304C73.9079 25.0237 73.8428 24.9011 73.7885 24.7784C73.7343 24.6398 73.68 24.4958 73.6258 24.3571L73.7289 23.7492L74.2932 23.4239L74.9986 23.0506L76.0404 22.6347L76.9303 22.2134L77.9721 21.8188L78.4714 21.6108L76.1435 21.6695L74.1087 21.6961L73.7777 21.5308L73.5064 21.0615L73.2351 20.427L72.9258 19.6057L73.2134 19.3711L74.6893 19.4031H81.9821C81.9821 19.4031 91.4942 19.4031 91.5702 19.4511C91.6461 19.5044 91.7113 19.5684 91.7655 19.6271C91.8198 19.7071 91.8795 19.7924 91.9337 19.883L92.0802 20.6083L91.9175 21.2855L91.9012 21.2962Z" fill="#B2B2B2"/>
<path d="M111.037 32.3907C110.635 31.4095 109.811 30.6256 109.729 30.5616C109.659 30.5029 109.219 30.0816 108.557 29.8897C107.857 29.687 106.973 29.5964 106.913 29.5964C106.913 29.5857 106.284 29.5804 105.747 29.6444C105.361 29.687 104.976 29.8523 104.754 29.8897C104.634 29.9323 103.853 30.2309 103.267 30.6842C102.697 31.1268 102.317 31.7294 102.252 31.8254C102.127 32.0334 102.03 32.2787 101.97 32.5613C101.926 32.6946 101.878 32.8599 101.834 33.0626C101.802 33.2439 101.769 33.4732 101.742 33.7452C101.715 34.0171 101.731 34.3318 101.715 34.7477C101.731 34.945 101.764 35.281 101.823 35.5103C101.883 35.7076 101.926 35.8569 102.03 36.1182C102.138 36.3795 102.295 36.6728 102.507 36.9874C102.594 37.1207 102.692 37.2541 102.8 37.3874C102.892 37.51 103.158 37.9473 103.755 38.2726C104.498 38.6779 105.649 38.9605 106.452 38.9232C107.168 38.8912 108.156 38.7632 108.899 38.3686C109.68 37.9526 110.212 37.2594 110.337 37.1367C110.587 36.9074 110.744 36.6781 110.82 36.4648C110.956 36.1342 111.07 35.8036 111.156 35.4676C111.232 35.185 111.292 34.8864 111.335 34.5717C111.357 34.4224 111.395 33.3026 111.015 32.3853L111.037 32.3907ZM108.232 35.4356C107.901 35.9102 107.25 36.2089 107.222 36.2249C107.027 36.3155 106.392 36.3795 106.235 36.3368L106.191 36.3208C106.023 36.2782 105.508 36.1395 105.204 35.9209C104.911 35.7129 104.661 35.329 104.629 35.201L104.607 35.137C104.547 34.9344 104.406 34.4651 104.466 33.9958C104.493 33.7878 104.645 33.1106 105.003 32.7586C105.367 32.4013 105.882 32.2894 106.056 32.252L106.105 32.2414L106.457 32.188L106.588 32.1774C106.653 32.172 107.401 32.2307 107.868 32.6466C108.139 32.8866 108.633 33.5212 108.579 34.2144C108.546 34.6144 108.476 35.0783 108.221 35.4463L108.232 35.4356Z" fill="#B2B2B2"/>
<path d="M86.4026 32.8827C86.0282 31.9868 85.2631 31.2722 85.1926 31.2136C85.1275 31.1603 84.7205 30.7763 84.1073 30.6003C83.4562 30.4137 82.6368 30.3337 82.5826 30.3337C82.5826 30.323 81.9965 30.323 81.5028 30.3764C81.1446 30.419 80.7865 30.5683 80.5857 30.6003C80.4718 30.6377 79.7501 30.9096 79.2075 31.3256C78.6757 31.7309 78.3284 32.2748 78.2687 32.3708C78.1494 32.5627 78.0625 32.7814 78.0083 33.0427C77.9703 33.1653 77.9269 33.3147 77.8835 33.496C77.8564 33.6613 77.8292 33.8692 77.7967 34.1199C77.7695 34.3705 77.7858 34.6585 77.7695 35.0371C77.7858 35.2184 77.8184 35.5224 77.8726 35.7357C77.9269 35.917 77.9703 36.0503 78.068 36.2903C78.1656 36.5302 78.3122 36.7969 78.5075 37.0848C78.5889 37.2075 78.6811 37.3301 78.7788 37.4475C78.8656 37.5648 79.1152 37.9594 79.6633 38.258C80.3524 38.626 81.4214 38.8819 82.1648 38.85C82.8322 38.818 83.7383 38.706 84.4329 38.3433C85.16 37.9647 85.6484 37.3301 85.7677 37.2182C85.9956 37.0049 86.1476 36.8022 86.2181 36.6049C86.3429 36.3009 86.446 36.0023 86.5274 35.6984C86.5979 35.4371 86.6522 35.1651 86.6956 34.8825C86.7173 34.7438 86.7499 33.7199 86.4026 32.8827ZM84.1182 34.5412C84.1019 34.7651 84.0585 35.2771 83.7926 35.661C83.4887 36.0983 82.8864 36.3703 82.8593 36.3809C82.6748 36.4663 82.0888 36.5196 81.9477 36.4823L81.9043 36.4716C81.7469 36.4289 81.2694 36.3009 80.9927 36.109C80.7214 35.917 80.4881 35.5704 80.4609 35.453L80.4446 35.3891C80.3904 35.2077 80.2656 34.7758 80.3198 34.3492C80.3415 34.1625 80.4826 33.5493 80.8136 33.2187C81.1446 32.8934 81.6276 32.7921 81.7849 32.7601L81.8338 32.7494L82.1539 32.7014L82.2787 32.6907C82.3384 32.6854 83.0275 32.7334 83.467 33.1173C83.7058 33.3253 84.129 33.8586 84.129 34.4452C84.129 34.4772 84.129 34.5092 84.129 34.5412H84.1182Z" fill="#B2B2B2"/>
<path d="M137.237 30.7118L137.145 31.5063L136.841 31.9543L136.32 32.2476L135.609 32.3489L134.937 31.9703L134.747 31.2024L134.741 28.4667L133.933 28.4614L133.368 28.4827L132.402 28.4614L132.023 28.3334L131.741 27.4322L131.426 25.9977L131.73 25.7044L133.754 25.7417L134.725 25.7204L134.714 23.6887L134.388 23.662L133.244 23.6833L132.381 23.71L132.034 23.5234L131.529 21.241L131.789 20.9264L132.913 20.9904L134.209 21.0223L134.806 20.969V20.3878L134.79 18.7346L135.116 18.5L137.167 19.3852L137.297 19.8065L137.291 21.3476L137.275 24.3393V28.2054L137.237 30.7118Z" fill="#B2B2B2"/>
<path d="M160.399 33.1687L159.927 33.6167C159.927 33.6167 158.706 33.6167 158.5 33.6273C158.294 33.6327 153.047 33.6167 153.047 33.6167L152.455 33.6487V37.2215L152.151 37.8081L151.744 38.1388L151.218 38.3254C151.148 38.3254 150.719 38.3734 150.648 38.3734C150.578 38.3734 150.165 38.1921 150.095 38.1601C150.046 38.1388 149.867 38.0748 149.704 37.9201C149.574 37.7975 149.465 37.5948 149.444 37.5095C149.4 37.3122 149.406 35.7124 149.406 35.5791V35.2111C149.406 35.0511 149.379 33.8246 149.379 33.7127L148.689 33.686L141.369 33.6487L141.152 33.478L140.469 31.2116L140.68 30.9023L160.16 30.9983L160.654 31.6009L160.763 32.6035L160.399 33.1741V33.1687Z" fill="#B2B2B2"/>
<path d="M159.538 25.4142L159.489 28.6671L159.229 29.3924L158.664 29.8563L157.861 29.9896L156.961 29.4884L156.765 28.3525V25.7822L156.814 22.1666L155.344 22.156L153.336 22.1613L151.686 22.2093L147.72 22.1666L144.421 22.156L141.746 22.1986L141.436 21.9533L140.59 19.8256L140.785 19.591L158.898 19.543L159.473 20.0176L159.478 21.3454L159.538 25.4142Z" fill="#B2B2B2"/>
<path d="M181.612 36.9626C181.64 37.1173 181.65 37.3039 181.645 37.5332C181.645 37.6506 181.542 38.0398 181.385 38.2851C181.233 38.5144 181.021 38.5998 180.967 38.6531C180.842 38.7597 163.798 38.7757 163.798 38.7757L163.467 38.2691L163.424 37.3626L163.277 32.5045L163.63 32.2539L165.963 33.3844L166.17 33.6831L166.273 35.9441C166.397 35.9654 166.582 35.9814 166.832 35.9921C167.081 36.0028 167.358 36.0081 167.662 36.0081C167.895 36.0241 168.134 36.0294 168.389 36.0188C168.638 36.0134 168.872 36.0081 169.094 36.0081H174.982L177.716 35.9441L180.457 35.8694C180.652 35.8694 180.82 35.9121 180.961 35.9974C181.108 36.0828 181.233 36.1841 181.347 36.3014C181.417 36.4027 181.471 36.5094 181.509 36.6214C181.547 36.728 181.585 36.8453 181.612 36.9626Z" fill="#B2B2B2"/>
<path d="M175.913 30.8557L175.561 31.3676L174.682 31.4689H173.651L171.979 31.5222L170.932 31.4902V32.3968L170.9 33.4633L170.449 33.9539L169.717 34.1992C169.641 34.1832 169.103 34.1619 169.044 34.1246C168.984 34.0926 168.924 34.0659 168.87 34.0552C168.81 34.0392 168.762 34.0126 168.718 33.9806C168.675 33.9433 168.572 33.9006 168.485 33.7779C168.42 33.682 168.366 33.5113 168.355 33.4687C168.333 33.3727 168.306 33.2553 168.279 33.1274C168.252 32.9834 168.224 32.8287 168.214 32.6688L168.186 31.6449V31.4636L166.461 31.4902L165.126 31.4636L163.574 31.4369L163.292 31.2183L162.836 30.381L162.375 29.1759L162.641 28.7812L164.524 28.9146L166.428 28.9679L167.763 28.9946L170.672 28.9412L172.538 28.8879L173.879 28.9092L175.24 28.9359L175.702 29.2772L176.033 30.1091L175.919 30.8663L175.913 30.8557Z" fill="#B2B2B2"/>
<path d="M173.987 22.4942C173.884 22.1689 173.759 21.8596 173.613 21.5663C173.493 21.3103 173.352 21.0384 173.173 20.7664C172.999 20.4891 172.799 20.2651 172.582 20.0838C172.332 19.8545 172.044 19.6519 171.724 19.4706C171.447 19.3266 171.111 19.1879 170.726 19.0599C170.341 18.932 169.89 18.8733 169.375 18.8893C169.282 18.8893 169.109 18.9106 168.837 18.948C168.566 18.9906 168.284 19.0493 167.991 19.1186C167.698 19.1933 167.416 19.2786 167.144 19.3852C166.873 19.4919 166.694 19.5932 166.607 19.6892C166.374 19.8812 166.146 20.0838 165.929 20.2971C165.739 20.4784 165.549 20.6757 165.37 20.8944C165.186 21.113 165.039 21.3263 164.92 21.5396C164.79 21.7209 164.676 21.9396 164.589 22.2009C164.518 22.4302 164.448 22.7021 164.393 23.0168C164.334 23.3367 164.323 23.694 164.35 24.0993C164.393 24.4566 164.459 24.7979 164.545 25.1232C164.616 25.3951 164.719 25.6884 164.849 25.9871C164.979 26.2857 165.148 26.5257 165.354 26.707C165.56 26.9789 165.815 27.2349 166.124 27.4589C166.39 27.6562 166.727 27.8428 167.134 28.0295C167.541 28.2161 168.056 28.3388 168.669 28.4081C168.973 28.4241 169.288 28.4081 169.613 28.3601C169.89 28.3281 170.183 28.2801 170.492 28.2161C170.802 28.1521 171.084 28.0561 171.35 27.9228C171.599 27.7788 171.854 27.6135 172.115 27.4322C172.321 27.2722 172.544 27.0749 172.782 26.835C173.026 26.6003 173.227 26.3177 173.39 25.9924C173.547 25.7631 173.688 25.4858 173.808 25.1658C173.895 24.8939 173.965 24.5312 174.014 24.0833C174.063 23.6354 174.052 23.1074 173.982 22.4888L173.987 22.4942ZM171.144 24.9152L170.78 25.3685L170.308 25.7258C170.069 25.8484 169.83 25.9284 169.592 25.9604L168.935 25.9924L168.468 25.9391C168.468 25.9391 168.338 25.9071 168.273 25.8964C168.051 25.7738 167.866 25.6298 167.725 25.4751L167.383 25.0219L167.15 24.5206C167.079 24.3766 167.041 24.206 167.036 24.0086L167.079 23.3794L167.242 22.7715C167.307 22.5902 167.394 22.4408 167.492 22.3342L168.181 21.8329C168.165 21.8383 168.463 21.7476 168.463 21.7476L168.854 21.6623L169.206 21.5876L169.386 21.5556C169.559 21.5663 169.744 21.6143 169.928 21.6836L170.427 21.9129L170.899 22.2435C171.046 22.3929 171.16 22.5848 171.23 22.8035L171.382 23.486C171.382 23.486 171.404 24.2539 171.404 24.2699C171.35 24.5312 171.263 24.7499 171.154 24.9205L171.144 24.9152Z" fill="#B2B2B2"/>
<path d="M181.391 32.2007L181.304 33.0059L180.994 33.4645L180.468 33.7632L179.741 33.8698L179.057 33.4645L178.846 32.734L178.84 27.4173L177.012 27.4013L176.719 27.2253L176.453 26.4628L176.008 24.9963L176.301 24.6763L178.053 24.6603H178.867V24.2817V22.1806L178.84 21.3754V19.061L179.171 18.7891L181.26 19.6796L181.391 20.1116L181.412 21.914L181.391 24.9483L181.412 28.8625L181.391 32.2007Z" fill="#B2B2B2"/>
</g>
<defs>
<clipPath id="clip0_1132_224">
<rect width="178.5" height="21" fill="white" transform="translate(3.14453 18)"/>
</clipPath>
</defs>
</svg>
