<svg width="184" height="56" viewBox="0 0 184 56" fill="none" xmlns="http://www.w3.org/2000/svg">
<path d="M38.038 14.1406V18.5703H41.5536V14.1406H46.1942V29.9258H33.2567V14.1406H38.038ZM37.5809 36.9219V32.9141H60.0458V44.375H54.9833V36.9219H37.5809ZM38.038 25.9883H41.5536V22.4023H38.038V25.9883ZM48.3739 31.4375V12.6992H53.0497V19.8359H55.2294V12.1367H60.0458V31.5781H55.2294V23.9141H53.0497V31.4375H48.3739ZM80.4814 15.2305V18.1133C80.4638 21.2949 80.4638 25.1797 79.6025 30.3125L74.6455 29.9258C75.3486 25.4785 75.4189 22.1562 75.4541 19.2383H63.6416V15.2305H80.4814ZM62.0244 33.9336C63.747 33.916 65.6279 33.916 67.6142 33.8633V24.4766H72.5712V33.7051C75.6123 33.582 78.6884 33.3535 81.5361 32.9844L81.8525 36.7461C75.2607 37.8711 68.0537 37.9766 62.4462 37.9414L62.0244 33.9336ZM82.872 44.375V12.1016H88.0048V24.8984H92.1181V29.1172H88.0048V44.375H82.872ZM104.503 18.957C104.485 24.793 106.524 30.6113 111.886 33.1953L108.862 37.2031C105.487 35.5684 103.29 32.6152 101.989 28.959C100.618 32.8965 98.2452 36.0781 94.6241 37.8359L91.5303 33.7227C97.2256 31.1562 99.4229 25.0039 99.4405 18.957V14.4922H104.503V18.957ZM112.835 44.375V12.1016H117.897V24.3359H122.468V28.5898H117.897V44.375H112.835ZM149.653 12.1367V35.6562H144.626V24.3711H139.775V20.293H144.626V12.1367H149.653ZM122.056 28.1328C127.558 26.4629 129.632 22.2793 129.65 18.2891V18.2188H123.462V14.1758H140.97V18.2188H134.818V18.3242C134.818 21.9629 136.821 25.9355 142.06 27.6055L139.599 31.6133C136.066 30.4883 133.693 28.2734 132.304 25.4961C130.88 28.5723 128.401 31.0156 124.657 32.2109L122.056 28.1328ZM128.032 43.8477V33.6172H133.095V39.8047H150.392V43.8477H128.032Z" fill="#B2B2B2"/>
</svg>
