<svg width="184" height="56" viewBox="0 0 184 56" fill="none" xmlns="http://www.w3.org/2000/svg">
<path d="M74.2538 14.7383V17.7617C74.2538 21.6465 74.2538 26.1465 73.0585 32.8086L68.0663 32.3867C69.0859 26.6387 69.1738 22.332 69.1562 18.7461H50.1015V14.7383H74.2538ZM47.2538 40.6133V36.5352H53.1952V26.5156H58.2226V36.5352H61.246V26.5156H66.2382V36.5352H76.6796V40.6133H47.2538ZM95.498 15.2305V18.1133C95.4805 21.2949 95.4805 25.1797 94.6191 30.3125L89.6621 29.9258C90.3652 25.4785 90.4355 22.1562 90.4707 19.2383H78.6582V15.2305H95.498ZM77.041 33.9336C78.7637 33.916 80.6445 33.916 82.6309 33.8633V24.4766H87.5879V33.7051C90.6289 33.582 93.7051 33.3535 96.5527 32.9844L96.8691 36.7461C90.2773 37.8711 83.0703 37.9766 77.4629 37.9414L77.041 33.9336ZM97.8887 44.375V12.1016H103.021V24.8984H107.135V29.1172H103.021V44.375H97.8887ZM119.801 18.957C119.801 25.1094 121.822 31.0156 127.395 33.3711L124.336 37.4141C120.82 35.7441 118.553 32.7559 117.234 29.0117C115.881 33.002 113.525 36.2363 109.887 38.0117L106.723 33.8633C112.506 31.3145 114.633 25.0742 114.668 18.957V14.4922H119.801V18.957ZM123.774 26.0586V21.9805H129.68V12.1016H134.672V44.4453H129.68V26.0586H123.774Z" fill="#B2B2B2"/>
</svg>
