<svg width="184" height="56" viewBox="0 0 184 56" fill="none" xmlns="http://www.w3.org/2000/svg">
<g clip-path="url(#clip0_1132_273)">
<path d="M13.3097 22.4374H5.99219C5.99219 22.4374 14.1836 32.6148 14.3791 32.8632C14.1836 33.1078 5.99219 43.3005 5.99219 43.3005H13.4132L21.6966 32.8594L13.4055 22.4336H13.3058L13.3097 22.4374Z" fill="#B2B2B2"/>
<path d="M42.0685 22.4375L33.7812 32.8633L42.0647 43.3044H49.4856C49.4856 43.3044 41.2942 33.1079 41.1026 32.8633C41.2942 32.6149 49.4856 22.4375 49.4856 22.4375H42.0685Z" fill="#B2B2B2"/>
<path d="M26.9297 12V43.3004H33.2429V12H26.9297Z" fill="#B2B2B2"/>
<path d="M157.06 21.9531C154.775 21.9531 152.425 23.1837 151.022 25.3851C149.857 23.3099 148.033 21.9531 145.004 21.9531C143.329 21.9531 140.753 22.7557 139.163 25.0067V22.4347H133.562V43.3016H139.535V32.5356C139.535 28.3317 140.945 26.7915 143.111 26.7915C145.595 26.7915 145.802 29.2374 145.802 31.198V43.3016H151.77V32.5356C151.77 28.3317 153.181 26.7915 155.354 26.7915C157.834 26.7915 158.037 29.2374 158.037 31.198V43.3016H164.005V29.9559C164.005 24.422 161.311 21.9569 157.056 21.9569L157.06 21.9531Z" fill="#B2B2B2"/>
<path d="M71.2786 32.8791C71.2786 39.0207 66.1575 44.0005 59.8405 44.0005C53.5235 44.0005 48.4062 39.0207 48.4062 32.8791C48.4062 26.7375 53.5273 21.7539 59.8405 21.7539C66.1537 21.7539 71.2786 26.7337 71.2786 32.8791ZM59.8405 26.6993C56.6628 26.6993 54.0793 29.4624 54.0793 32.8791C54.0793 36.2958 56.659 39.0589 59.8405 39.0589C63.022 39.0589 65.6017 36.2919 65.6017 32.8791C65.6017 29.4663 63.022 26.6993 59.8405 26.6993Z" fill="#B2B2B2"/>
<path d="M89.5367 24.2423C88.1951 23.2448 85.1784 21.7734 81.6787 21.7734C79.0262 21.7734 76.5155 22.5989 74.9592 24.0818C73.748 25.2398 73.104 26.7609 73.104 28.4768C73.104 32.9216 76.4657 33.8655 79.1642 34.6337C81.1651 35.1955 82.9015 35.6427 82.9015 37.2058C82.9015 37.8593 82.6638 38.3905 82.2 38.7803C81.4526 39.4148 80.3026 39.5447 79.4785 39.4683C77.7459 39.2848 75.9635 38.5128 74.5299 37.2937L74.2808 37.0835L72.207 41.3027L72.3757 41.4288C74.2424 42.8582 77.2285 43.8671 79.8005 43.9474C82.7137 44.0353 85.3777 43.2021 87.0451 41.6467C88.3637 40.4199 89.0345 38.83 89.0345 36.923C89.0345 32.2948 85.3815 31.24 82.4799 30.3915C80.6438 29.8603 79.1987 29.4361 79.1987 28.2781C79.1987 27.7163 79.398 27.25 79.7928 26.8946C80.3486 26.3978 81.2762 26.1379 82.2882 26.1991C84.1473 26.3137 86.1558 27.2959 87.2866 28.1061L89.5252 24.2385L89.5367 24.2423Z" fill="#B2B2B2"/>
<path d="M119.03 21.7538C112.717 21.7538 107.599 26.7336 107.599 32.879C107.599 33.3415 107.626 33.8001 107.684 34.2434C107.699 34.358 107.71 34.4727 107.73 34.5873C107.837 35.2027 107.641 35.7186 107.454 36.0817C107.415 36.1543 107.377 36.2192 107.339 36.2842C106.307 37.9543 104.537 39.055 102.532 39.055C99.3503 39.055 96.7668 36.288 96.7668 32.8752C96.7668 29.4623 99.3465 26.6954 102.532 26.6954C103.398 26.6954 104.222 26.9056 104.958 27.2801L107.553 22.8927C106.035 22.1666 104.333 21.75 102.532 21.75C96.211 21.75 91.0938 26.7298 91.0938 32.8752C91.0938 39.0206 96.211 43.9966 102.532 43.9966C105.771 43.9966 108.699 42.6781 110.785 40.5684C112.862 42.6819 115.795 43.9966 119.034 43.9966C125.354 43.9966 130.468 39.0168 130.468 32.8752C130.468 26.7336 125.354 21.75 119.034 21.75L119.03 21.7538ZM119.03 39.0588C115.848 39.0588 113.268 36.2919 113.268 32.879C113.268 29.4662 115.844 26.6992 119.03 26.6992C122.215 26.6992 124.791 29.4623 124.791 32.879C124.791 36.2957 122.211 39.0588 119.03 39.0588Z" fill="#B2B2B2"/>
</g>
<defs>
<clipPath id="clip0_1132_273">
<rect width="158.018" height="32.0036" fill="white" transform="translate(5.99219 12)"/>
</clipPath>
</defs>
</svg>
