<svg width="184" height="56" viewBox="0 0 184 56" fill="none" xmlns="http://www.w3.org/2000/svg">
<g clip-path="url(#clip0_1132_252)">
<path fill-rule="evenodd" clip-rule="evenodd" d="M39.7635 21.7283V16.3086H23.7969V40.2381H39.7635V34.8099H30.1628V30.7388H38.4179V25.7911H30.1715V21.7283H39.7635Z" fill="#B2B2B2"/>
<path fill-rule="evenodd" clip-rule="evenodd" d="M67.058 40.0769C68.1104 40.237 71.2416 40.9029 75.27 40.5658C78.8066 40.2708 83.2576 38.231 83.3352 32.7859C83.3697 30.4427 82.6279 27.7118 79.1516 26.38L73.9243 24.5509C73.355 24.3234 72.8978 23.8345 72.8806 23.3793C72.8461 22.4859 73.5879 21.6514 75.2355 21.4576C76.7105 21.2806 79.0223 21.5081 81.8774 22.1572L81.8429 16.5857C80.8596 16.3244 78.4874 15.7259 75.2958 15.6332C71.0777 15.5068 66.851 18.1619 66.5836 23.3288C66.4542 25.8911 67.6532 28.7569 70.7499 29.8527L75.5719 31.5553C76.7709 32.0611 76.8054 32.5584 76.8399 32.9545C76.8916 33.6794 76.1757 34.2273 75.2268 34.5897C73.9761 35.0702 70.2755 35.1039 67.0839 34.1598L67.058 40.0853V40.0769Z" fill="#B2B2B2"/>
<path fill-rule="evenodd" clip-rule="evenodd" d="M44.5508 16.3086V40.255H54.0911C61.9666 40.255 63.2605 35.5517 63.2605 33.6552C63.2605 30.8399 62.0442 29.1794 60.0861 28.286C61.7682 27.3925 62.9327 25.7068 62.9327 23.0938C62.9327 20.8433 61.4749 16.3086 54.0307 16.3086H44.5508ZM50.934 30.4944C53.7633 30.0223 56.8428 30.7641 56.8428 32.7196C56.8428 34.6751 53.7547 35.4168 50.934 34.9448V30.5028V30.4944ZM50.934 21.6693C53.7633 21.1973 56.8428 21.9391 56.8428 23.8946C56.8428 25.8501 53.7547 26.5918 50.934 26.1198V21.6778V21.6693Z" fill="#B2B2B2"/>
<path d="M93.125 28.4981C93.125 16.6218 102.976 6.99609 115.13 6.99609C127.284 6.99609 137.135 16.6218 137.135 28.4981C137.135 40.3743 127.284 50.0001 115.13 50.0001C102.976 50.0001 93.125 40.3743 93.125 28.4981Z" fill="#B2B2B2"/>
<path d="M141.707 28.5012C141.707 23.2416 146.072 18.9766 151.454 18.9766C156.837 18.9766 161.21 23.2416 161.21 28.5012C161.21 33.7608 156.846 38.0258 151.454 38.0258C146.063 38.0258 141.707 33.7608 141.707 28.5012Z" fill="#B2B2B2"/>
<path d="M117.633 28.5324C117.633 23.2728 121.998 19.0078 127.38 19.0078C132.763 19.0078 137.128 23.2728 137.128 28.5324C137.128 33.792 132.763 38.057 127.38 38.057C121.998 38.057 117.633 33.792 117.633 28.5324Z" fill="#CECECE"/>
<path d="M105.41 28.5519C105.41 23.2923 109.775 19.0273 115.158 19.0273C120.54 19.0273 124.905 23.2923 124.905 28.5519C124.905 33.8115 120.54 38.0765 115.158 38.0765C109.775 38.0765 105.41 33.8115 105.41 28.5519Z" fill="#CECECE"/>
<path d="M117.622 28.5424C117.622 31.5515 119.045 34.2234 121.271 35.9766C123.488 34.2319 124.902 31.5599 124.902 28.5592C124.902 25.5586 123.479 22.8698 121.245 21.125C119.037 22.8698 117.613 25.5417 117.613 28.5424H117.622Z" fill="white"/>
</g>
<defs>
<clipPath id="clip0_1132_252">
<rect width="137.403" height="43.004" fill="white" transform="translate(23.7969 6.99609)"/>
</clipPath>
</defs>
</svg>
