<svg width="32" height="32" viewBox="0 0 32 32" fill="none" xmlns="http://www.w3.org/2000/svg">
<g clip-path="url(#clip0_1165_2287)">
<path d="M3.81408 3.76224C5.24645 2.33012 7.28833 1.96571 10.1691 3.08759C13.0906 4.22551 16.6959 6.84567 20.8951 11.0957C25.0995 15.351 27.7238 18.9597 28.8756 21.8743C29.4479 23.3224 29.6358 24.5489 29.5171 25.5721C29.4006 26.5762 28.9831 27.44 28.2376 28.1857C27.4894 28.9339 26.6229 29.359 25.6177 29.4826C24.5947 29.6083 23.3696 29.4282 21.924 28.8631C19.0141 27.7256 15.4076 25.1047 11.1517 20.8488C6.89551 16.5926 4.27428 12.9857 3.13667 10.0758C2.57158 8.6303 2.39225 7.40579 2.51795 6.38282C2.64149 5.37754 3.06571 4.51061 3.81408 3.76224Z" stroke="black" stroke-width="2"/>
<path d="M28.2387 3.76224C26.8063 2.33012 24.7644 1.96571 21.8837 3.08759C18.9621 4.22551 15.3568 6.84567 11.1576 11.0957C6.95326 15.351 4.32895 18.9597 3.1771 21.8743C2.60485 23.3224 2.41692 24.5489 2.5356 25.5721C2.65212 26.5762 3.06959 27.44 3.81516 28.1857C4.56335 28.9339 5.42982 29.359 6.43504 29.4826C7.45804 29.6083 8.68313 29.4282 10.1287 28.8631C13.0386 27.7256 16.6451 25.1047 20.901 20.8488C25.1572 16.5926 27.7785 12.9857 28.9161 10.0758C29.4812 8.6303 29.6605 7.40579 29.5348 6.38282C29.4112 5.37754 28.987 4.51061 28.2387 3.76224Z" stroke="black" stroke-width="2"/>
<circle cx="16" cy="16" r="2.5" fill="black"/>
</g>
<defs>
<clipPath id="clip0_1165_2287">
<rect width="32" height="32" fill="white"/>
</clipPath>
</defs>
</svg>
