<svg width="32" height="32" viewBox="0 0 32 32" fill="none" xmlns="http://www.w3.org/2000/svg">
<path d="M12.1429 4H5.35714C4.60761 4 4 4.59695 4 5.33333V14.6667C4 15.403 4.60761 16 5.35714 16H12.1429C12.8924 16 13.5 15.403 13.5 14.6667V5.33333C13.5 4.59695 12.8924 4 12.1429 4Z" stroke="black" stroke-width="2" stroke-linecap="round" stroke-linejoin="round"/>
<path d="M26.6429 4H19.8571C19.1076 4 18.5 4.6268 18.5 5.4V9.6C18.5 10.3732 19.1076 11 19.8571 11H26.6429C27.3924 11 28 10.3732 28 9.6V5.4C28 4.6268 27.3924 4 26.6429 4Z" stroke="black" stroke-width="2" stroke-linecap="round" stroke-linejoin="round"/>
<path d="M26.6429 16H19.8571C19.1076 16 18.5 16.597 18.5 17.3333V26.6667C18.5 27.403 19.1076 28 19.8571 28H26.6429C27.3924 28 28 27.403 28 26.6667V17.3333C28 16.597 27.3924 16 26.6429 16Z" stroke="black" stroke-width="2" stroke-linecap="round" stroke-linejoin="round"/>
<path d="M12.1429 21H5.35714C4.60761 21 4 21.6268 4 22.4V26.6C4 27.3732 4.60761 28 5.35714 28H12.1429C12.8924 28 13.5 27.3732 13.5 26.6V22.4C13.5 21.6268 12.8924 21 12.1429 21Z" stroke="black" stroke-width="2" stroke-linecap="round" stroke-linejoin="round"/>
</svg>
