<svg width="32" height="32" viewBox="0 0 32 32" fill="none" xmlns="http://www.w3.org/2000/svg">
<path d="M26.6654 17.3333C26.6654 23.9999 21.9987 27.3333 16.452 29.2666C16.1616 29.365 15.8461 29.3603 15.5587 29.2533C9.9987 27.3333 5.33203 23.9999 5.33203 17.3333V7.99995C5.33203 7.64633 5.47251 7.30719 5.72256 7.05714C5.9726 6.80709 6.31174 6.66662 6.66536 6.66662C9.33203 6.66662 12.6654 5.06662 14.9854 3.03995C15.2678 2.79861 15.6272 2.66602 15.9987 2.66602C16.3702 2.66602 16.7296 2.79861 17.012 3.03995C19.3454 5.07995 22.6654 6.66662 25.332 6.66662C25.6857 6.66662 26.0248 6.80709 26.2748 7.05714C26.5249 7.30719 26.6654 7.64633 26.6654 7.99995V17.3333Z" stroke="#333333" stroke-width="2" stroke-linecap="round" stroke-linejoin="round"/>
<path d="M20.8016 13.1992L15.2016 19.5992L11.6016 15.9992" stroke="#333333" stroke-width="2" stroke-linecap="round" stroke-linejoin="round"/>
</svg>
