<svg width="32" height="32" viewBox="0 0 32 32" fill="none" xmlns="http://www.w3.org/2000/svg">
<g clip-path="url(#clip0_1139_192)">
<path d="M3.81408 3.76419C5.24645 2.33208 7.28833 1.96766 10.1691 3.08954C13.0906 4.22746 16.6959 6.84763 20.8951 11.0977C25.0995 15.3529 27.7238 18.9616 28.8756 21.8762C29.4479 23.3244 29.6358 24.5509 29.5171 25.574C29.4006 26.5782 28.9831 27.442 28.2376 28.1877C27.4894 28.9359 26.6229 29.361 25.6177 29.4845C24.5947 29.6102 23.3696 29.4302 21.924 28.8651C19.0141 27.7275 15.4076 25.1067 11.1517 20.8508C6.89551 16.5946 4.27428 12.9877 3.13667 10.0777C2.57158 8.63226 2.39225 7.40774 2.51795 6.38477C2.64149 5.3795 3.06571 4.51257 3.81408 3.76419Z" stroke="#C5C5C5" stroke-width="2"/>
<path d="M28.2367 3.76224C26.8043 2.33012 24.7625 1.96571 21.8817 3.08759C18.9601 4.22551 15.3549 6.84567 11.1557 11.0957C6.9513 15.351 4.327 18.9597 3.17515 21.8743C2.6029 23.3224 2.41497 24.5489 2.53364 25.5721C2.65017 26.5762 3.06764 27.44 3.8132 28.1857C4.5614 28.9339 5.42787 29.359 6.43309 29.4826C7.45608 29.6083 8.68117 29.4282 10.1268 28.8631C13.0366 27.7256 16.6431 25.1047 20.8991 20.8488C25.1553 16.5926 27.7765 12.9857 28.9141 10.0758C29.4792 8.6303 29.6585 7.40579 29.5328 6.38282C29.4093 5.37754 28.9851 4.51061 28.2367 3.76224Z" stroke="#C5C5C5" stroke-width="2"/>
<circle cx="16" cy="16" r="2.5" fill="#C5C5C5"/>
</g>
<defs>
<clipPath id="clip0_1139_192">
<rect width="32" height="32" fill="white"/>
</clipPath>
</defs>
</svg>
