<svg width="32" height="32" viewBox="0 0 32 32" fill="none" xmlns="http://www.w3.org/2000/svg">
<path d="M20.9164 20.0013C20.175 23.5078 18.4734 26.7392 16.0017 29.3346C12.578 25.7398 10.6684 20.9656 10.6684 16.0013C10.6684 11.037 12.578 6.26284 16.0017 2.66797C13.5376 2.66861 11.1218 3.35212 9.02253 4.64261C6.92329 5.9331 5.22274 7.7801 4.10966 9.97855C2.99657 12.177 2.5145 14.6409 2.71696 17.0968C2.91942 19.5526 3.79848 21.9043 5.25657 23.8908C6.71465 25.8773 8.69471 27.4209 10.9769 28.3502C13.2592 29.2795 15.7543 29.5581 18.1853 29.1552C20.6163 28.7523 22.8881 27.6836 24.7485 26.0677C26.6089 24.4518 27.9852 22.352 28.7244 20.0013" stroke="#333333" stroke-width="2" stroke-linecap="round" stroke-linejoin="round"/>
<path d="M2.66797 16H14.0013" stroke="#333333" stroke-width="2" stroke-linecap="round" stroke-linejoin="round"/>
<path d="M26.6654 8.0013V5.33464C26.6654 4.62739 26.3844 3.94911 25.8843 3.44902C25.3842 2.94892 24.7059 2.66797 23.9987 2.66797C23.2915 2.66797 22.6132 2.94892 22.1131 3.44902C21.613 3.94911 21.332 4.62739 21.332 5.33464V8.0013" stroke="#333333" stroke-width="2" stroke-linecap="round" stroke-linejoin="round"/>
<path d="M28.0013 8H20.0013C19.2649 8 18.668 8.59695 18.668 9.33333V13.3333C18.668 14.0697 19.2649 14.6667 20.0013 14.6667H28.0013C28.7377 14.6667 29.3346 14.0697 29.3346 13.3333V9.33333C29.3346 8.59695 28.7377 8 28.0013 8Z" stroke="#333333" stroke-width="2" stroke-linecap="round" stroke-linejoin="round"/>
</svg>
