<svg width="32" height="32" viewBox="0 0 32 32" fill="none" xmlns="http://www.w3.org/2000/svg">
<g clip-path="url(#clip0_1139_301)">
<path d="M23.9987 5.33203H7.9987C6.52594 5.33203 5.33203 6.52594 5.33203 7.9987V23.9987C5.33203 25.4715 6.52594 26.6654 7.9987 26.6654H23.9987C25.4715 26.6654 26.6654 25.4715 26.6654 23.9987V7.9987C26.6654 6.52594 25.4715 5.33203 23.9987 5.33203Z" stroke="#333333" stroke-width="2" stroke-linecap="round" stroke-linejoin="round"/>
<path d="M20 12H12V20H20V12Z" stroke="#333333" stroke-width="2" stroke-linecap="round" stroke-linejoin="round"/>
<path d="M12 1.33203V5.33203" stroke="#333333" stroke-width="2" stroke-linecap="round" stroke-linejoin="round"/>
<path d="M20 1.33203V5.33203" stroke="#333333" stroke-width="2" stroke-linecap="round" stroke-linejoin="round"/>
<path d="M12 26.668V30.668" stroke="#333333" stroke-width="2" stroke-linecap="round" stroke-linejoin="round"/>
<path d="M20 26.668V30.668" stroke="#333333" stroke-width="2" stroke-linecap="round" stroke-linejoin="round"/>
<path d="M26.668 12H30.668" stroke="#333333" stroke-width="2" stroke-linecap="round" stroke-linejoin="round"/>
<path d="M26.668 18.668H30.668" stroke="#333333" stroke-width="2" stroke-linecap="round" stroke-linejoin="round"/>
<path d="M1.33203 12H5.33203" stroke="#333333" stroke-width="2" stroke-linecap="round" stroke-linejoin="round"/>
<path d="M1.33203 18.668H5.33203" stroke="#333333" stroke-width="2" stroke-linecap="round" stroke-linejoin="round"/>
</g>
<defs>
<clipPath id="clip0_1139_301">
<rect width="32" height="32" fill="white"/>
</clipPath>
</defs>
</svg>
