<svg width="891" height="72" viewBox="0 0 891 72" fill="none" xmlns="http://www.w3.org/2000/svg">
<path d="M594.5 71L594.5 29C594.5 25.6863 591.814 23 588.5 23L305.5 23C302.186 23 299.5 25.6863 299.5 29L299.5 68.5" stroke="#707070" stroke-width="1.5" stroke-linecap="round" stroke-linejoin="round" stroke-dasharray="0.1 4"/>
<path d="M299.148 71.491C299.306 71.7316 299.658 71.7316 299.816 71.491L302.524 67.3696C302.698 67.1036 302.507 66.75 302.189 66.75L296.775 66.75C296.457 66.75 296.266 67.1036 296.44 67.3696L299.148 71.491Z" fill="#707070"/>
<path d="M889.5 71L889.5 7.00004C889.5 3.68633 886.814 1.00004 883.5 1.00004L10.5 1C7.1863 1 4.5 3.68629 4.5 7L4.50001 67.3541" stroke="#707070" stroke-width="1.5" stroke-linecap="round" stroke-linejoin="round" stroke-dasharray="0.1 4"/>
<path d="M4.14768 71.491C4.30567 71.7316 4.65834 71.7316 4.81633 71.491L7.52352 67.3696C7.69824 67.1036 7.50744 66.75 7.1892 66.75L1.77481 66.75C1.45656 66.75 1.26576 67.1036 1.44048 67.3696L4.14768 71.491Z" fill="#707070"/>
</svg>
