<svg width="891" height="67" viewBox="0 0 891 67" fill="none" xmlns="http://www.w3.org/2000/svg">
<path d="M594.5 1L594.5 27C594.5 30.3137 591.814 33 588.5 33L305.5 33C302.186 33 299.5 30.3137 299.5 27L299.5 2.66668" stroke="#707070" stroke-width="1.5" stroke-linecap="round" stroke-linejoin="round" stroke-dasharray="0.1 4"/>
<path d="M299.148 0.508976C299.306 0.268449 299.658 0.268449 299.816 0.508975L302.524 4.63039C302.698 4.89639 302.507 5.25 302.189 5.25L296.775 5.25C296.457 5.25 296.266 4.89639 296.44 4.63039L299.148 0.508976Z" fill="#707070"/>
<path d="M889.5 0.956499L889.5 60C889.5 63.3137 886.814 66 883.5 66L10.5 66C7.1863 66 4.5 63.3137 4.5 60L4.50001 2.53081" stroke="#707070" stroke-width="1.5" stroke-linecap="round" stroke-linejoin="round" stroke-dasharray="0.1 4"/>
<path d="M4.15227 0.480164C4.31118 0.248746 4.65282 0.248746 4.81174 0.480165L7.50033 4.3953C7.6826 4.66072 7.49257 5.02174 7.1706 5.02174L1.79341 5.02174C1.47143 5.02174 1.2814 4.66072 1.46367 4.3953L4.15227 0.480164Z" fill="#707070"/>
</svg>
