<svg width="893" height="68" viewBox="0 0 893 68" fill="none" xmlns="http://www.w3.org/2000/svg">
<path d="M600.031 2L600.031 28C600.031 31.3137 597.345 34 594.031 34L311.031 34C307.718 34 305.031 31.3137 305.031 28L305.031 3.66668" stroke="black" stroke-width="1.5" stroke-linecap="round" stroke-linejoin="round" stroke-dasharray="0.1 4"/>
<path d="M305.685 1.57476C305.371 1.07656 304.645 1.07656 304.331 1.57476L300.584 7.52365C300.249 8.05638 300.631 8.75 301.261 8.75L308.755 8.75C309.384 8.75 309.767 8.05638 309.432 7.52365L305.685 1.57476Z" fill="black"/>
<path d="M891.262 1.9565L891.262 61C891.262 64.3137 888.575 67 885.262 67L12.2617 67C8.94802 67 6.26172 64.3137 6.26172 61L6.26173 3.53081" stroke="black" stroke-width="1.5" stroke-linecap="round" stroke-linejoin="round" stroke-dasharray="0.1 4"/>
<path d="M7.4113 1.07476C7.09751 0.57656 6.37124 0.57656 6.05745 1.07476L2.31062 7.02365C1.97509 7.55638 2.35795 8.25 2.98754 8.25L10.4812 8.25C11.1108 8.25 11.4937 7.55638 11.1581 7.02365L7.4113 1.07476Z" fill="black"/>
</svg>
