<svg width="51" height="43" viewBox="0 0 51 43" fill="none" xmlns="http://www.w3.org/2000/svg">
<g clip-path="url(#clip0_2004_9)">
<path d="M13.4037 21.4034L23.0659 9.51015H17.7964C15.4351 9.51015 13.8117 10.2307 12.3707 11.9148L7.2835 18.174V0.976562H2.17897C0.972291 0.976562 0 1.94885 0 3.15554V35.2325H5.10453C6.30253 35.2325 7.2835 34.2602 7.2835 33.0535V24.5199L11.4157 29.5984L14.9316 33.9303C15.6435 34.8158 16.581 35.2325 17.536 35.2325H24.6632L20.0535 29.581L13.4037 21.4034ZM35.7404 29.1817C34.6726 29.1817 33.7871 28.3049 33.7871 27.2284V0.976562H28.6826C27.4846 0.976562 26.5036 1.94885 26.5036 3.15554V28.6C26.5036 32.5326 29.2208 35.2411 33.1534 35.2411H38.7614C39.9594 35.2411 40.9404 34.2688 40.9404 33.0622V29.1817H35.7404Z" fill="white"/>
<path d="M7.97656 17.2976V17.2802C7.97656 17.2802 7.97656 17.2802 7.97656 17.2889V17.2976ZM41.9894 12.4448V7.60938L41.538 8.08684C41.5206 8.08684 40.1577 9.49319 36.2251 9.49319H17.6648C14.7305 9.49319 13.3502 10.6912 12.2998 11.976L11.7268 12.6792C11.7268 12.6792 11.6921 12.7226 11.6747 12.7399L7.99393 17.2802C9.33951 16.2645 11.1712 15.6568 13.0464 15.6568H36.2338C39.0465 15.6568 41.755 14.8321 41.972 12.7226C42.0068 12.549 41.9981 12.4361 41.9981 12.4361L41.9894 12.4448Z" fill="#FF0000"/>
<path d="M46.7684 42.394H44.0078C44.0078 42.394 45.1798 39.9545 45.1798 36.6297V33.3569C45.1798 32.6797 45.7267 32.1328 46.4038 32.1328H48.5481C49.2252 32.1328 49.7721 32.6797 49.7721 33.3569V34.8066C49.7721 39.3903 46.7684 42.4026 46.7684 42.4026V42.394Z" fill="white"/>
</g>
<defs>
<clipPath id="clip0_2004_9">
<rect width="50.6045" height="42.9038" fill="white"/>
</clipPath>
</defs>
</svg>
