<svg width="430" height="390" viewBox="0 0 430 390" fill="none" xmlns="http://www.w3.org/2000/svg">
<rect y="0.549374" width="250.064" height="250.064" transform="matrix(0.852368 0.522942 -0.852368 0.522942 215.464 0.992552)" fill="url(#paint0_linear_1102_276)" stroke="white" stroke-width="1.05054"/>
<mask id="path-2-inside-1_1102_276" fill="white">
<path d="M0.951111 132.049L214.993 263.367V389.432L0.951111 258.114V132.049Z"/>
</mask>
<path d="M0.951111 132.049L214.993 263.367V389.432L0.951111 258.114V132.049Z" fill="url(#paint1_linear_1102_276)"/>
<path d="M0.951111 132.049V131.402L-0.151538 130.725V131.372L0.951111 132.049ZM214.993 263.367L215.544 263.705V263.058L214.993 262.72V263.367ZM214.993 389.432V390.726L215.544 391.064V389.77L214.993 389.432ZM0.951111 258.114L-0.151538 257.438V258.731L0.951111 259.408V258.114ZM0.951111 132.049V132.696L214.993 264.014V263.367V262.72L0.951111 131.402V132.049ZM214.993 263.367L214.441 263.029V389.094L214.993 389.432L215.544 389.77V263.705L214.993 263.367ZM214.993 389.432V388.138L0.951111 256.82V258.114V259.408L214.993 390.726V389.432ZM0.951111 258.114L2.05376 258.791V132.725L0.951111 132.049L-0.151538 131.372V257.438L0.951111 258.114Z" fill="white" mask="url(#path-2-inside-1_1102_276)"/>
<mask id="path-4-inside-2_1102_276" fill="white">
<path d="M214.995 263.366L429.037 132.048V258.114L214.995 389.432V263.366Z"/>
</mask>
<path d="M214.995 263.366L429.037 132.048V258.114L214.995 389.432V263.366Z" fill="url(#paint2_linear_1102_276)"/>
<path d="M214.995 263.366V262.72L214.444 263.058V263.705L214.995 263.366ZM429.037 132.048L430.14 131.372V130.725L429.037 131.401V132.048ZM429.037 258.114V258.76L430.14 258.084V257.437L429.037 258.114ZM214.995 389.432L214.444 389.77V390.417L214.995 390.078V389.432ZM214.995 263.366V264.013L429.037 132.695V132.048V131.401L214.995 262.72V263.366ZM429.037 132.048L427.934 132.725V258.79L429.037 258.114L430.14 257.437V131.372L429.037 132.048ZM429.037 258.114V257.467L214.995 388.785V389.432V390.078L429.037 258.76V258.114ZM214.995 389.432L215.547 389.093V263.028L214.995 263.366L214.444 263.705V389.77L214.995 389.432Z" fill="white" mask="url(#path-4-inside-2_1102_276)"/>
<path d="M245.449 324.514V293.318L250.3 290.517V304.866L250.673 304.65L261.233 284.205L267.167 280.779L256.718 300.815L267.279 311.911L261.42 315.293L253.322 306.568L250.3 312.406V321.714L245.449 324.514ZM286.423 301.332C280.527 304.736 276.721 302.107 276.721 294.868C276.721 287.586 280.527 280.563 286.423 277.159C292.356 273.733 296.125 276.383 296.125 283.665C296.125 290.904 292.356 297.906 286.423 301.332ZM286.46 296.915C289.707 295.041 291.311 290.71 291.311 286.401C291.311 282.136 289.707 279.615 286.46 281.489C283.139 283.407 281.535 287.78 281.535 292.046C281.535 296.355 283.139 298.833 286.46 296.915ZM303.832 277.105V290.807L299.055 293.565V270.167L303.608 267.539V271.503L303.869 271.352C304.802 268.185 306.854 265.363 309.877 263.618C314.094 261.183 316.855 262.778 316.818 268.401V283.309L312.079 286.046V271.999C312.079 268.853 310.623 267.841 308.123 269.284C305.586 270.749 303.832 273.701 303.832 277.105ZM338.313 270.899L329.133 276.199V245.003L338.462 239.617C346.523 234.963 351.411 238.001 351.411 247.696C351.411 257.434 346.523 266.159 338.313 270.899ZM333.984 268.529L338.052 266.181C343.687 262.928 346.56 257.692 346.56 250.496C346.56 243.344 343.687 241.469 338.201 244.636L333.984 247.071V268.529ZM353.781 255.376C353.781 250.119 357.55 246.392 361.319 243.957C362.719 243.042 365.629 241.167 366.506 240.618V238.765C366.506 236.438 365.2 235.857 362.849 237.214C360.722 238.442 359.416 240.316 359.043 242.212L354.453 244.862C354.789 240.704 357.886 235.9 362.961 232.97C366.805 230.751 371.245 229.997 371.245 236.244V251.886L366.693 254.514V251.282L366.543 251.369C365.648 253.868 363.745 256.69 360.573 258.521C356.692 260.762 353.781 259.986 353.781 255.376ZM358.371 252.683C358.371 254.708 359.789 254.923 361.804 253.76C364.678 252.101 366.543 248.826 366.543 246.198V244.259L362.065 247.189C359.789 248.719 358.371 250.615 358.371 252.683ZM385.072 220.506V224.729L381.079 227.034V239.185C381.079 241.425 382.049 241.339 383.243 240.65C383.803 240.327 384.736 239.745 385.333 239.357V243.838C384.773 244.291 383.84 244.916 382.646 245.605C379.064 247.673 376.302 247.242 376.34 242.826V229.77L373.429 231.45V227.228L376.34 225.547V219.946L381.079 217.21V222.811L385.072 220.506ZM387.031 236.179C387.031 230.922 390.8 227.195 394.569 224.76C395.969 223.845 398.879 221.97 399.756 221.421V219.568C399.756 217.241 398.45 216.66 396.099 218.017C393.972 219.245 392.666 221.119 392.293 223.015L387.703 225.665C388.039 221.507 391.136 216.703 396.211 213.773C400.055 211.554 404.495 210.8 404.495 217.048V232.689L399.943 235.317V232.085L399.793 232.172C398.898 234.671 396.995 237.493 393.823 239.324C389.942 241.565 387.031 240.789 387.031 236.179ZM391.621 233.486C391.621 235.511 393.039 235.726 395.054 234.563C397.928 232.904 399.793 229.629 399.793 227.001V225.062L395.315 227.992C393.039 229.522 391.621 231.418 391.621 233.486Z" fill="black"/>
<defs>
<linearGradient id="paint0_linear_1102_276" x1="-6.96642" y1="197.752" x2="-7.0542" y2="-161.535" gradientUnits="userSpaceOnUse">
<stop stop-color="white"/>
<stop offset="1" stop-color="#E8E8E8"/>
</linearGradient>
<linearGradient id="paint1_linear_1102_276" x1="215" y1="325.5" x2="28.6327" y2="148.23" gradientUnits="userSpaceOnUse">
<stop stop-color="#D8D8DA"/>
<stop offset="1" stop-color="#E9E9E9"/>
</linearGradient>
<linearGradient id="paint2_linear_1102_276" x1="215" y1="369.499" x2="356.275" y2="349.939" gradientUnits="userSpaceOnUse">
<stop stop-color="#D8D8DA"/>
<stop offset="1" stop-color="#C0C0C0"/>
</linearGradient>
</defs>
</svg>
