<svg width="834" height="507" viewBox="0 0 834 507" fill="none" xmlns="http://www.w3.org/2000/svg">
<rect width="487.254" height="487.254" transform="matrix(0.855103 0.518458 -0.855103 0.518458 417.112 0.476929)" fill="black"/>
<rect width="487.254" height="1.01048" transform="matrix(0.855103 0.518458 0 1 0.460022 253.098)" fill="black"/>
<rect width="487.254" height="1.01048" transform="matrix(0.855103 -0.518458 0 1 417.112 505.718)" fill="black"/>
<path d="M421.199 477.546L389.036 458.977L395.699 455.13L409.959 463.363L410.404 463.106L407.827 448.128L415.868 443.485L418.267 458.72L448.164 461.978L440.167 466.594L417.956 464.081L418.666 468.39L427.862 473.699L421.199 477.546ZM471.221 449.23C463.936 453.436 454.385 453.154 446.922 448.845C439.458 444.536 439.014 439.047 446.3 434.841C453.585 430.635 463.136 430.866 470.6 435.174C478.063 439.483 478.507 445.023 471.221 449.23ZM466.157 446.254C469.533 444.305 468.112 441.484 463.892 439.047C459.627 436.585 454.74 435.764 451.364 437.714C447.943 439.689 449.321 442.535 453.585 444.998C457.805 447.434 462.737 448.229 466.157 446.254ZM478.441 428.39L492.39 436.444L485.816 440.239L461.693 426.313L467.957 422.696L472.177 425.133L472.444 424.979C470.756 422.722 471.6 420.234 475.154 418.182C480.174 415.284 486.926 415.335 492.524 418.618L507.894 427.492L501.364 431.263L487.148 423.055C484.172 421.337 480.751 421.26 478.041 422.824C475.287 424.415 475.243 426.543 478.441 428.39ZM516.292 396.124C513.493 394.816 509.939 395.123 506.696 396.996C503.32 398.945 503.009 400.92 505.097 402.177C507.363 403.536 510.872 402.741 514.249 401.51L517.847 400.253C524.599 397.791 531.529 397.021 536.905 400.125C542.813 403.536 541.925 408.358 534.106 412.872C526.332 417.36 517.758 418.155 510.695 414.283L517.18 410.538C520.646 412.282 524.866 411.743 528.42 409.692C531.929 407.665 532.551 405.408 530.152 404.023C527.975 402.767 524.955 403.331 520.557 404.844L516.203 406.383C509.451 408.743 503.409 409.102 498.7 406.383C492.836 402.997 494.125 397.791 501.144 393.738C508.251 389.635 516.914 389.199 522.689 392.43L516.292 396.124ZM549.544 403.446L517.381 384.877L529.998 377.592C537.328 373.361 545.99 373.54 552.343 377.208C558.784 380.927 558.917 385.928 551.499 390.211L545.724 393.546L556.208 399.599L549.544 403.446ZM540.348 390.442L545.057 387.723C549.011 385.441 548.7 383.056 545.457 381.183C542.259 379.337 538.172 379.183 534.218 381.465L529.509 384.184L540.348 390.442ZM577.51 363.088C573.423 361.344 568.492 361.677 564.76 363.832C559.74 366.73 560.318 370.859 567.07 374.758C574 378.759 581.019 378.964 585.95 376.117C589.637 373.988 590.304 371.244 587.505 368.859L594.302 364.986C599.499 368.859 599.944 374.86 591.77 379.58C583.152 384.555 570.757 384.735 560.273 378.682C549.789 372.629 550.234 365.396 558.718 360.498C566.137 356.214 575.999 355.445 584.262 359.189L577.51 363.088Z" fill="white"/>
</svg>
