<svg width="241" height="205" viewBox="0 0 241 205" fill="none" xmlns="http://www.w3.org/2000/svg">
<mask id="path-1-inside-1_321_1616" fill="white">
<path d="M185.93 0.658691L240.012 33.8388L54.588 147.599L0.506184 114.419L185.93 0.658691Z"/>
</mask>
<path d="M185.93 0.658691L240.012 33.8388L54.588 147.599L0.506184 114.419L185.93 0.658691Z" fill="white"/>
<path d="M185.93 0.658691L186.925 0.0482294L185.93 -0.562233L184.935 0.0482294L185.93 0.658691ZM240.012 33.8388L240.509 34.144L241.504 33.5336L241.007 33.2283L240.012 33.8388ZM54.588 147.599L54.0905 147.904L54.588 148.21L55.0856 147.904L54.588 147.599ZM0.506184 114.419L-0.488838 113.809L-0.986348 114.114L0.00867397 114.724L0.506184 114.419ZM185.93 0.658691L184.935 1.26915L239.017 34.4493L240.012 33.8388L241.007 33.2283L186.925 0.0482294L185.93 0.658691ZM240.012 33.8388L239.514 33.5336L54.0905 147.294L54.588 147.599L55.0856 147.904L240.509 34.144L240.012 33.8388ZM54.588 147.599L55.0855 147.294L1.00369 114.114L0.506184 114.419L0.00867397 114.724L54.0905 147.904L54.588 147.599ZM0.506184 114.419L1.50121 115.029L186.925 1.26915L185.93 0.658691L184.935 0.0482294L-0.488838 113.809L0.506184 114.419Z" fill="white" mask="url(#path-1-inside-1_321_1616)"/>
<mask id="path-3-inside-2_321_1616" fill="white">
<path d="M0.506226 114.419L54.5881 147.599V204.479L0.506226 171.299V114.419Z"/>
</mask>
<path d="M0.506226 114.419L54.5881 147.599V204.479L0.506226 171.299V114.419Z" fill="#D8D8DA"/>
<path d="M0.506226 114.419V113.836L-0.488796 113.225V113.809L0.506226 114.419ZM54.5881 147.599L55.0856 147.905V147.321L54.5881 147.016V147.599ZM54.5881 204.479V205.647L55.0856 205.952V204.785L54.5881 204.479ZM0.506226 171.299L-0.488796 170.689V171.856L0.506226 172.467V171.299ZM0.506226 114.419V115.003L54.5881 148.183V147.599V147.016L0.506226 113.836V114.419ZM54.5881 147.599L54.0906 147.294V204.174L54.5881 204.479L55.0856 204.785V147.905L54.5881 147.599ZM54.5881 204.479V203.312L0.506226 170.132V171.299V172.467L54.5881 205.647V204.479ZM0.506226 171.299L1.50125 171.91V115.03L0.506226 114.419L-0.488796 113.809V170.689L0.506226 171.299Z" fill="white" mask="url(#path-3-inside-2_321_1616)"/>
<mask id="path-5-inside-3_321_1616" fill="white">
<path d="M54.5876 147.599L240.011 33.8388V90.7189L54.5876 204.479V147.599Z"/>
</mask>
<path d="M54.5876 147.599L240.011 33.8388V90.7189L54.5876 204.479V147.599Z" fill="#BABABA"/>
<path d="M54.5876 147.599V147.015L54.0901 147.321V147.904L54.5876 147.599ZM240.011 33.8388L241.006 33.2283V32.6446L240.011 33.2551V33.8388ZM240.011 90.7189V91.3026L241.006 90.6922V90.1085L240.011 90.7189ZM54.5876 204.479L54.0901 204.785V205.368L54.5876 205.063V204.479ZM54.5876 147.599V148.183L240.011 34.4225V33.8388V33.2551L54.5876 147.015V147.599ZM240.011 33.8388L239.016 34.4492V91.3294L240.011 90.7189L241.006 90.1085V33.2283L240.011 33.8388ZM240.011 90.7189V90.1353L54.5876 203.896V204.479V205.063L240.011 91.3026V90.7189ZM54.5876 204.479L55.0852 204.174V147.294L54.5876 147.599L54.0901 147.904V204.785L54.5876 204.479Z" fill="white" mask="url(#path-5-inside-3_321_1616)"/>
<path d="M67.3817 114.09L49.3088 105.275L52.9525 103.255L60.9655 107.163L61.2084 107.029L59.584 99.5791L63.9807 97.142L65.51 104.722L82.1266 105.916L77.7541 108.34L65.4077 107.406L65.8582 109.55L71.0254 112.07L67.3817 114.09ZM94.7421 99.2096C90.7458 101.412 85.4477 101.422 81.2661 99.37C77.0727 97.3374 76.7542 94.5876 80.738 92.3793C84.7339 90.1644 90.0199 90.1607 94.2133 92.1933C98.3949 94.2454 98.7255 96.9885 94.7421 99.2096ZM84.9098 97.3503C87.2812 98.5069 90.0006 98.8334 91.8957 97.796C93.7172 96.7733 92.929 95.3764 90.5454 94.2265C88.1736 93.057 85.4171 92.7251 83.5831 93.7417C81.7005 94.7852 82.5258 96.1876 84.9098 97.3503ZM98.4717 88.6883L106.31 92.5113L102.715 94.5041L89.1601 87.893L92.5852 85.9944L94.9566 87.1511L95.1024 87.0703C94.1374 85.9794 94.5602 84.7176 96.5157 83.6336C99.2727 82.1054 103.005 82.0525 106.151 83.5994L114.788 87.812L111.217 89.7914L103.229 85.8953C101.544 85.0863 99.6711 85.0841 98.1772 85.9121C96.6833 86.7402 96.6869 87.8178 98.4717 88.6883ZM125.331 81.9677L121.396 84.149L109.42 71.9546L114.108 69.3559L138.254 74.8044L134.343 76.9723L128.85 75.6729L122.486 79.2007L125.331 81.9677ZM120.489 77.2645L125.007 74.76L115.894 72.6061L115.772 72.6734L120.489 77.2645ZM150.362 73.6853C146.719 75.705 142.787 76.1287 140.021 74.9952L143.568 73.0293C144.848 73.4512 146.331 73.1366 147.764 72.3422C149.428 71.4198 149.809 70.4413 147.937 69.5153L145.465 68.31L145.295 68.4042C145.92 69.2025 145.865 70.3906 143.727 71.5627C140.764 73.2182 136.212 73.4914 131.693 71.2877C127.113 69.0535 127.282 66.5796 130.197 64.9638C132.407 63.7385 134.824 63.8035 136.408 64.0699L136.554 63.9891L134.283 62.8812L137.853 60.9018L151.558 67.586C155.003 69.279 154.115 71.605 150.362 73.6853ZM135.436 69.2654C137.77 70.4166 140.239 70.5957 142.073 69.5919C143.858 68.5894 143.456 67.3299 141.047 66.155C138.638 64.9801 136.07 64.7779 134.26 65.7811C132.426 66.7977 133.089 68.1337 135.436 69.2654ZM159.954 63.0618C155.897 65.2976 150.736 65.3622 146.455 63.2613C142.261 61.2287 141.942 58.4533 145.805 56.3123C149.266 54.3936 154.246 53.9746 158.864 56.227L159.912 56.7383L150.9 61.7338C152.947 62.7321 155.386 62.6939 157.256 61.67C158.471 60.9839 158.796 60.2313 158.337 59.6404L161.762 57.7418C163.761 59.2482 163.197 61.2514 159.954 63.0618ZM148.578 60.6015L154.19 57.4911C152.53 56.6943 150.239 56.7286 148.648 57.6234C146.984 58.5329 147.091 59.8001 148.578 60.6015ZM163.247 52.7828L171.085 56.6058L167.49 58.5986L153.935 51.9875L157.36 50.089L159.732 51.2456L159.878 51.1648C158.912 50.074 159.335 48.8121 161.291 47.7282C164.048 46.1999 167.78 46.1471 170.926 47.694L179.563 51.9066L175.992 53.8859L168.004 49.9899C166.319 49.1809 164.446 49.1786 162.952 50.0067C161.458 50.8348 161.462 51.9123 163.247 52.7828ZM175.251 40.1719L178.022 41.5233L175.544 42.8967L182.16 46.1231C183.233 46.6595 184.018 46.4978 184.771 46.106C185.136 45.9041 185.73 45.5357 186.13 45.2751L189.05 46.6996C188.724 46.9454 188.155 47.3388 187.256 47.8242C184.669 49.271 181.698 49.6695 179.089 48.3716L171.949 44.8895L170.128 45.8994L167.357 44.5479L169.178 43.5381L165.933 41.9553L169.528 39.9625L172.774 41.5453L175.251 40.1719Z" fill="black"/>
</svg>
