<svg width="618" height="694" viewBox="0 0 618 694" fill="none" xmlns="http://www.w3.org/2000/svg">
<rect width="60.2674" height="60.2674" transform="matrix(0.852368 0.522942 -0.852368 0.522942 308.994 0.632568)" fill="white"/>
<rect width="60.2674" height="315.163" transform="matrix(0.852368 0.522942 0 1 257.625 32.1487)" fill="#D9D9D9"/>
<rect width="60.2674" height="315.163" transform="matrix(0.852368 -0.522942 0 1 308.994 63.6652)" fill="#B3B3B3"/>
<rect y="1.09875" width="299.236" height="58.1663" transform="matrix(0.852368 0.522942 -0.852368 0.522942 361.298 32.6728)" fill="white" stroke="white" stroke-width="2.10109"/>
<rect x="0.551325" y="0.985062" width="300.043" height="313.87" transform="matrix(0.852368 0.522942 0 1 309.072 63.3769)" fill="url(#paint0_linear_1102_253)" stroke="white" stroke-width="1.29363"/>
<rect y="1.09875" width="58.1663" height="299.236" transform="matrix(0.852368 0.522942 -0.852368 0.522942 258.558 32.6728)" fill="white" stroke="white" stroke-width="2.10109"/>
<rect width="301.337" height="315.163" transform="matrix(0.852368 -0.522942 0 1 52.1404 221.247)" fill="url(#paint1_linear_1102_253)"/>
<rect y="0.549374" width="300.286" height="300.286" transform="matrix(0.852368 0.522942 -0.852368 0.522942 309.457 316.057)" fill="url(#paint2_linear_1102_253)" stroke="white" stroke-width="1.05054"/>
<path d="M52.1387 221.246V473.376L308.988 630.958V693.991L52.1387 536.409V536.41L0.768616 504.893V189.73L52.1387 221.246Z" fill="#D8D8DA"/>
<path d="M617.209 504.894L565.84 536.409V536.411L308.99 693.992V630.959L565.839 473.377V221.246L617.209 189.73V504.894Z" fill="url(#paint3_linear_1102_253)"/>
<path d="M62.7948 526.028L63.018 499.383L67.726 502.266L67.627 514.08L67.9409 514.272L76.2945 507.513L81.9755 510.992L73.4012 517.726L81.8464 537.694L76.1968 534.234L69.9803 519.368L67.5666 521.293L67.5028 528.911L62.7948 526.028ZM97.7887 547.862C92.6413 544.711 89.4747 538.592 89.5265 532.409C89.5783 526.226 92.8142 524.065 97.9616 527.217C103.109 530.368 106.307 536.47 106.256 542.652C106.204 548.835 102.936 551.014 97.7887 547.862ZM97.8555 543.649C100.241 545.11 101.487 543.247 101.516 539.75C101.546 536.217 100.344 532.855 97.9582 531.394C95.5414 529.915 94.2641 531.759 94.2345 535.292C94.2052 538.788 95.4387 542.17 97.8555 543.649ZM113.19 545.271L113.094 556.827L108.448 553.983L108.616 533.999L113.041 536.709L113.012 540.205L113.2 540.321C114.004 538.483 115.837 538.162 118.348 539.699C121.895 541.871 124.225 546.146 124.154 550.801L124.048 563.534L119.434 560.709L119.532 548.933C119.553 546.467 118.404 544.284 116.489 543.111C114.544 541.92 113.213 542.622 113.19 545.271ZM146.367 558.077C146.196 555.864 144.763 553.729 142.472 552.326C140.086 550.865 138.757 551.346 138.711 553.093C138.664 554.988 140.383 556.928 142.324 558.635L144.36 560.473C148.243 563.886 151.142 567.992 151.105 572.445C151.064 577.34 147.774 578.432 142.25 575.05C136.757 571.687 133.267 566.553 133.189 560.772L137.772 563.578C137.906 566.361 139.715 568.837 142.226 570.375C144.706 571.893 146.318 571.511 146.334 569.524C146.349 567.721 144.944 566.009 142.471 563.755L139.997 561.538C136.177 558.089 133.842 554.403 133.875 550.502C133.915 545.644 137.583 544.671 142.542 547.708C147.564 550.783 150.863 556.095 150.887 560.844L146.367 558.077ZM152.781 558.934L152.819 554.37L171.431 565.767L171.393 570.33L164.425 566.064L164.24 588.145L159.563 585.281L159.748 563.2L152.781 558.934ZM187.768 575.771L192.508 578.673L192.363 595.97C192.314 601.821 188.515 603.379 182.865 599.92C177.216 596.46 173.513 590.309 173.562 584.458L173.707 567.161L178.415 570.044L178.274 586.899C178.248 589.953 180.081 593.332 182.906 595.062C185.762 596.811 187.602 595.681 187.627 592.626L187.768 575.771ZM203.474 612.169L195.471 607.268L195.694 580.624L203.792 585.582C210.634 589.772 214.767 597.333 214.697 605.613C214.627 613.967 210.411 616.416 203.474 612.169ZM200.219 605.404L203.326 607.306C207.657 609.959 209.939 608.693 209.989 602.731C210.039 596.806 207.801 592.809 203.501 590.176L200.362 588.254L200.219 605.404ZM222.295 596.912L222.072 623.557L217.364 620.674L217.587 594.029L222.295 596.912ZM246.179 624.927C246.106 633.613 241.45 635.792 235.456 632.122C229.398 628.413 224.858 620.565 224.93 611.916C225.003 603.231 229.627 601.032 235.685 604.741C241.68 608.412 246.252 616.242 246.179 624.927ZM241.377 621.987C241.425 616.283 239.159 611.788 235.644 609.636C232.129 607.483 229.78 609.152 229.732 614.857C229.685 620.561 231.981 625.075 235.497 627.227C239.012 629.38 241.329 627.691 241.377 621.987Z" fill="black"/>
<defs>
<linearGradient id="paint0_linear_1102_253" x1="143.141" y1="-3.01942" x2="150.487" y2="315.168" gradientUnits="userSpaceOnUse">
<stop stop-color="#D6D6D6"/>
<stop offset="1" stop-color="#EBEBEB"/>
</linearGradient>
<linearGradient id="paint1_linear_1102_253" x1="131.238" y1="116.384" x2="221.178" y2="276.075" gradientUnits="userSpaceOnUse">
<stop stop-color="#BABABA"/>
<stop offset="1" stop-color="#CCCCCC"/>
</linearGradient>
<linearGradient id="paint2_linear_1102_253" x1="202.661" y1="189.744" x2="-185.734" y2="-231.591" gradientUnits="userSpaceOnUse">
<stop stop-color="white"/>
<stop offset="1" stop-color="#CECECE"/>
</linearGradient>
<linearGradient id="paint3_linear_1102_253" x1="443.226" y1="526.499" x2="535.485" y2="631.218" gradientUnits="userSpaceOnUse">
<stop stop-color="#B9B9BA"/>
<stop offset="1" stop-color="#D8D8DA"/>
</linearGradient>
</defs>
</svg>
