<svg width="155" height="283" viewBox="0 0 155 283" fill="none" xmlns="http://www.w3.org/2000/svg">
<rect y="0.583681" width="88.0474" height="88.0474" transform="matrix(0.866025 0.5 -0.866025 0.5 78.2213 0.667573)" fill="white" stroke="white" stroke-width="1.16736"/>
<mask id="path-2-inside-1_321_1622" fill="white">
<path d="M0.454468 44.9834L77.7167 89.5908V178.805L0.454468 134.198V44.9834Z"/>
</mask>
<path d="M0.454468 44.9834L77.7167 89.5908V178.805L0.454468 134.198V44.9834Z" fill="#D8D8DA"/>
<path d="M0.454468 44.9834V43.816L-0.556497 43.2324V44.3997L0.454468 44.9834ZM77.7167 89.5908L78.2222 89.8826V88.7152L77.7167 88.4234V89.5908ZM77.7167 178.805V179.973L78.2222 180.265V179.097L77.7167 178.805ZM0.454468 134.198L-0.556497 133.614V134.782L0.454468 135.365V134.198ZM0.454468 44.9834V46.1508L77.7167 90.7581V89.5908V88.4234L0.454468 43.816V44.9834ZM77.7167 89.5908L77.2112 89.2989V178.514L77.7167 178.805L78.2222 179.097V89.8826L77.7167 89.5908ZM77.7167 178.805V177.638L0.454468 133.031V134.198V135.365L77.7167 179.973V178.805ZM0.454468 134.198L1.46543 134.782V45.5671L0.454468 44.9834L-0.556497 44.3997V133.614L0.454468 134.198Z" fill="white" mask="url(#path-2-inside-1_321_1622)"/>
<mask id="path-4-inside-2_321_1622" fill="white">
<path d="M77.7158 89.5906L154.978 44.9832V134.198L77.7158 178.805V89.5906Z"/>
</mask>
<path d="M77.7158 89.5906L154.978 44.9832V134.198L77.7158 178.805V89.5906Z" fill="#BABABA"/>
<path d="M77.7158 89.5906V88.4232L77.2103 88.7151V89.8824L77.7158 89.5906ZM154.978 44.9832L155.989 44.3995V43.2322L154.978 43.8159V44.9832ZM154.978 134.198V135.365L155.989 134.782V133.614L154.978 134.198ZM77.7158 178.805L77.2103 179.097V180.265L77.7158 179.973V178.805ZM77.7158 89.5906V90.7579L154.978 46.1506V44.9832V43.8159L77.7158 88.4232V89.5906ZM154.978 44.9832L153.967 45.5669V134.782L154.978 134.198L155.989 133.614V44.3995L154.978 44.9832ZM154.978 134.198V133.031L77.7158 177.638V178.805V179.973L154.978 135.365V134.198ZM77.7158 178.805L78.2213 178.513V89.2987L77.7158 89.5906L77.2103 89.8824V179.097L77.7158 178.805Z" fill="white" mask="url(#path-4-inside-2_321_1622)"/>
<path d="M93.1557 118.829V98.7208L96.7636 96.6378V105.553L97.0041 105.414L103.33 92.8467L107.683 90.3332L101.189 103.081L107.756 110.4L103.426 112.899L98.5916 107.386L96.7636 110.997V116.746L93.1557 118.829ZM119.975 103.65C116.031 105.914 113.565 104.212 113.577 99.5395C113.565 94.8944 116.031 90.3465 119.975 88.0691C123.932 85.7847 126.385 87.4928 126.397 92.1379C126.385 96.8108 123.932 101.352 119.975 103.65ZM117.185 97.4565C117.185 100.095 118.135 101.505 119.999 100.442C121.815 99.3798 122.777 96.8663 122.765 94.2348C122.777 91.5755 121.815 90.1451 119.999 91.1936C118.135 92.2698 117.185 94.8042 117.185 97.4565ZM131.701 87.8536V96.5744L128.142 98.6297V83.5487L131.533 81.5906V84.2291L131.677 84.1458C132.267 82.0697 133.662 80.1672 135.598 79.0493C138.328 77.4732 140.108 78.598 140.096 82.1183V91.728L136.56 93.7693V84.8818C136.548 83.0279 135.682 82.4169 134.203 83.2709C132.724 84.125 131.701 85.8677 131.701 87.8536ZM98.646 149.659V129.551L105.477 125.607C109.434 123.323 111.707 124.58 111.707 128.565C111.707 131.315 110.612 133.946 108.628 136.078L112.332 141.757L108.339 144.063L105.008 138.848L102.254 140.438V147.576L98.646 149.659ZM102.254 137.05L104.803 135.578C106.944 134.342 107.99 132.724 107.978 130.717C107.99 128.683 106.944 128.19 104.803 129.412L102.254 130.884V137.05ZM116.626 139.278L112.729 141.528L118.766 117.934L123.409 115.254L129.422 131.891L125.549 134.126L124.238 130.245L117.937 133.883L116.626 139.278ZM118.851 130.106L123.324 127.523L121.148 121.087L121.027 121.156L118.851 130.106ZM134.509 108.845V128.953L130.901 131.036V110.928L134.509 108.845Z" fill="black"/>
</svg>
