<svg width="240" height="205" viewBox="0 0 240 205" fill="none" xmlns="http://www.w3.org/2000/svg">
<mask id="path-1-inside-1_321_1604" fill="white">
<path d="M185.895 0.349854L239.977 33.53L54.5535 147.29L0.471638 114.11L185.895 0.349854Z"/>
</mask>
<path d="M185.895 0.349854L239.977 33.53L54.5535 147.29L0.471638 114.11L185.895 0.349854Z" fill="white"/>
<path d="M185.895 0.349854L186.89 -0.260609L185.895 -0.871071L184.9 -0.260609L185.895 0.349854ZM239.977 33.53L240.475 33.8352L241.47 33.2247L240.972 32.9195L239.977 33.53ZM54.5535 147.29L54.056 147.596L54.5535 147.901L55.051 147.596L54.5535 147.29ZM0.471638 114.11L-0.523384 113.5L-1.02089 113.805L-0.0258719 114.415L0.471638 114.11ZM185.895 0.349854L184.9 0.960316L238.982 34.1404L239.977 33.53L240.972 32.9195L186.89 -0.260609L185.895 0.349854ZM239.977 33.53L239.479 33.2247L54.056 146.985L54.5535 147.29L55.051 147.596L240.475 33.8352L239.977 33.53ZM54.5535 147.29L55.051 146.985L0.969147 113.805L0.471638 114.11L-0.0258719 114.415L54.056 147.596L54.5535 147.29ZM0.471638 114.11L1.46666 114.721L186.89 0.960316L185.895 0.349854L184.9 -0.260609L-0.523384 113.5L0.471638 114.11Z" fill="white" mask="url(#path-1-inside-1_321_1604)"/>
<mask id="path-3-inside-2_321_1604" fill="white">
<path d="M0.47168 114.11L54.5535 147.29V204.17L0.47168 170.99V114.11Z"/>
</mask>
<path d="M0.47168 114.11L54.5535 147.29V204.17L0.47168 170.99V114.11Z" fill="#D8D8DA"/>
<path d="M0.47168 114.11V113.526L-0.523342 112.916V113.5L0.47168 114.11ZM54.5535 147.29L55.051 147.595V147.012L54.5535 146.707V147.29ZM54.5535 204.17V205.338L55.051 205.643V204.476L54.5535 204.17ZM0.47168 170.99L-0.523342 170.38V171.547L0.47168 172.158V170.99ZM0.47168 114.11V114.694L54.5535 147.874V147.29V146.707L0.47168 113.526V114.11ZM54.5535 147.29L54.056 146.985V203.865L54.5535 204.17L55.051 204.476V147.595L54.5535 147.29ZM54.5535 204.17V203.003L0.47168 169.823V170.99V172.158L54.5535 205.338V204.17ZM0.47168 170.99L1.4667 171.601V114.721L0.47168 114.11L-0.523342 113.5V170.38L0.47168 170.99Z" fill="white" mask="url(#path-3-inside-2_321_1604)"/>
<mask id="path-5-inside-3_321_1604" fill="white">
<path d="M54.5533 147.29L239.977 33.5299V90.4101L54.5533 204.17V147.29Z"/>
</mask>
<path d="M54.5533 147.29L239.977 33.5299V90.4101L54.5533 204.17V147.29Z" fill="#BABABA"/>
<path d="M54.5533 147.29V146.707L54.0558 147.012V147.596L54.5533 147.29ZM239.977 33.5299L240.972 32.9195V32.3358L239.977 32.9463V33.5299ZM239.977 90.4101V90.9938L240.972 90.3833V89.7996L239.977 90.4101ZM54.5533 204.17L54.0558 204.476V205.059L54.5533 204.754V204.17ZM54.5533 147.29V147.874L239.977 34.1136V33.5299V32.9463L54.5533 146.707V147.29ZM239.977 33.5299L238.982 34.1404V91.0206L239.977 90.4101L240.972 89.7996V32.9195L239.977 33.5299ZM239.977 90.4101V89.8264L54.5533 203.587V204.17V204.754L239.977 90.9938V90.4101ZM54.5533 204.17L55.0509 203.865V146.985L54.5533 147.29L54.0558 147.596V204.476L54.5533 204.17Z" fill="white" mask="url(#path-5-inside-3_321_1604)"/>
<path d="M64.899 113.127L46.8261 104.312L50.4697 102.292L58.4828 106.2L58.7257 106.066L57.1013 98.6163L61.498 96.1791L63.0272 103.759L79.6438 104.954L75.2714 107.377L62.925 106.443L63.3755 108.587L68.5427 111.107L64.899 113.127ZM92.2594 98.2468C88.2631 100.449 82.965 100.459 78.7834 98.4072C74.59 96.3746 74.2715 93.6248 78.2553 91.4165C82.2512 89.2015 87.5372 89.1978 91.7306 91.2304C95.9122 93.2826 96.2428 96.0257 92.2594 98.2468ZM82.4271 96.3875C84.7985 97.5441 87.5179 97.8706 89.4129 96.8332C91.2345 95.8105 90.4462 94.4135 88.0626 93.2636C85.6908 92.0942 82.9344 91.7622 81.1004 92.7788C79.2178 93.8224 80.0431 95.2248 82.4271 96.3875ZM95.989 87.7255L103.827 91.5484L100.232 93.5412L86.6774 86.9302L90.1025 85.0316L92.4739 86.1882L92.6197 86.1075C91.6547 85.0166 92.0775 83.7547 94.033 82.6708C96.79 81.1426 100.522 81.0897 103.668 82.6366L112.305 86.8492L108.734 88.8285L100.746 84.9325C99.0614 84.1235 97.1884 84.1212 95.6945 84.9493C94.2006 85.7774 94.2041 86.8549 95.989 87.7255ZM101.836 73.8194L106.354 71.3149L123.493 74.5864L123.688 74.4787L116.314 65.7943L120.832 63.2898L138.905 72.1046L135.358 74.0705L123.526 68.2995L123.38 68.3803L130.547 76.6596L128.117 78.0061L111.719 74.7921L111.573 74.8729L123.456 80.6683L119.909 82.6342L101.836 73.8194ZM147.5 67.6266C143.503 69.8287 138.205 69.8392 134.024 67.787C129.83 65.7544 129.512 63.0046 133.496 60.7963C137.492 58.5814 142.778 58.5776 146.971 60.6102C151.153 62.6624 151.483 65.4055 147.5 67.6266ZM137.667 65.7673C140.039 66.9239 142.758 67.2504 144.653 66.213C146.475 65.1903 145.687 63.7933 143.303 62.6434C140.931 61.474 138.175 61.142 136.341 62.1586C134.458 63.2022 135.283 64.6046 137.667 65.7673ZM160.555 60.3376C157.543 62.0073 152.728 62.1141 148.197 59.9043C143.554 57.6398 143.686 55.1475 146.601 53.5318C148.812 52.3065 151.216 52.3782 152.788 52.6513L152.91 52.584L146.12 49.2724L149.715 47.2796L167.788 56.0944L164.242 58.0602L162.07 57.001L161.9 57.0952C162.525 57.9192 162.705 59.146 160.555 60.3376ZM151.865 57.8455C154.249 59.0211 156.893 59.2854 158.727 58.2816C160.512 57.2791 159.922 55.9283 157.476 54.7351C155.042 53.5481 152.474 53.3459 150.664 54.349C148.83 55.3656 149.494 56.7017 151.865 57.8455ZM176.432 51.5894C172.375 53.8252 167.213 53.8898 162.932 51.7889C158.739 49.7563 158.419 46.9808 162.282 44.8399C165.743 42.9212 170.723 42.5021 175.341 44.7545L176.389 45.2659L167.377 50.2613C169.424 51.2597 171.863 51.2215 173.734 50.1975C174.948 49.5115 175.273 48.7589 174.814 48.1679L178.239 46.2694C180.238 47.7758 179.674 49.779 176.432 51.5894ZM165.056 49.1291L170.667 46.0187C169.007 45.2219 166.716 45.2562 165.125 46.151C163.461 47.0605 163.568 48.3277 165.056 49.1291ZM169.489 36.3186L187.562 45.1334L183.967 47.1262L165.894 38.3114L169.489 36.3186Z" fill="black"/>
</svg>
