<svg width="240" height="205" viewBox="0 0 240 205" fill="none" xmlns="http://www.w3.org/2000/svg">
<mask id="path-1-inside-1_321_1610" fill="white">
<path d="M185.912 0.507812L239.994 33.6879L54.5702 147.448L0.488361 114.268L185.912 0.507812Z"/>
</mask>
<path d="M185.912 0.507812L239.994 33.6879L54.5702 147.448L0.488361 114.268L185.912 0.507812Z" fill="white"/>
<path d="M185.912 0.507812L186.907 -0.10265L185.912 -0.713112L184.917 -0.10265L185.912 0.507812ZM239.994 33.6879L240.491 33.9931L241.486 33.3827L240.989 33.0775L239.994 33.6879ZM54.5702 147.448L54.0727 147.753L54.5702 148.059L55.0677 147.753L54.5702 147.448ZM0.488361 114.268L-0.50666 113.658L-1.00417 113.963L-0.00914829 114.573L0.488361 114.268ZM185.912 0.507812L184.917 1.11827L238.999 34.2984L239.994 33.6879L240.989 33.0775L186.907 -0.10265L185.912 0.507812ZM239.994 33.6879L239.496 33.3827L54.0727 147.143L54.5702 147.448L55.0677 147.753L240.491 33.9931L239.994 33.6879ZM54.5702 147.448L55.0677 147.143L0.985871 113.963L0.488361 114.268L-0.00914829 114.573L54.0727 147.753L54.5702 147.448ZM0.488361 114.268L1.48338 114.879L186.907 1.11827L185.912 0.507812L184.917 -0.10265L-0.50666 113.658L0.488361 114.268Z" fill="white" mask="url(#path-1-inside-1_321_1610)"/>
<mask id="path-3-inside-2_321_1610" fill="white">
<path d="M0.48877 114.268L54.5706 147.448V204.328L0.48877 171.148V114.268Z"/>
</mask>
<path d="M0.48877 114.268L54.5706 147.448V204.328L0.48877 171.148V114.268Z" fill="#D8D8DA"/>
<path d="M0.48877 114.268V113.684L-0.506252 113.074V113.657L0.48877 114.268ZM54.5706 147.448L55.0681 147.753V147.169L54.5706 146.864V147.448ZM54.5706 204.328V205.495L55.0681 205.801V204.633L54.5706 204.328ZM0.48877 171.148L-0.506252 170.538V171.705L0.48877 172.315V171.148ZM0.48877 114.268V114.852L54.5706 148.032V147.448V146.864L0.48877 113.684V114.268ZM54.5706 147.448L54.0731 147.143V204.023L54.5706 204.328L55.0681 204.633V147.753L54.5706 147.448ZM54.5706 204.328V203.161L0.48877 169.981V171.148V172.315L54.5706 205.495V204.328ZM0.48877 171.148L1.48379 171.758V114.878L0.48877 114.268L-0.506252 113.657V170.538L0.48877 171.148Z" fill="white" mask="url(#path-3-inside-2_321_1610)"/>
<mask id="path-5-inside-3_321_1610" fill="white">
<path d="M54.5702 147.448L239.994 33.6879V90.5681L54.5702 204.328V147.448Z"/>
</mask>
<path d="M54.5702 147.448L239.994 33.6879V90.5681L54.5702 204.328V147.448Z" fill="#BABABA"/>
<path d="M54.5702 147.448V146.865L54.0727 147.17V147.753L54.5702 147.448ZM239.994 33.6879L240.989 33.0774V32.4938L239.994 33.1042V33.6879ZM239.994 90.5681V91.1517L240.989 90.5413V89.9576L239.994 90.5681ZM54.5702 204.328L54.0727 204.634V205.217L54.5702 204.912V204.328ZM54.5702 147.448V148.032L239.994 34.2716V33.6879V33.1042L54.5702 146.865V147.448ZM239.994 33.6879L238.999 34.2984V91.1785L239.994 90.5681L240.989 89.9576V33.0774L239.994 33.6879ZM239.994 90.5681V89.9844L54.5702 203.745V204.328V204.912L239.994 91.1517V90.5681ZM54.5702 204.328L55.0677 204.023V147.143L54.5702 147.448L54.0727 147.753V204.634L54.5702 204.328Z" fill="white" mask="url(#path-5-inside-3_321_1610)"/>
<path d="M78.4762 107.189L60.4032 98.3744L64.0469 96.3547L72.06 100.263L72.3029 100.128L70.6785 92.6788L75.0752 90.2416L76.6044 97.8219L93.221 99.016L88.8486 101.44L76.5022 100.506L76.9526 102.649L82.1199 105.169L78.4762 107.189ZM105.837 92.3093C101.84 94.5114 96.5421 94.5219 92.3606 92.4697C88.1672 90.4371 87.8487 87.6873 91.8325 85.479C95.8284 83.2641 101.114 83.2603 105.308 85.2929C109.489 87.3451 109.82 90.0882 105.837 92.3093ZM96.0043 90.45C98.3757 91.6066 101.095 91.9331 102.99 90.8957C104.812 89.873 104.023 88.476 101.64 87.3261C99.268 86.1567 96.5116 85.8247 94.6776 86.8413C92.795 87.8849 93.6203 89.2873 96.0043 90.45ZM109.566 81.788L117.404 85.6109L113.809 87.6037L100.255 80.9927L103.68 79.0941L106.051 80.2507L106.197 80.17C105.232 79.0791 105.655 77.8172 107.61 76.7333C110.367 75.2051 114.099 75.1522 117.245 76.6991L125.882 80.9117L122.311 82.891L114.323 78.995C112.639 78.186 110.766 78.1837 109.272 79.0118C107.778 79.8399 107.781 80.9174 109.566 81.788ZM133.486 76.6967L115.413 67.8819L122.312 64.0579C126.308 61.8429 130.912 61.6966 134.495 63.4438C136.966 64.6491 137.658 66.1384 136.54 67.6814L147.308 69.0351L143.276 71.2703L133.496 70.0062L130.715 71.5479L137.13 74.6769L133.486 76.6967ZM127.669 70.0626L130.244 68.6353C132.406 67.4369 132.551 66.4068 130.729 65.5308C128.919 64.6353 126.877 64.7401 124.702 65.9324L122.127 67.3597L127.669 70.0626ZM151.644 66.6314L147.709 68.8127L135.733 56.6182L140.422 54.0195L164.567 59.4681L160.657 61.6359L155.164 60.3365L148.8 63.8643L151.644 66.6314ZM146.802 61.9282L151.32 59.4237L142.207 57.2698L142.086 57.3371L146.802 61.9282ZM164.663 46.6429C162.468 46.0911 160.108 46.3196 158.177 47.3773C155.468 48.8914 155.757 50.9557 159.551 52.8063C163.37 54.6691 167.315 54.7326 170.133 53.1835C172.635 51.7838 172.668 50.2435 170.445 49.1086L166.632 51.2226L163.811 49.8468L171.147 45.7804L173.393 46.8762C178.136 49.1895 177.862 52.3589 173.429 54.8163C168.498 57.5496 161.601 57.6789 155.884 54.8908C150.018 52.0297 150.144 48.3702 154.784 45.7984C158.755 43.5969 164.313 43.1306 168.356 44.5963L164.663 46.6429Z" fill="black"/>
</svg>
