<svg width="1127" height="1074" viewBox="0 0 1127 1074" fill="none" xmlns="http://www.w3.org/2000/svg">
<rect width="658.511" height="656.532" transform="matrix(0.855103 0.518458 -0.855103 0.518458 564.402 390.089)" fill="#F6F6F6" stroke="white"/>
<rect width="658.33" height="1.24115" transform="matrix(0.855103 0.518458 0 1 3.15405 730.568)" fill="white" stroke="white"/>
<rect width="658.33" height="1.24115" transform="matrix(0.855103 -0.518458 0 1 566.095 1071.88)" fill="white" stroke="white"/>
<rect width="1.34594" height="650.091" transform="matrix(0.866025 0.5 -0.866025 0.5 566.147 2)" fill="#F0F0F0" stroke="white" stroke-width="2.69189"/>
<rect width="1.34594" height="403.783" transform="matrix(0.866025 0.5 0 1 3.1524 327.046)" fill="#F0F0F0" stroke="white" stroke-width="2.69189"/>
<rect x="1.12032" y="0.646815" width="647.504" height="401.196" transform="matrix(0.866025 -0.5 0 1 4.46687 328.279)" fill="url(#paint0_linear_1102_232)" stroke="white" stroke-width="2.58726"/>
<rect width="650.091" height="1.34594" transform="matrix(0.866025 0.5 -0.866025 0.5 566.862 3.2937)" fill="#F0F0F0" stroke="white" stroke-width="2.69189"/>
<rect x="0.560158" y="0.970222" width="648.798" height="402.49" transform="matrix(0.866025 0.5 0 1 565.771 3.6866)" fill="#F0F0F0" stroke="white" stroke-width="1.29363"/>
<path d="M608.801 148.698V112.185L615.353 115.967V132.156L615.789 132.408L627.276 122.851L635.181 127.415L623.389 136.947L635.312 164.004L627.451 159.465L618.672 139.317L615.353 142.041V152.48L608.801 148.698ZM664.14 154.574C663.878 151.548 661.868 148.674 658.68 146.833C655.361 144.916 653.527 145.622 653.483 148.018C653.439 150.615 655.841 153.212 658.549 155.482L661.388 157.928C666.804 162.467 670.866 167.989 670.866 174.091C670.866 180.799 666.323 182.412 658.637 177.974C650.993 173.562 646.102 166.652 645.927 158.735L652.304 162.416C652.522 166.224 655.055 169.552 658.549 171.57C662 173.562 664.227 172.982 664.227 170.258C664.227 167.787 662.262 165.493 658.811 162.492L655.361 159.542C650.032 154.952 646.757 149.985 646.757 144.639C646.757 137.982 651.823 136.519 658.724 140.504C665.712 144.538 670.341 151.699 670.429 158.205L664.14 154.574ZM689.319 183.535V167.8L695.783 171.532V198.917L689.581 195.336V190.394L689.319 190.242C688.227 192.789 685.694 193.445 682.113 191.377C677.352 188.629 674.12 182.879 674.12 176.475V159.025L680.584 162.757V178.895C680.584 182.123 682.2 185.124 684.733 186.586C687.092 187.948 689.319 187.267 689.319 183.535ZM699.911 201.3V173.916L706.375 177.648V205.032L699.911 201.3ZM703.143 172.201C701.178 171.066 699.606 168.444 699.606 166.376C699.606 164.258 701.178 163.451 703.143 164.586C705.065 165.695 706.637 168.318 706.637 170.436C706.637 172.504 705.065 173.31 703.143 172.201ZM722.995 187.243V192.841L718.54 190.269V203.633C718.54 205.802 719.457 206.886 720.767 207.693C721.422 208.071 722.558 208.676 723.344 209.029V214.93C722.645 214.678 721.51 214.123 719.894 213.19C715.22 210.492 712.032 206.23 712.076 200.96V186.537L708.8 184.646V179.048L712.076 180.939V174.383L718.54 178.115V184.671L722.995 187.243ZM736.644 223.063C729.394 218.877 724.939 210.858 724.939 202.184C724.939 193.711 729.438 190.61 736.382 194.619C742.628 198.225 747.519 205.588 747.519 214.918V217.036L731.316 207.681C731.316 211.816 733.456 215.624 736.775 217.54C738.959 218.801 740.531 218.599 741.186 217.313L747.345 220.869C746.427 225.382 742.497 226.441 736.644 223.063ZM731.316 202.991L741.405 208.816C741.405 205.487 739.396 201.957 736.513 200.293C733.543 198.578 731.425 199.902 731.316 202.991Z" fill="black"/>
<defs>
<linearGradient id="paint0_linear_1102_232" x1="-0.366488" y1="437.598" x2="300.19" y2="-45.4873" gradientUnits="userSpaceOnUse">
<stop stop-color="#F0F0F0"/>
<stop offset="1" stop-color="#E7E7E7"/>
</linearGradient>
</defs>
</svg>
