<svg width="207" height="35" viewBox="0 0 207 35" fill="none" xmlns="http://www.w3.org/2000/svg">
<path d="M0 17.7601V2.40012H16.512V17.7601H0ZM8.752 25.2401V30.6481H27.496V34.3521H4.096V21.4961H26.896V25.2401H8.752ZM4.656 14.0641H11.936V6.06412H4.656V14.0641ZM22 19.5921V0.328125H26.736V19.5841H22V19.5921Z" fill="#1A1A1A"/>
<path d="M33.0239 15.0547V9.71875H38.3919V15.0547H33.0239ZM33.0239 29.5748V24.2387H38.3919V29.5748H33.0239Z" fill="#1A1A1A"/>
<path d="M42.2961 20.1916V16.5276H73.2961V20.1916H42.2961ZM47.4881 3.61563C48.8561 2.62363 50.4721 1.93562 52.3441 1.56762C54.2161 1.19962 56.0401 1.01562 57.8161 1.01562C59.5921 1.01562 61.4241 1.19962 63.3041 1.56762C65.1841 1.94362 66.8081 2.62363 68.1761 3.61563C69.5441 4.60763 70.2241 5.95963 70.2241 7.65563C70.2241 9.35163 69.5441 10.6956 68.1761 11.6716C66.8081 12.6556 65.1921 13.3276 63.3201 13.7036C61.4481 14.0716 59.6161 14.2636 57.8081 14.2636C56.0001 14.2636 54.2081 14.0796 52.3361 13.7036C50.4641 13.3356 48.8481 12.6556 47.4801 11.6716C46.1121 10.6876 45.4321 9.35163 45.4321 7.65563C45.4321 5.95963 46.1121 4.60763 47.4801 3.61563H47.4881ZM45.9601 34.3516V22.8556H69.5921V34.3516H45.9601ZM52.7201 10.1436C54.3361 10.5276 56.0321 10.7196 57.8161 10.7196C59.6001 10.7196 61.2961 10.5276 62.9281 10.1436C64.5601 9.75963 65.3761 8.92763 65.3761 7.65563C65.3761 6.38363 64.5601 5.55163 62.9281 5.16762C61.2961 4.78363 59.5921 4.59162 57.8161 4.59162C56.0401 4.59162 54.3441 4.78363 52.7201 5.16762C51.1041 5.55163 50.2961 6.38363 50.2961 7.65563C50.2961 8.92763 51.1041 9.75963 52.7201 10.1436ZM50.5681 30.7356H64.9361V26.5196H50.5681V30.7356Z" fill="#1A1A1A"/>
<path d="M98.568 15.1694C99.28 14.0974 99.632 12.9454 99.632 11.7294C99.632 10.2814 99.136 9.11344 98.152 8.24144C97.16 7.36944 95.904 6.93744 94.36 6.93744C92.816 6.93744 91.536 7.40944 90.592 8.35344C89.648 9.29744 89.176 10.5694 89.176 12.1614H83.728C83.728 10.1854 84.184 8.44944 85.104 6.95344C86.016 5.45744 87.288 4.30544 88.912 3.48944C90.536 2.67344 92.384 2.27344 94.448 2.27344C96.512 2.27344 98.392 2.66544 100 3.44944C101.608 4.23344 102.864 5.32144 103.768 6.71344C104.672 8.10544 105.12 9.68944 105.12 11.4654C105.12 12.6814 104.896 13.8654 104.448 14.9934C104 16.1294 103.208 17.3854 102.072 18.7614C100.936 20.1374 99.344 21.8174 97.28 23.7934L91.832 29.3694V29.5854H105.6V34.3774H83.904V30.2414L94.88 19.4414C96.624 17.6734 97.848 16.2494 98.56 15.1694H98.568Z" fill="#1A1A1A"/>
<path d="M109.48 34.2463V28.4062H115.36V34.2463H109.48Z" fill="#1A1A1A"/>
<path d="M122.552 33.0496C120.72 31.7536 119.32 29.8736 118.344 27.4096C117.368 24.9376 116.888 21.9936 116.888 18.5616C116.92 13.3936 118.008 9.38563 120.152 6.53763C122.304 3.68963 125.296 2.26562 129.128 2.26562C131.656 2.26562 133.832 2.90563 135.664 4.18563C137.496 5.46563 138.896 7.32962 139.872 9.78562C140.848 12.2416 141.328 15.1696 141.328 18.5616C141.328 21.9536 140.84 24.9376 139.872 27.4096C138.896 29.8736 137.496 31.7616 135.664 33.0496C133.832 34.3456 131.656 34.9856 129.128 34.9856C126.6 34.9856 124.376 34.3376 122.552 33.0496ZM133.832 27.1696C134.968 25.1776 135.528 22.3136 135.528 18.5616C135.528 14.8096 134.96 12.0336 133.832 10.0496C132.696 8.05762 131.128 7.06563 129.128 7.06563C127.128 7.06563 125.52 8.06563 124.4 10.0736C123.28 12.0736 122.72 14.9856 122.72 18.7856C122.72 22.5856 123.288 25.2896 124.416 27.2336C125.552 29.1776 127.12 30.1536 129.12 30.1536C131.12 30.1536 132.696 29.1616 133.824 27.1696H133.832Z" fill="#1A1A1A"/>
<path d="M173.176 11.5312H176.456V34.0272H173.888V16.9153H173.672L166.648 34.0272H164.176L157.152 16.9153H156.936V34.0272H154.4V11.5312H157.648L165.288 30.1872H165.536L173.176 11.5312Z" fill="#1A1A1A"/>
<path d="M180.304 11.1094H182.904V13.9254H180.304V11.1094ZM180.304 34.3814V17.5174H182.904V34.3814H180.304Z" fill="#1A1A1A"/>
<path d="M189.248 17.5214V19.2254C189.76 18.6094 190.432 18.1294 191.256 17.7854C192.08 17.4494 192.976 17.2734 193.944 17.2734C195.928 17.2734 197.448 17.8014 198.504 18.8654C199.568 19.9294 200.096 21.5214 200.096 23.6494V34.3854H197.496V23.8334C197.496 22.5134 197.152 21.4814 196.472 20.7374C195.792 19.9934 194.84 19.6254 193.624 19.6254C192.344 19.6254 191.312 20.0334 190.512 20.8494C189.72 21.6654 189.32 22.7934 189.32 24.2334V34.3854H186.72V17.5214H189.224H189.248Z" fill="#1A1A1A"/>
<path d="M203.944 11.1094H206.544V13.9254H203.944V11.1094ZM203.944 34.3814V17.5174H206.544V34.3814H203.944Z" fill="#1A1A1A"/>
</svg>
