<svg width="219" height="36" viewBox="0 0 219 36" fill="none" xmlns="http://www.w3.org/2000/svg">
<path d="M0 18.4084V3.05637H16.512V18.4164H0V18.4084ZM8.752 25.8884V31.2964H27.488V35.0004H4.096V22.1524H26.896V25.8964H8.752V25.8884ZM4.65601 14.7124H11.936V6.71237H4.65601V14.7124ZM22 20.2404V0.984375H26.736V20.2404H22Z" fill="#1A1A1A"/>
<path d="M33.0239 15.703V10.375H38.3919V15.703H33.0239ZM33.0239 30.223V24.895H38.3919V30.223H33.0239Z" fill="#1A1A1A"/>
<path d="M42.2878 20.8403V17.1842H73.2798V20.8403H42.2878ZM47.4798 4.26425C48.8478 3.27225 50.4638 2.58425 52.3358 2.21625C54.2078 1.84825 56.0319 1.65625 57.8079 1.65625C59.5839 1.65625 61.4158 1.84025 63.2959 2.21625C65.1758 2.59225 66.7999 3.27225 68.1679 4.26425C69.5359 5.25625 70.2159 6.60825 70.2159 8.30425C70.2159 10.0002 69.5359 11.3442 68.1679 12.3203C66.7999 13.3042 65.1839 13.9762 63.3119 14.3522C61.4399 14.7282 59.6079 14.9122 57.7999 14.9122C55.9919 14.9122 54.1998 14.7282 52.3278 14.3522C50.4558 13.9842 48.8399 13.3042 47.4719 12.3203C46.1039 11.3363 45.4239 10.0002 45.4239 8.30425C45.4239 6.60825 46.1039 5.25625 47.4719 4.26425H47.4798ZM45.9519 35.0003V23.5042H69.5838V35.0003H45.9519ZM52.7119 10.7923C54.3279 11.1763 56.0239 11.3682 57.8079 11.3682C59.5919 11.3682 61.2879 11.1763 62.9199 10.7923C64.5519 10.4082 65.3679 9.57625 65.3679 8.30425C65.3679 7.03225 64.5519 6.20025 62.9199 5.81625C61.2879 5.43225 59.5839 5.24025 57.8079 5.24025C56.0319 5.24025 54.3359 5.43225 52.7119 5.81625C51.0959 6.20025 50.2878 7.03225 50.2878 8.30425C50.2878 9.57625 51.0959 10.4082 52.7119 10.7923ZM50.5679 31.3843H64.9278V27.1682H50.5679V31.3843Z" fill="#1A1A1A"/>
<path d="M98.56 15.8179C99.272 14.7459 99.624 13.5939 99.624 12.3779C99.624 10.9299 99.1279 9.76187 98.1439 8.88987C97.1599 8.01787 95.896 7.58587 94.352 7.58587C92.808 7.58587 91.5279 8.05788 90.5839 9.00187C89.6399 9.94587 89.168 11.2179 89.168 12.8099H83.72C83.72 10.8339 84.1759 9.09788 85.0959 7.60187C86.0079 6.10588 87.28 4.95387 88.904 4.13787C90.528 3.32187 92.3759 2.92188 94.4319 2.92188C96.4879 2.92188 98.3759 3.31387 99.9839 4.09787C101.592 4.88187 102.848 5.96987 103.752 7.36187C104.656 8.75387 105.104 10.3379 105.104 12.1139C105.104 13.3299 104.88 14.5059 104.432 15.6419C103.984 16.7779 103.192 18.0339 102.056 19.4099C100.92 20.7939 99.328 22.4659 97.264 24.4419L91.816 30.0179V30.2339H105.584V35.0259H83.8879V30.8899L94.864 20.0899C96.608 18.3219 97.8319 16.8979 98.5439 15.8179H98.56Z" fill="#1A1A1A"/>
<path d="M109.472 34.8947V29.0547H115.352V34.8947H109.472Z" fill="#1A1A1A"/>
<path d="M122.536 33.6979C120.704 32.4099 119.304 30.5219 118.336 28.0579C117.36 25.5939 116.88 22.6419 116.88 19.2179C116.912 14.0499 118 10.0419 120.144 7.19387C122.296 4.34588 125.288 2.92188 129.12 2.92188C131.648 2.92188 133.824 3.56188 135.656 4.84187C137.488 6.12187 138.888 7.98587 139.856 10.4419C140.832 12.8979 141.312 15.8179 141.312 19.2179C141.312 22.6179 140.824 25.5939 139.856 28.0579C138.88 30.5299 137.48 32.4099 135.656 33.6979C133.832 34.9859 131.648 35.6339 129.12 35.6339C126.592 35.6339 124.368 34.9859 122.544 33.6979H122.536ZM133.816 27.8179C134.952 25.8259 135.512 22.9619 135.512 19.2179C135.512 15.4739 134.944 12.6899 133.816 10.6979C132.68 8.71387 131.112 7.71387 129.112 7.71387C127.112 7.71387 125.504 8.71387 124.384 10.7219C123.264 12.7219 122.704 15.6259 122.704 19.4339C122.704 23.2419 123.272 25.9379 124.4 27.8819C125.528 29.8259 127.104 30.8019 129.104 30.8019C131.104 30.8019 132.672 29.8099 133.808 27.8179H133.816Z" fill="#1A1A1A"/>
<path d="M167.048 14.2111C168.224 15.3231 168.808 16.7551 168.808 18.5151C168.808 19.5871 168.568 20.5311 168.096 21.3471C167.624 22.1631 166.968 22.8031 166.144 23.2831V23.3151C167.152 23.6671 167.992 24.3231 168.664 25.2751C169.336 26.2351 169.672 27.3151 169.672 28.5071C169.672 30.5311 169.056 32.1231 167.832 33.2831C166.608 34.4431 164.712 35.0271 162.152 35.0271H154.048V12.5391H161.904C164.152 12.5391 165.864 13.0991 167.04 14.2111H167.048ZM164.96 21.3391C165.792 20.6271 166.216 19.6831 166.216 18.5071C166.216 17.4511 165.856 16.5951 165.136 15.9391C164.416 15.2831 163.344 14.9471 161.92 14.9471H156.784V22.4031H161.824C163.08 22.4031 164.128 22.0511 164.968 21.3391H164.96ZM165.84 31.5311C166.664 30.8111 167.08 29.8031 167.08 28.4991C167.08 27.4431 166.664 26.5631 165.84 25.8511C165.016 25.1391 163.84 24.7871 162.312 24.7871H156.776V32.6111H162.16C163.792 32.6111 165.016 32.2511 165.84 31.5311Z" fill="#1A1A1A"/>
<path d="M180.952 34.8423C180.016 35.2343 178.984 35.4263 177.872 35.4263C176.2 35.4263 174.824 34.9623 173.744 34.0343C172.664 33.1063 172.12 31.8342 172.12 30.2262C172.12 29.0343 172.432 28.0902 173.048 27.4102C173.664 26.7302 174.432 26.2422 175.336 25.9542C176.24 25.6662 177.344 25.4423 178.648 25.2743L180.008 25.1223C180.872 25.0183 181.496 24.9303 181.864 24.8583C182.232 24.7863 182.52 24.6663 182.712 24.4823C182.904 24.3063 183.008 24.0583 183.008 23.7223V23.6262C183.008 22.5142 182.704 21.6663 182.096 21.0743C181.488 20.4903 180.568 20.1943 179.328 20.1943C178.36 20.1943 177.504 20.4183 176.76 20.8743C176.016 21.3303 175.408 21.9863 174.936 22.8503L172.52 21.8342C173.16 20.5302 174.096 19.5542 175.336 18.8982C176.576 18.2422 177.976 17.9062 179.544 17.9062C181.464 17.9062 182.952 18.4102 184.016 19.4262C185.08 20.4342 185.608 21.9303 185.608 23.9143V35.0183H183.008V33.2903C182.576 33.9303 181.888 34.4423 180.952 34.8343V34.8423ZM180.608 32.5222C181.336 32.1462 181.92 31.6423 182.36 31.0023C182.792 30.3623 183.008 29.6743 183.008 28.9303V26.5463C182.8 26.7943 182.304 26.9783 181.52 27.1063C180.736 27.2263 179.736 27.3623 178.52 27.5063C177.32 27.6743 176.384 27.9623 175.704 28.3863C175.024 28.8103 174.68 29.4662 174.68 30.3542C174.68 31.2422 175.008 31.9143 175.656 32.3783C176.304 32.8423 177.168 33.0743 178.24 33.0743C179.088 33.0743 179.872 32.8902 180.608 32.5222Z" fill="#1A1A1A"/>
<path d="M195.416 20.1781C194.384 20.1781 193.528 20.4181 192.848 20.8901C192.168 21.3621 191.824 21.9621 191.824 22.6821C191.824 23.3221 192.048 23.8261 192.504 24.1941C192.96 24.5621 193.696 24.8741 194.728 25.1221L197.232 25.7381C198.736 26.1061 199.856 26.6741 200.592 27.4261C201.32 28.1781 201.688 29.1461 201.688 30.3221C201.688 31.2901 201.408 32.1541 200.856 32.9221C200.296 33.6821 199.52 34.2821 198.52 34.7141C197.52 35.1461 196.376 35.3621 195.104 35.3621C193.392 35.3621 191.968 34.9701 190.832 34.1861C189.696 33.4021 188.984 32.2981 188.696 30.8741L191.168 30.2581C191.64 32.1381 192.944 33.0741 195.064 33.0741C196.24 33.0741 197.192 32.8261 197.928 32.3141C198.656 31.8101 199.024 31.1861 199.024 30.4421C199.024 29.2661 198.192 28.4821 196.52 28.0901L193.704 27.4101C190.712 26.7061 189.216 25.1701 189.216 22.8021C189.216 21.8741 189.48 21.0421 190.024 20.2981C190.56 19.5541 191.296 18.9701 192.24 18.5461C193.176 18.1221 194.232 17.9141 195.408 17.9141C198.48 17.9141 200.48 19.2581 201.408 21.9381L199.056 22.5861C198.416 20.9781 197.2 20.1701 195.408 20.1701L195.416 20.1781Z" fill="#1A1A1A"/>
<path d="M207.624 34.3059C206.44 33.5939 205.528 32.5859 204.904 31.2739C204.272 29.9619 203.96 28.4499 203.96 26.7379C203.96 25.0259 204.272 23.4979 204.904 22.1619C205.536 20.8179 206.424 19.7779 207.568 19.0339C208.712 18.2899 210.04 17.9219 211.544 17.9219C212.824 17.9219 214.008 18.2019 215.104 18.7699C216.2 19.3379 217.088 20.2499 217.784 21.5059C218.472 22.7619 218.824 24.3859 218.824 26.3619V27.4739H206.576C206.64 29.2499 207.136 30.6179 208.08 31.5859C209.024 32.5539 210.272 33.0419 211.84 33.0419C212.936 33.0419 213.864 32.8019 214.624 32.3299C215.384 31.8579 215.968 31.1939 216.36 30.3539L218.528 31.4019C217.952 32.6179 217.096 33.5859 215.96 34.2979C214.824 35.0099 213.456 35.3619 211.848 35.3619C210.24 35.3619 208.84 35.0019 207.656 34.2979L207.624 34.3059ZM214.872 21.6659C214.024 20.7379 212.912 20.2739 211.528 20.2739C210.576 20.2739 209.736 20.4979 208.992 20.9539C208.248 21.4099 207.672 22.0099 207.256 22.7619C206.84 23.5139 206.608 24.3379 206.544 25.2179H216.136C216.136 23.7779 215.712 22.5859 214.864 21.6579L214.872 21.6659Z" fill="#1A1A1A"/>
</svg>
