<svg width="500" height="96" viewBox="0 0 500 96" fill="none" xmlns="http://www.w3.org/2000/svg">
<path d="M24.4844 0.972656H0.113281V81.3335H24.4844V0.972656Z" fill="#FE2E36"/>
<path d="M82.8744 0.984375H56.3685L31.3516 41.1562L56.3595 81.3452H82.8655L57.8575 41.1648L82.8744 0.984375Z" fill="#FE2E36"/>
<mask id="mask0_2831_6548" style="mask-type:luminance" maskUnits="userSpaceOnUse" x="31" y="0" width="52" height="42">
<path d="M31.3516 41.1562L57.8575 41.1648L82.8744 0.984375H56.3685L31.3516 41.1562Z" fill="white"/>
</mask>
<g mask="url(#mask0_2831_6548)">
<path d="M53.136 -23.3404L10.6367 24.2344L61.1066 65.5924L103.606 18.0176L53.136 -23.3404Z" fill="url(#paint0_linear_2831_6548)"/>
</g>
<path d="M107.094 26.3789H117.005V35.7947H107.094V26.3789ZM116.844 81.336H107.264V41.1469H116.844V81.336Z" fill="#FE2E36"/>
<path d="M125.582 41.167H135.162V45.4539C137.566 42.7735 141.315 40.4023 146.751 40.4023C155.541 40.4023 160.816 46.2185 160.816 54.8697V81.3474H151.227V57.5501C151.227 52.5673 149.155 48.9762 143.872 48.9762C139.557 48.9762 135.162 52.0346 135.162 57.7735V81.3474H125.582V41.1584V41.167Z" fill="#FE2E36"/>
<path d="M170.093 48.9712H164.254V41.1619H170.093V29.375H179.521V41.1619H188.311V48.9712H179.521V69.796C179.521 73.3956 181.682 73.7736 185.118 73.7736C186.714 73.7736 187.593 73.6963 189.029 73.5417V81.2736C187.271 81.5829 184.876 81.8063 182.4 81.8063C174.408 81.8063 170.093 79.4351 170.093 71.2393V48.9626V48.9712Z" fill="#FE2E36"/>
<path d="M191.848 61.2958C191.848 49.5089 200.163 40.4023 211.833 40.4023C223.502 40.4023 230.445 49.1996 230.445 60.2219V63.2889H201.042C201.759 70.179 206.074 74.38 212.227 74.38C216.945 74.38 220.704 72.0862 221.977 67.9539L230.212 70.9436C227.261 77.9882 220.632 82.1893 212.236 82.1893C200.252 82.1893 191.857 73.6927 191.857 61.2958M201.517 56.3989H220.775C220.695 51.9659 217.824 48.1343 211.743 48.1343C206.791 48.1343 202.961 50.9608 201.517 56.3989Z" fill="#FE2E36"/>
<path d="M245.892 26.3789H236.312V81.336H245.892V26.3789Z" fill="#FE2E36"/>
<path d="M264.197 26.3789H254.617V81.336H264.197V26.3789Z" fill="#FE2E36"/>
<path d="M272.762 26.3789H282.673V35.7947H272.762V26.3789ZM282.512 81.336H272.932V41.1469H282.512V81.336Z" fill="#FE2E36"/>
<path d="M308.097 95.9607C298.427 95.9607 291.637 92.0518 289 84.2511L297.943 81.1841C299.226 85.703 302.814 88.5295 308.097 88.5295C314.573 88.5295 318.959 85.471 318.959 78.1257V75.2992C316.726 78.1257 312.492 80.3508 307.137 80.3508C295.629 80.3508 288.758 71.3989 288.758 60.3766C288.758 49.3542 295.629 40.4023 307.137 40.4023C312.411 40.4023 316.726 42.6188 318.959 45.4539V41.1669H328.548V77.2924C328.548 89.1566 320.072 95.9693 308.088 95.9693M308.976 48.4264C302.347 48.4264 298.427 52.8594 298.427 60.368C298.427 67.8766 302.347 72.3096 308.976 72.3096C314.968 72.3096 319.13 68.0999 319.13 60.9092V59.99C319.13 52.6446 314.977 48.4264 308.976 48.4264Z" fill="#FE2E36"/>
<path d="M334.719 61.2958C334.719 49.5089 343.034 40.4023 354.704 40.4023C366.373 40.4023 373.316 49.1996 373.316 60.2219V63.2889H343.913C344.63 70.179 348.945 74.38 355.098 74.38C359.816 74.38 363.575 72.0862 364.848 67.9539L373.083 70.9436C370.132 77.9882 363.503 82.1893 355.107 82.1893C343.123 82.1893 334.728 73.6927 334.728 61.2958M344.388 56.3989H363.647C363.566 51.9659 360.695 48.1343 354.614 48.1343C349.663 48.1343 345.832 50.9608 344.388 56.3989Z" fill="#FE2E36"/>
<path d="M379.184 41.167H388.763V45.4539C391.167 42.7735 394.917 40.4023 400.352 40.4023C409.143 40.4023 414.417 46.2185 414.417 54.8697V81.3474H404.828V57.5501C404.828 52.5673 402.756 48.9762 397.473 48.9762C393.159 48.9762 388.763 52.0346 388.763 57.7735V81.3474H379.184V41.1584V41.167Z" fill="#FE2E36"/>
<path d="M440.825 74.234C445.938 74.234 449.059 71.0209 450.252 66.5793L458.486 70.557C456.334 77.0604 449.938 82.1893 440.825 82.1893C428.841 82.1893 420.203 73.6927 420.203 61.2958C420.203 48.8989 428.841 40.4023 440.825 40.4023C449.857 40.4023 456.092 45.2992 458.325 51.7254L450.252 55.935C449.059 51.5707 445.938 48.2804 440.825 48.2804C434.268 48.2804 429.792 53.0999 429.792 61.2958C429.792 69.4917 434.268 74.234 440.825 74.234Z" fill="#FE2E36"/>
<path d="M460.336 61.2958C460.336 49.5089 468.651 40.4023 480.321 40.4023C491.99 40.4023 498.933 49.1996 498.933 60.2219V63.2889H469.53C470.248 70.179 474.562 74.38 480.715 74.38C485.434 74.38 489.192 72.0862 490.466 67.9539L498.7 70.9436C495.749 77.9882 489.111 82.1893 480.724 82.1893C468.741 82.1893 460.345 73.6927 460.345 61.2958M470.005 56.3989H489.264C489.183 51.9659 486.313 48.1343 480.231 48.1343C475.28 48.1343 471.45 50.9608 470.005 56.3989Z" fill="#FE2E36"/>
<defs>
<linearGradient id="paint0_linear_2831_6548" x1="13.9252" y1="66.9766" x2="66.7221" y2="2.54772" gradientUnits="userSpaceOnUse">
<stop stop-color="white"/>
<stop offset="1" stop-color="#FE2E36"/>
</linearGradient>
</defs>
</svg>
