<svg width="699" height="133" viewBox="0 0 699 133" fill="none" xmlns="http://www.w3.org/2000/svg">
<path d="M34.1195 0H0V112.505H34.1195V0Z" fill="#FE2E36"/>
<path d="M115.865 0.015625H78.7571L43.7334 56.2562L78.7446 112.521H115.853L80.8417 56.2682L115.865 0.015625Z" fill="#FE2E36"/>
<mask id="mask0_3564_20423" style="mask-type:luminance" maskUnits="userSpaceOnUse" x="43" y="0" width="73" height="57">
<path d="M43.7334 56.2562L80.8417 56.2682L115.865 0.015625H78.7571L43.7334 56.2562Z" fill="white"/>
</mask>
<g mask="url(#mask0_3564_20423)">
<path d="M74.2314 -34.0344L14.7324 32.5703L85.3902 90.4716L144.889 23.8669L74.2314 -34.0344Z" fill="url(#paint0_linear_3564_20423)"/>
</g>
<path d="M149.772 35.5703H163.649V48.7524H149.772V35.5703ZM163.423 112.51H150.011V56.2456H163.423V112.51Z" fill="#FE2E36"/>
<path d="M175.656 56.2736H189.068V62.2753C192.433 58.5227 197.683 55.2031 205.293 55.2031C217.599 55.2031 224.983 63.3457 224.983 75.4574V112.526H211.559V79.21C211.559 72.2341 208.658 67.2066 201.262 67.2066C195.221 67.2066 189.068 71.4883 189.068 79.5227V112.526H175.656V56.2615V56.2736Z" fill="#FE2E36"/>
<path d="M237.972 67.2003H229.797V56.2673H237.972V39.7656H251.17V56.2673H263.477V67.2003H251.17V96.355C251.17 101.395 254.197 101.924 259.006 101.924C261.242 101.924 262.472 101.815 264.482 101.599V112.424C262.02 112.857 258.667 113.169 255.201 113.169C244.012 113.169 237.972 109.85 237.972 98.3756V67.1883V67.2003Z" fill="#FE2E36"/>
<path d="M268.428 84.454C268.428 67.9523 280.069 55.2031 296.407 55.2031C312.745 55.2031 322.464 67.5193 322.464 82.9506V87.2444H281.3C282.305 96.8904 288.345 102.772 296.96 102.772C303.565 102.772 308.827 99.5605 310.61 93.7753L322.138 97.9608C318.006 107.823 308.726 113.705 296.972 113.705C280.195 113.705 268.441 101.81 268.441 84.454M281.966 77.5983H308.927C308.814 71.3921 304.796 66.0279 296.281 66.0279C289.35 66.0279 283.987 69.9849 281.966 77.5983Z" fill="#FE2E36"/>
<path d="M344.09 35.5703H330.679V112.51H344.09V35.5703Z" fill="#FE2E36"/>
<path d="M369.717 35.5703H356.306V112.51H369.717V35.5703Z" fill="#FE2E36"/>
<path d="M381.708 35.5703H395.584V48.7524H381.708V35.5703ZM395.358 112.51H381.947V56.2456H395.358V112.51Z" fill="#FE2E36"/>
<path d="M431.177 132.985C417.64 132.985 408.134 127.512 404.442 116.591L416.962 112.298C418.757 118.624 423.781 122.581 431.177 122.581C440.244 122.581 446.385 118.299 446.385 108.016V104.059C443.258 108.016 437.33 111.131 429.833 111.131C413.722 111.131 404.103 98.5983 404.103 83.167C404.103 67.7358 413.722 55.2031 429.833 55.2031C437.217 55.2031 443.258 58.3062 446.385 62.2753V56.2736H459.809V106.849C459.809 123.459 447.942 132.997 431.165 132.997M432.408 66.4368C423.128 66.4368 417.64 72.643 417.64 83.155C417.64 93.667 423.128 99.8732 432.408 99.8732C440.796 99.8732 446.623 93.9797 446.623 83.9127V82.6258C446.623 72.3423 440.809 66.4368 432.408 66.4368Z" fill="#FE2E36"/>
<path d="M468.448 84.454C468.448 67.9523 480.089 55.2031 496.426 55.2031C512.764 55.2031 522.484 67.5193 522.484 82.9506V87.2444H481.319C482.324 96.8904 488.364 102.772 496.979 102.772C503.584 102.772 508.846 99.5605 510.629 93.7753L522.157 97.9608C518.026 107.823 508.746 113.705 496.992 113.705C480.214 113.705 468.46 101.81 468.46 84.454M481.985 77.5983H508.947C508.834 71.3921 504.815 66.0279 496.301 66.0279C489.369 66.0279 484.007 69.9849 481.985 77.5983Z" fill="#FE2E36"/>
<path d="M530.698 56.2736H544.11V62.2753C547.475 58.5227 552.725 55.2031 560.335 55.2031C572.641 55.2031 580.025 63.3457 580.025 75.4574V112.526H566.601V79.21C566.601 72.2341 563.7 67.2066 556.304 67.2066C550.263 67.2066 544.11 71.4883 544.11 79.5227V112.526H530.698V56.2615V56.2736Z" fill="#FE2E36"/>
<path d="M616.996 102.567C624.154 102.567 628.524 98.0691 630.195 91.8509L641.723 97.4197C638.709 106.524 629.755 113.705 616.996 113.705C600.219 113.705 588.126 101.81 588.126 84.454C588.126 67.0983 600.219 55.2031 616.996 55.2031C629.642 55.2031 638.37 62.0588 641.497 71.0553L630.195 76.9488C628.524 70.8389 624.154 66.2323 616.996 66.2323C607.817 66.2323 601.55 72.9798 601.55 84.454C601.55 95.9282 607.817 102.567 616.996 102.567Z" fill="#FE2E36"/>
<path d="M644.312 84.454C644.312 67.9523 655.952 55.2031 672.29 55.2031C688.628 55.2031 698.348 67.5193 698.348 82.9506V87.2444H657.183C658.188 96.8904 664.228 102.772 672.843 102.772C679.448 102.772 684.71 99.5605 686.493 93.7753L698.021 97.9608C693.89 107.823 684.597 113.705 672.855 113.705C656.078 113.705 644.324 101.81 644.324 84.454M657.849 77.5983H684.81C684.697 71.3921 680.679 66.0279 672.165 66.0279C665.233 66.0279 659.871 69.9849 657.849 77.5983Z" fill="#FE2E36"/>
<defs>
<linearGradient id="paint0_linear_3564_20423" x1="19.3364" y1="92.4094" x2="93.2519" y2="2.20899" gradientUnits="userSpaceOnUse">
<stop stop-color="white"/>
<stop offset="1" stop-color="#FE2E36"/>
</linearGradient>
</defs>
</svg>
