<svg width="207" height="252" viewBox="0 0 207 252" fill="none" xmlns="http://www.w3.org/2000/svg">
<path d="M161.992 0.449219L206.333 26.0492L44.4344 119.521L0.0939371 93.9212L161.992 0.449219Z" fill="url(#paint0_linear_1187_6262)"/>
<path d="M0.0800781 93.9141L44.4238 119.516V251.732L0.0800781 226.131V93.9141Z" fill="url(#paint1_linear_1187_6262)"/>
<path d="M44.4238 119.512L206.329 26.0357V158.259L44.4238 251.735V119.512Z" fill="url(#paint2_linear_1187_6262)"/>
<path d="M80.8818 78.9673L70.1052 72.7454L72.3379 71.4564L77.1159 74.215L77.2648 74.129L76.4015 69.1103L79.0956 67.5548L79.8994 72.6595L89.9169 73.7509L87.2376 75.2978L79.7952 74.4556L80.0334 75.8993L83.1145 77.6783L80.8818 78.9673ZM83.1151 65.2342L85.8837 63.6357L96.184 66.1279L96.3031 66.0592L91.9865 60.1123L94.755 58.5138L105.532 64.7357L103.358 65.9904L96.3031 61.917L96.2137 61.9685L100.411 67.6404L98.9228 68.4998L89.069 66.0592L88.9797 66.1107L96.0649 70.2013L93.8917 71.456L83.1151 65.2342ZM110.794 61.8867C108.353 63.2961 105.152 63.2016 102.652 61.7578C100.151 60.3141 100.002 58.475 102.443 57.0656C104.884 55.6562 108.085 55.7336 110.585 57.1773C113.086 58.6211 113.235 60.4773 110.794 61.8867ZM109.097 60.8898C110.228 60.2367 109.752 59.2914 108.338 58.475C106.909 57.65 105.271 57.375 104.14 58.0281C102.994 58.6898 103.456 59.6437 104.884 60.4687C106.299 61.2852 107.951 61.5516 109.097 60.8898ZM118.795 57.233C116.949 58.2987 114.031 58.2815 111.337 56.726C108.569 55.1276 108.688 53.4604 110.474 52.4291C111.829 51.6471 113.272 51.7416 114.225 51.9479L114.299 51.9049L110.251 49.5674L112.454 48.2955L123.23 54.5174L121.057 55.7721L119.762 55.0244L119.658 55.0846C120.015 55.6518 120.104 56.4768 118.795 57.233ZM117.723 55.8237C118.824 55.1877 118.482 54.2682 117.023 53.426C115.565 52.5838 114.017 52.4119 112.915 53.0479C111.799 53.6924 112.171 54.5948 113.585 55.4112C115.014 56.2362 116.607 56.4682 117.723 55.8237ZM128.522 51.6512C126.051 53.0778 122.925 53.0262 120.365 51.5481C117.865 50.1043 117.716 48.2481 120.082 46.8817C122.211 45.6528 125.218 45.4637 127.971 47.0536L128.597 47.4145L123.074 50.6028C124.295 51.3075 125.783 51.3247 126.915 50.6715C127.659 50.2418 127.867 49.7434 127.599 49.3309L129.698 48.1192C130.874 49.159 130.517 50.4997 128.522 51.6512ZM121.69 49.8036L125.128 47.8184C124.146 47.2512 122.762 47.2426 121.779 47.8098C120.767 48.3942 120.797 49.245 121.69 49.8036ZM124.571 41.2999L135.347 47.5217L133.144 48.7936L122.368 42.5717L124.571 41.2999Z" fill="white"/>
<defs>
<linearGradient id="paint0_linear_1187_6262" x1="296.5" y1="-105.003" x2="327.327" y2="-49.4577" gradientUnits="userSpaceOnUse">
<stop stop-color="#FF5454"/>
<stop offset="1" stop-color="#FF3A3A"/>
</linearGradient>
<linearGradient id="paint1_linear_1187_6262" x1="57.502" y1="125.498" x2="-39.4875" y2="107.836" gradientUnits="userSpaceOnUse">
<stop stop-color="#EE2826"/>
<stop offset="1" stop-color="#E23629"/>
</linearGradient>
<linearGradient id="paint2_linear_1187_6262" x1="29.2319" y1="229.182" x2="71.2981" y2="307.541" gradientUnits="userSpaceOnUse">
<stop stop-color="#C01919"/>
<stop offset="1" stop-color="#FD2A2A" stop-opacity="0.98"/>
</linearGradient>
</defs>
</svg>
