<svg width="207" height="252" viewBox="0 0 207 252" fill="none" xmlns="http://www.w3.org/2000/svg">
<path d="M162 0.0273438L206.341 25.6273L44.4423 119.099L0.10175 93.4993L162 0.0273438Z" fill="url(#paint0_linear_1170_1400)"/>
<path d="M0.0878906 93.4922L44.4316 119.094V251.311L0.0878906 225.709V93.4922Z" fill="#F72422"/>
<path d="M44.4316 119.09L206.337 25.6138V157.837L44.4316 251.313V119.09Z" fill="url(#paint1_linear_1170_1400)"/>
<path d="M70.5402 84.5205L59.7636 78.2986L61.9963 77.0096L66.7744 79.7682L66.9232 79.6822L66.0599 74.6635L68.754 73.108L69.5578 78.2127L79.5753 79.3041L76.896 80.851L69.4536 80.0088L69.6918 81.4525L72.7729 83.2314L70.5402 84.5205ZM87.3011 75.0327C84.86 76.442 81.6598 76.3475 79.1591 74.9038C76.6585 73.46 76.5096 71.6209 78.9507 70.2116C81.3918 68.8022 84.5921 68.8795 87.0927 70.3233C89.5934 71.767 89.7422 73.6233 87.3011 75.0327ZM85.6042 74.0358C86.7355 73.3827 86.2592 72.4373 84.8451 71.6209C83.4162 70.7959 81.7789 70.5209 80.6476 71.1741C79.5015 71.8358 79.9629 72.7897 81.3918 73.6147C82.8059 74.4311 84.4581 74.6975 85.6042 74.0358ZM89.7202 68.0501L94.394 70.7485L92.1911 72.0204L84.1086 67.354L86.2074 66.1423L87.6214 66.9587L87.7107 66.9071C87.1451 66.1508 87.4279 65.3173 88.6187 64.6298C90.3007 63.6587 92.5632 63.6758 94.4387 64.7758L99.5888 67.7493L97.4008 69.0126L92.6376 66.2626C91.6403 65.6868 90.4942 65.661 89.5862 66.1852C88.6634 66.718 88.6485 67.4313 89.7202 68.0501ZM93.4718 58.8372L96.2403 57.2388L106.541 59.731L106.66 59.6622L102.343 53.7153L105.112 52.1169L115.888 58.3388L113.715 59.5935L106.66 55.52L106.57 55.5716L110.768 61.2435L109.279 62.1028L99.4257 59.6622L99.3364 59.7138L106.422 63.8044L104.248 65.0591L93.4718 58.8372ZM121.15 55.4898C118.709 56.8992 115.509 56.8046 113.008 55.3609C110.508 53.9171 110.359 52.0781 112.8 50.6687C115.241 49.2593 118.441 49.3367 120.942 50.7804C123.443 52.2242 123.591 54.0804 121.15 55.4898ZM119.454 54.4929C120.585 53.8398 120.108 52.8945 118.694 52.0781C117.265 51.2531 115.628 50.9781 114.497 51.6312C113.351 52.2929 113.812 53.2468 115.241 54.0718C116.655 54.8882 118.307 55.1546 119.454 54.4929ZM129.151 50.8361C127.306 51.9017 124.388 51.8845 121.694 50.3291C118.925 48.7306 119.044 47.0634 120.831 46.0322C122.185 45.2502 123.629 45.3447 124.582 45.5509L124.656 45.508L120.607 43.1705L122.81 41.8986L133.587 48.1205L131.414 49.3752L130.119 48.6275L130.015 48.6877C130.372 49.2548 130.461 50.0798 129.151 50.8361ZM128.08 49.4267C129.181 48.7908 128.839 47.8712 127.38 47.0291C125.921 46.1869 124.373 46.015 123.272 46.6509C122.155 47.2955 122.528 48.1978 123.942 49.0142C125.371 49.8392 126.963 50.0712 128.08 49.4267ZM138.879 45.2543C136.408 46.6808 133.282 46.6293 130.722 45.1512C128.221 43.7074 128.072 41.8512 130.439 40.4848C132.568 39.2558 135.574 39.0668 138.328 40.6566L138.953 41.0176L133.431 44.2058C134.651 44.9105 136.14 44.9277 137.271 44.2746C138.015 43.8449 138.224 43.3465 137.956 42.934L140.055 41.7223C141.231 42.7621 140.873 44.1027 138.879 45.2543ZM132.047 43.4066L135.485 41.4215C134.503 40.8543 133.118 40.8457 132.136 41.4129C131.124 41.9973 131.154 42.848 132.047 43.4066ZM134.927 34.9029L145.704 41.1248L143.501 42.3967L132.724 36.1748L134.927 34.9029Z" fill="white"/>
<defs>
<linearGradient id="paint0_linear_1170_1400" x1="119.874" y1="3.74359" x2="127.392" y2="120.599" gradientUnits="userSpaceOnUse">
<stop stop-color="#FF4A4A"/>
<stop offset="1" stop-color="#EC0C0C"/>
</linearGradient>
<linearGradient id="paint1_linear_1170_1400" x1="-6.76719" y1="161.918" x2="31.3868" y2="261.195" gradientUnits="userSpaceOnUse">
<stop stop-color="#E31313"/>
<stop offset="1" stop-color="#FF4A4A" stop-opacity="0.98"/>
</linearGradient>
</defs>
</svg>
