<svg width="207" height="252" viewBox="0 0 207 252" fill="none" xmlns="http://www.w3.org/2000/svg">
<rect width="51.2" height="186.944" transform="matrix(0.866025 0.5 -0.866025 0.5 161.914 0)" fill="white"/>
<path d="M0 93.4648L44.3438 119.067V251.283L0 225.681V93.4648Z" fill="url(#paint0_linear_1187_5336)"/>
<rect width="186.952" height="132.223" transform="matrix(0.866025 -0.5 0 1 44.3438 119.062)" fill="url(#paint1_linear_1187_5336)"/>
<path d="M80.8037 78.5181L70.0271 72.2962L72.2598 71.0072L77.0378 73.7658L77.1867 73.6798L76.3233 68.6611L79.0175 67.1056L79.8213 72.2103L89.8388 73.3017L87.1595 74.8486L79.7171 74.0064L79.9552 75.4501L83.0364 77.229L80.8037 78.5181ZM83.037 64.7849L85.8056 63.1865L96.1059 65.6787L96.2249 65.6099L91.9083 59.6631L94.6769 58.0646L105.454 64.2865L103.28 65.5412L96.2249 61.4677L96.1356 61.5193L100.333 67.1912L98.8447 68.0506L88.9909 65.6099L88.9016 65.6615L95.9868 69.7521L93.8136 71.0068L83.037 64.7849ZM110.716 61.4375C108.274 62.8469 105.074 62.7523 102.574 61.3086C100.073 59.8648 99.9241 58.0258 102.365 56.6164C104.806 55.207 108.007 55.2844 110.507 56.7281C113.008 58.1719 113.157 60.0281 110.716 61.4375ZM109.019 60.4406C110.15 59.7875 109.674 58.8422 108.26 58.0258C106.831 57.2008 105.193 56.9258 104.062 57.5789C102.916 58.2406 103.377 59.1945 104.806 60.0195C106.22 60.8359 107.873 61.1023 109.019 60.4406ZM118.716 56.7838C116.871 57.8494 113.953 57.8323 111.259 56.2768C108.491 54.6783 108.61 53.0112 110.396 51.9799C111.75 51.1979 113.194 51.2924 114.147 51.4987L114.221 51.4557L110.173 49.1182L112.376 47.8463L123.152 54.0682L120.979 55.3229L119.684 54.5752L119.58 54.6354C119.937 55.2026 120.026 56.0276 118.716 56.7838ZM117.645 55.3744C118.746 54.7385 118.404 53.819 116.945 52.9768C115.486 52.1346 113.938 51.9627 112.837 52.5987C111.721 53.2432 112.093 54.1455 113.507 54.9619C114.936 55.7869 116.528 56.019 117.645 55.3744ZM128.444 51.202C125.973 52.6286 122.847 52.577 120.287 51.0989C117.786 49.6551 117.638 47.7989 120.004 46.4325C122.133 45.2036 125.14 45.0145 127.893 46.6043L128.518 46.9653L122.996 50.1536C124.217 50.8582 125.705 50.8754 126.836 50.2223C127.581 49.7926 127.789 49.2942 127.521 48.8817L129.62 47.67C130.796 48.7098 130.439 50.0504 128.444 51.202ZM121.612 49.3543L125.05 47.3692C124.068 46.802 122.684 46.7934 121.701 47.3606C120.689 47.945 120.719 48.7957 121.612 49.3543ZM124.492 40.8507L135.269 47.0725L133.066 48.3444L122.289 42.1225L124.492 40.8507Z" fill="black"/>
<defs>
<linearGradient id="paint0_linear_1187_5336" x1="43.9825" y1="121.944" x2="-0.737602" y2="119.917" gradientUnits="userSpaceOnUse">
<stop stop-color="#D8D8DA"/>
<stop offset="1" stop-color="#E9E9E9"/>
</linearGradient>
<linearGradient id="paint1_linear_1187_5336" x1="81.4214" y1="48.8275" x2="110.774" y2="125.897" gradientUnits="userSpaceOnUse">
<stop stop-color="#BABABA"/>
<stop offset="1" stop-color="#CCCCCC"/>
</linearGradient>
</defs>
</svg>
