<svg width="207" height="252" viewBox="0 0 207 252" fill="none" xmlns="http://www.w3.org/2000/svg">
<path d="M162.004 0.0292969L206.344 25.6293L44.4462 119.101L0.105656 93.5013L162.004 0.0292969Z" fill="url(#paint0_linear_1184_2961)"/>
<path d="M0.0898438 93.4941L44.4336 119.096V251.313L0.0898438 225.711V93.4941Z" fill="#F72422"/>
<path d="M44.4336 119.094L206.339 25.6178V157.841L44.4336 251.317V119.094Z" fill="url(#paint1_linear_1184_2961)"/>
<path d="M80.8896 78.5454L70.113 72.3236L72.3457 71.0345L77.1238 73.7931L77.2726 73.7072L76.4093 68.6884L79.1034 67.1329L79.9072 72.2376L89.9247 73.329L87.2454 74.8759L79.803 74.0337L80.0412 75.4775L83.1223 77.2564L80.8896 78.5454ZM83.1229 64.8123L85.8915 63.2138L96.1918 65.706L96.3109 65.6373L91.9943 59.6904L94.7629 58.092L105.539 64.3138L103.366 65.5685L96.3109 61.4951L96.2216 61.5467L100.419 67.2185L98.9306 68.0779L89.0769 65.6373L88.9875 65.6888L96.0727 69.7795L93.8995 71.0342L83.1229 64.8123ZM110.802 61.4648C108.36 62.8742 105.16 62.7797 102.66 61.3359C100.159 59.8922 100.01 58.0531 102.451 56.6437C104.892 55.2344 108.092 55.3117 110.593 56.7555C113.094 58.1992 113.243 60.0555 110.802 61.4648ZM109.105 60.468C110.236 59.8148 109.76 58.8695 108.346 58.0531C106.917 57.2281 105.279 56.9531 104.148 57.6062C103.002 58.268 103.463 59.2219 104.892 60.0469C106.306 60.8633 107.959 61.1297 109.105 60.468ZM118.802 56.8112C116.957 57.8768 114.039 57.8596 111.345 56.3041C108.577 54.7057 108.696 53.0385 110.482 52.0073C111.836 51.2252 113.28 51.3198 114.233 51.526L114.307 51.483L110.259 49.1455L112.461 47.8737L123.238 54.0955L121.065 55.3502L119.77 54.6026L119.666 54.6627C120.023 55.2299 120.112 56.0549 118.802 56.8112ZM117.731 55.4018C118.832 54.7658 118.49 53.8463 117.031 53.0041C115.572 52.1619 114.024 51.9901 112.923 52.626C111.807 53.2705 112.179 54.1729 113.593 54.9893C115.022 55.8143 116.614 56.0463 117.731 55.4018ZM128.53 51.2293C126.059 52.6559 122.933 52.6043 120.373 51.1262C117.872 49.6825 117.724 47.8262 120.09 46.4598C122.219 45.2309 125.226 45.0418 127.979 46.6317L128.604 46.9926L123.082 50.1809C124.303 50.8856 125.791 50.9028 126.922 50.2497C127.667 49.82 127.875 49.3215 127.607 48.909L129.706 47.6973C130.882 48.7372 130.525 50.0778 128.53 51.2293ZM121.698 49.3817L125.136 47.3965C124.154 46.8293 122.77 46.8207 121.787 47.3879C120.775 47.9723 120.805 48.8231 121.698 49.3817ZM124.578 40.878L135.355 47.0999L133.152 48.3717L122.375 42.1499L124.578 40.878Z" fill="white"/>
<defs>
<linearGradient id="paint0_linear_1184_2961" x1="119.877" y1="3.74554" x2="127.396" y2="120.601" gradientUnits="userSpaceOnUse">
<stop stop-color="#FF4A4A"/>
<stop offset="1" stop-color="#EC0C0C"/>
</linearGradient>
<linearGradient id="paint1_linear_1184_2961" x1="-6.76524" y1="161.922" x2="31.3887" y2="261.199" gradientUnits="userSpaceOnUse">
<stop stop-color="#E31313"/>
<stop offset="1" stop-color="#FF4A4A" stop-opacity="0.98"/>
</linearGradient>
</defs>
</svg>
