<svg width="208" height="253" viewBox="0 0 208 253" fill="none" xmlns="http://www.w3.org/2000/svg">
<rect width="51.2" height="186.944" transform="matrix(0.866025 0.5 -0.866025 0.5 162.855 0.969238)" fill="white"/>
<path d="M0.943359 94.4333L45.2871 120.035V252.252L0.943359 226.65V94.4333Z" fill="url(#paint0_linear_174_2718)"/>
<rect width="186.952" height="132.223" transform="matrix(0.866025 -0.5 0 1 45.2871 120.033)" fill="url(#paint1_linear_174_2718)"/>
<path d="M71.3957 85.4609L60.6191 79.2391L62.8518 77.95L67.6298 80.7086L67.7787 80.6226L66.9154 75.6039L69.6095 74.0484L70.4133 79.1531L80.4308 80.2445L77.7515 81.7914L70.3091 80.9492L70.5473 82.393L73.6284 84.1719L71.3957 85.4609ZM88.1566 75.9731C85.7155 77.3825 82.5152 77.2879 80.0146 75.8442C77.5139 74.4004 77.3651 72.5614 79.8062 71.152C82.2473 69.7426 85.4476 69.82 87.9482 71.2637C90.4488 72.7075 90.5977 74.5637 88.1566 75.9731ZM86.4597 74.9762C87.591 74.3231 87.1146 73.3778 85.7006 72.5614C84.2717 71.7364 82.6343 71.4614 81.5031 72.1145C80.3569 72.7762 80.8184 73.7301 82.2473 74.5551C83.6614 75.3715 85.3136 75.6379 86.4597 74.9762ZM90.5757 68.9905L95.2495 71.6889L93.0465 72.9608L84.9641 68.2944L87.0629 67.0827L88.4769 67.8991L88.5662 67.8475C88.0006 67.0913 88.2834 66.2577 89.4742 65.5702C91.1562 64.5991 93.4187 64.6163 95.2942 65.7163L100.444 68.6897L98.2562 69.953L93.4931 67.203C92.4958 66.6272 91.3497 66.6014 90.4417 67.1256C89.5188 67.6585 89.504 68.3717 90.5757 68.9905ZM94.3272 59.7776L97.0958 58.1792L107.396 60.6714L107.515 60.6026L103.199 54.6558L105.967 53.0573L116.744 59.2792L114.571 60.5339L107.515 56.4605L107.426 56.512L111.623 62.1839L110.135 63.0433L100.281 60.6026L100.192 60.6542L107.277 64.7448L105.104 65.9995L94.3272 59.7776ZM122.006 56.4302C119.565 57.8396 116.364 57.7451 113.864 56.3013C111.363 54.8576 111.214 53.0185 113.655 51.6091C116.097 50.1997 119.297 50.2771 121.797 51.7208C124.298 53.1646 124.447 55.0208 122.006 56.4302ZM120.309 55.4333C121.44 54.7802 120.964 53.8349 119.55 53.0185C118.121 52.1935 116.484 51.9185 115.352 52.5716C114.206 53.2333 114.668 54.1872 116.097 55.0122C117.511 55.8286 119.163 56.0951 120.309 55.4333ZM130.007 51.7765C128.161 52.8421 125.244 52.825 122.549 51.2695C119.781 49.6711 119.9 48.0039 121.686 46.9726C123.041 46.1906 124.484 46.2851 125.437 46.4914L125.512 46.4484L121.463 44.1109L123.666 42.839L134.442 49.0609L132.269 50.3156L130.974 49.5679L130.87 49.6281C131.227 50.1953 131.317 51.0203 130.007 51.7765ZM128.935 50.3671C130.036 49.7312 129.694 48.8117 128.235 47.9695C126.777 47.1273 125.229 46.9554 124.127 47.5914C123.011 48.2359 123.383 49.1382 124.797 49.9546C126.226 50.7796 127.819 51.0117 128.935 50.3671ZM139.734 46.1947C137.263 47.6213 134.138 47.5697 131.577 46.0916C129.077 44.6478 128.928 42.7916 131.295 41.4252C133.423 40.1963 136.43 40.0072 139.184 41.5971L139.809 41.958L134.286 45.1463C135.507 45.851 136.995 45.8681 138.127 45.215C138.871 44.7853 139.079 44.2869 138.811 43.8744L140.91 42.6627C142.086 43.7025 141.729 45.0431 139.734 46.1947ZM132.902 44.3471L136.341 42.3619C135.358 41.7947 133.974 41.7861 132.991 42.3533C131.979 42.9377 132.009 43.7885 132.902 44.3471ZM135.783 35.8434L146.559 42.0652L144.356 43.3371L133.58 37.1152L135.783 35.8434Z" fill="black"/>
<g clip-path="url(#clip0_174_2718)">
<path d="M75.1148 133.436C80.2804 130.454 84.4679 126.424 84.4679 124.436C84.4679 122.448 80.2804 123.254 75.1148 126.236C69.9492 129.219 65.7617 133.248 65.7617 135.236C65.7617 137.224 69.9492 136.419 75.1148 133.436Z" stroke="#DFDFDF" stroke-width="2.4" stroke-linecap="round" stroke-linejoin="round"/>
<path d="M65.7617 135.236V152.036C65.7617 152.991 66.7471 153.338 68.5012 153C70.2552 152.663 72.6342 151.668 75.1148 150.236C77.5954 148.804 79.9744 147.051 81.7284 145.364C83.4825 143.676 84.4679 142.191 84.4679 141.236V124.436" stroke="#DFDFDF" stroke-width="2.4" stroke-linecap="round" stroke-linejoin="round"/>
<path d="M65.7617 143.636C65.7617 144.591 66.7471 144.938 68.5012 144.6C70.2552 144.263 72.6342 143.268 75.1148 141.836C77.5954 140.404 79.9744 138.651 81.7284 136.963C83.4825 135.276 84.4679 133.791 84.4679 132.836" stroke="#DFDFDF" stroke-width="2.4" stroke-linecap="round" stroke-linejoin="round"/>
</g>
<g clip-path="url(#clip1_174_2718)">
<path d="M184.63 124.155L168.002 133.755C166.854 134.418 165.924 136.03 165.924 137.355V142.155C165.924 143.481 166.854 144.018 168.002 143.355L184.63 133.755C185.778 133.092 186.708 131.481 186.708 130.155V125.355C186.708 124.03 185.778 123.492 184.63 124.155Z" stroke="#DFDFDF" stroke-width="2.4" stroke-linecap="round" stroke-linejoin="round"/>
<path d="M184.63 138.557L168.002 148.157C166.854 148.819 165.924 150.431 165.924 151.757V156.557C165.924 157.882 166.854 158.419 168.002 157.757L184.63 148.157C185.778 147.494 186.708 145.882 186.708 144.557V139.757C186.708 138.431 185.778 137.894 184.63 138.557Z" stroke="#DFDFDF" stroke-width="2.4" stroke-linecap="round" stroke-linejoin="round"/>
<path d="M170.08 137.357L170.092 137.35" stroke="#DFDFDF" stroke-width="2.4" stroke-linecap="round" stroke-linejoin="round"/>
<path d="M170.08 151.757L170.092 151.75" stroke="#DFDFDF" stroke-width="2.4" stroke-linecap="round" stroke-linejoin="round"/>
</g>
<defs>
<linearGradient id="paint0_linear_174_2718" x1="44.9258" y1="122.912" x2="0.205757" y2="120.885" gradientUnits="userSpaceOnUse">
<stop stop-color="#D8D8DA"/>
<stop offset="1" stop-color="#E9E9E9"/>
</linearGradient>
<linearGradient id="paint1_linear_174_2718" x1="81.4214" y1="48.8275" x2="110.774" y2="125.897" gradientUnits="userSpaceOnUse">
<stop stop-color="#BABABA"/>
<stop offset="1" stop-color="#CCCCCC"/>
</linearGradient>
<clipPath id="clip0_174_2718">
<rect width="38.4" height="38.4" fill="white" transform="matrix(0.866025 -0.5 0 1 58.4863 128.636)"/>
</clipPath>
<clipPath id="clip1_174_2718">
<rect width="38.4" height="38.4" fill="white" transform="matrix(0.866025 -0.5 0 1 159.686 131.357)"/>
</clipPath>
</defs>
</svg>
