<svg width="207" height="252" viewBox="0 0 207 252" fill="none" xmlns="http://www.w3.org/2000/svg">
<path d="M161.998 0.027832L206.339 25.6278L44.4403 119.1L0.0997965 93.4998L161.998 0.027832Z" fill="url(#paint0_linear_174_3601)"/>
<path d="M0.0859375 93.4917L44.4297 119.094V251.31L0.0859375 225.708V93.4917Z" fill="#F72422"/>
<path d="M44.4297 119.092L206.335 25.6158V157.839L44.4297 251.315V119.092Z" fill="url(#paint1_linear_174_3601)"/>
<path d="M70.5383 84.5195L59.7617 78.2976L61.9944 77.0086L66.7724 79.7672L66.9213 79.6812L66.0579 74.6625L68.7521 73.107L69.5559 78.2117L79.5734 79.3031L76.8941 80.85L69.4517 80.0078L69.6898 81.4516L72.771 83.2305L70.5383 84.5195ZM87.2992 75.0317C84.8581 76.4411 81.6578 76.3465 79.1572 74.9028C76.6565 73.459 76.5077 71.62 78.9488 70.2106C81.3899 68.8012 84.5901 68.8786 87.0908 70.3223C89.5914 71.7661 89.7403 73.6223 87.2992 75.0317ZM85.6023 74.0348C86.7335 73.3817 86.2572 72.4364 84.8432 71.62C83.4142 70.795 81.7769 70.52 80.6457 71.1731C79.4995 71.8348 79.961 72.7887 81.3899 73.6137C82.804 74.4301 84.4562 74.6965 85.6023 74.0348ZM89.7182 68.0491L94.3921 70.7475L92.1891 72.0194L84.1067 67.353L86.2054 66.1413L87.6195 66.9577L87.7088 66.9061C87.1432 66.1499 87.426 65.3163 88.6168 64.6288C90.2988 63.6577 92.5612 63.6749 94.4367 64.7749L99.5869 67.7483L97.3988 69.0116L92.6357 66.2616C91.6384 65.6858 90.4923 65.66 89.5843 66.1842C88.6614 66.7171 88.6465 67.4303 89.7182 68.0491ZM93.4698 58.8362L96.2384 57.2378L106.539 59.73L106.658 59.6612L102.341 53.7144L105.11 52.1159L115.886 58.3378L113.713 59.5925L106.658 55.5191L106.568 55.5706L110.766 61.2425L109.277 62.1019L99.4237 59.6612L99.3344 59.7128L106.42 63.8034L104.246 65.0581L93.4698 58.8362ZM121.148 55.4888C118.707 56.8982 115.507 56.8036 113.006 55.3599C110.506 53.9161 110.357 52.0771 112.798 50.6677C115.239 49.2583 118.439 49.3357 120.94 50.7794C123.441 52.2232 123.59 54.0794 121.148 55.4888ZM119.452 54.4919C120.583 53.8388 120.106 52.8935 118.692 52.0771C117.263 51.2521 115.626 50.9771 114.495 51.6302C113.349 52.2919 113.81 53.2458 115.239 54.0708C116.653 54.8872 118.305 55.1536 119.452 54.4919ZM129.149 50.8351C127.304 51.9007 124.386 51.8836 121.692 50.3281C118.923 48.7296 119.043 47.0625 120.829 46.0312C122.183 45.2492 123.627 45.3437 124.58 45.55L124.654 45.507L120.605 43.1695L122.808 41.8976L133.585 48.1195L131.412 49.3742L130.117 48.6265L130.013 48.6867C130.37 49.2539 130.459 50.0789 129.149 50.8351ZM128.078 49.4257C129.179 48.7898 128.837 47.8703 127.378 47.0281C125.919 46.1859 124.371 46.014 123.27 46.65C122.153 47.2945 122.526 48.1968 123.94 49.0132C125.369 49.8382 126.961 50.0703 128.078 49.4257ZM138.877 45.2533C136.406 46.6799 133.28 46.6283 130.72 45.1502C128.219 43.7064 128.07 41.8502 130.437 40.4838C132.566 39.2549 135.572 39.0658 138.326 40.6556L138.951 41.0166L133.429 44.2049C134.65 44.9096 136.138 44.9267 137.269 44.2736C138.014 43.8439 138.222 43.3455 137.954 42.933L140.053 41.7213C141.229 42.7611 140.871 44.1017 138.877 45.2533ZM132.045 43.4056L135.483 41.4205C134.501 40.8533 133.116 40.8447 132.134 41.4119C131.122 41.9963 131.152 42.8471 132.045 43.4056ZM134.925 34.902L145.702 41.1238L143.499 42.3957L132.722 36.1738L134.925 34.902Z" fill="white"/>
<defs>
<linearGradient id="paint0_linear_174_3601" x1="119.872" y1="3.74408" x2="127.39" y2="120.599" gradientUnits="userSpaceOnUse">
<stop stop-color="#FF4A4A"/>
<stop offset="1" stop-color="#EC0C0C"/>
</linearGradient>
<linearGradient id="paint1_linear_174_3601" x1="-6.76914" y1="161.92" x2="31.3848" y2="261.197" gradientUnits="userSpaceOnUse">
<stop stop-color="#E31313"/>
<stop offset="1" stop-color="#FF4A4A" stop-opacity="0.98"/>
</linearGradient>
</defs>
</svg>
