<svg width="208" height="253" viewBox="0 0 208 253" fill="none" xmlns="http://www.w3.org/2000/svg">
<rect width="51.2" height="186.944" transform="matrix(0.866025 0.5 -0.866025 0.5 162.857 0.96875)" fill="white"/>
<path d="M0.945312 94.4336L45.2891 120.035V252.252L0.945312 226.65V94.4336Z" fill="url(#paint0_linear_1170_1199)"/>
<rect width="186.952" height="132.223" transform="matrix(0.866025 -0.5 0 1 45.2891 120.031)" fill="url(#paint1_linear_1170_1199)"/>
<path d="M71.3976 85.4619L60.621 79.24L62.8538 77.951L67.6318 80.7096L67.7806 80.6236L66.9173 75.6049L69.6115 74.0494L70.4152 79.1541L80.4327 80.2455L77.7535 81.7924L70.3111 80.9502L70.5492 82.3939L73.6304 84.1728L71.3976 85.4619ZM88.1585 75.9741C85.7174 77.3834 82.5172 77.2889 80.0165 75.8452C77.5159 74.4014 77.3671 72.5623 79.8082 71.153C82.2493 69.7436 85.4495 69.8209 87.9502 71.2647C90.4508 72.7084 90.5996 74.5647 88.1585 75.9741ZM86.4617 74.9772C87.5929 74.3241 87.1166 73.3788 85.7025 72.5623C84.2736 71.7373 82.6363 71.4623 81.505 72.1155C80.3589 72.7772 80.8203 73.7311 82.2493 74.5561C83.6633 75.3725 85.3155 75.6389 86.4617 74.9772ZM90.5776 68.9915L95.2514 71.6899L93.0485 72.9618L84.966 68.2954L87.0648 67.0837L88.4789 67.9001L88.5682 67.8485C88.0025 67.0923 88.2854 66.2587 89.4761 65.5712C91.1581 64.6001 93.4206 64.6173 95.2961 65.7173L100.446 68.6907L98.2582 69.954L93.495 67.204C92.4978 66.6282 91.3516 66.6024 90.4437 67.1266C89.5208 67.6594 89.5059 68.3727 90.5776 68.9915ZM94.3292 59.7786L97.0978 58.1802L107.398 60.6724L107.517 60.6036L103.201 54.6568L105.969 53.0583L116.746 59.2802L114.573 60.5349L107.517 56.4614L107.428 56.513L111.625 62.1849L110.137 63.0443L100.283 60.6036L100.194 60.6552L107.279 64.7458L105.106 66.0005L94.3292 59.7786ZM122.008 56.4312C119.567 57.8406 116.366 57.746 113.866 56.3023C111.365 54.8585 111.216 53.0195 113.657 51.6101C116.099 50.2007 119.299 50.2781 121.799 51.7218C124.3 53.1656 124.449 55.0218 122.008 56.4312ZM120.311 55.4343C121.442 54.7812 120.966 53.8359 119.552 53.0195C118.123 52.1945 116.486 51.9195 115.354 52.5726C114.208 53.2343 114.67 54.1882 116.099 55.0132C117.513 55.8296 119.165 56.096 120.311 55.4343ZM130.009 51.7775C128.163 52.8431 125.246 52.8259 122.551 51.2705C119.783 49.672 119.902 48.0048 121.688 46.9736C123.043 46.1916 124.486 46.2861 125.439 46.4923L125.513 46.4494L121.465 44.1119L123.668 42.84L134.444 49.0619L132.271 50.3166L130.976 49.5689L130.872 49.6291C131.229 50.1962 131.319 51.0212 130.009 51.7775ZM128.937 50.3681C130.038 49.7322 129.696 48.8127 128.237 47.9705C126.779 47.1283 125.231 46.9564 124.129 47.5923C123.013 48.2369 123.385 49.1392 124.799 49.9556C126.228 50.7806 127.821 51.0127 128.937 50.3681ZM139.736 46.1957C137.265 47.6223 134.14 47.5707 131.579 46.0926C129.079 44.6488 128.93 42.7926 131.297 41.4262C133.425 40.1973 136.432 40.0082 139.185 41.598L139.811 41.959L134.288 45.1473C135.509 45.8519 136.997 45.8691 138.129 45.216C138.873 44.7863 139.081 44.2879 138.813 43.8754L140.912 42.6637C142.088 43.7035 141.731 45.0441 139.736 46.1957ZM132.904 44.348L136.342 42.3629C135.36 41.7957 133.976 41.7871 132.993 42.3543C131.981 42.9387 132.011 43.7894 132.904 44.348ZM135.785 35.8443L146.561 42.0662L144.358 43.3381L133.582 37.1162L135.785 35.8443Z" fill="black"/>
<defs>
<linearGradient id="paint0_linear_1170_1199" x1="44.9278" y1="122.912" x2="0.20771" y2="120.886" gradientUnits="userSpaceOnUse">
<stop stop-color="#D8D8DA"/>
<stop offset="1" stop-color="#E9E9E9"/>
</linearGradient>
<linearGradient id="paint1_linear_1170_1199" x1="81.4214" y1="48.8275" x2="110.774" y2="125.897" gradientUnits="userSpaceOnUse">
<stop stop-color="#BABABA"/>
<stop offset="1" stop-color="#CCCCCC"/>
</linearGradient>
</defs>
</svg>
