<svg width="207" height="252" viewBox="0 0 207 252" fill="none" xmlns="http://www.w3.org/2000/svg">
<rect width="51.2" height="186.944" transform="matrix(0.866025 0.5 -0.866025 0.5 161.914 0)" fill="white"/>
<path d="M0 93.4648L44.3438 119.067V251.283L0 225.681V93.4648Z" fill="url(#paint0_linear_1184_2468)"/>
<rect width="186.952" height="132.223" transform="matrix(0.866025 -0.5 0 1 44.3438 119.064)" fill="url(#paint1_linear_1184_2468)"/>
<path d="M80.8037 78.5161L70.0271 72.2943L72.2598 71.0052L77.0378 73.7638L77.1867 73.6779L76.3233 68.6591L79.0175 67.1036L79.8213 72.2083L89.8388 73.2997L87.1595 74.8466L79.7171 74.0044L79.9552 75.4482L83.0364 77.2271L80.8037 78.5161ZM83.037 64.783L85.8056 63.1845L96.1059 65.6767L96.2249 65.608L91.9083 59.6611L94.6769 58.0627L105.454 64.2845L103.28 65.5392L96.2249 61.4658L96.1356 61.5174L100.333 67.1892L98.8447 68.0486L88.9909 65.608L88.9016 65.6595L95.9868 69.7502L93.8136 71.0049L83.037 64.783ZM110.716 61.4355C108.274 62.8449 105.074 62.7504 102.574 61.3066C100.073 59.8629 99.9241 58.0238 102.365 56.6145C104.806 55.2051 108.007 55.2824 110.507 56.7262C113.008 58.1699 113.157 60.0262 110.716 61.4355ZM109.019 60.4387C110.15 59.7855 109.674 58.8402 108.26 58.0238C106.831 57.1988 105.193 56.9238 104.062 57.577C102.916 58.2387 103.377 59.1926 104.806 60.0176C106.22 60.834 107.873 61.1004 109.019 60.4387ZM118.716 56.7819C116.871 57.8475 113.953 57.8303 111.259 56.2748C108.491 54.6764 108.61 53.0092 110.396 51.978C111.75 51.1959 113.194 51.2905 114.147 51.4967L114.221 51.4537L110.173 49.1162L112.376 47.8444L123.152 54.0662L120.979 55.3209L119.684 54.5733L119.58 54.6334C119.937 55.2006 120.026 56.0256 118.716 56.7819ZM117.645 55.3725C118.746 54.7365 118.404 53.817 116.945 52.9748C115.486 52.1326 113.938 51.9608 112.837 52.5967C111.721 53.2412 112.093 54.1436 113.507 54.96C114.936 55.785 116.528 56.017 117.645 55.3725ZM128.444 51.2C125.973 52.6266 122.847 52.575 120.287 51.0969C117.786 49.6532 117.638 47.7969 120.004 46.4305C122.133 45.2016 125.14 45.0125 127.893 46.6024L128.518 46.9633L122.996 50.1516C124.217 50.8563 125.705 50.8735 126.836 50.2204C127.581 49.7907 127.789 49.2922 127.521 48.8797L129.62 47.668C130.796 48.7079 130.439 50.0485 128.444 51.2ZM121.612 49.3524L125.05 47.3672C124.068 46.8 122.684 46.7915 121.701 47.3586C120.689 47.943 120.719 48.7938 121.612 49.3524ZM124.492 40.8487L135.269 47.0706L133.066 48.3425L122.289 42.1206L124.492 40.8487Z" fill="black"/>
<defs>
<linearGradient id="paint0_linear_1184_2468" x1="43.9825" y1="121.944" x2="-0.737602" y2="119.917" gradientUnits="userSpaceOnUse">
<stop stop-color="#D8D8DA"/>
<stop offset="1" stop-color="#E9E9E9"/>
</linearGradient>
<linearGradient id="paint1_linear_1184_2468" x1="81.4214" y1="48.8275" x2="110.774" y2="125.897" gradientUnits="userSpaceOnUse">
<stop stop-color="#BABABA"/>
<stop offset="1" stop-color="#CCCCCC"/>
</linearGradient>
</defs>
</svg>
