<svg width="207" height="253" viewBox="0 0 207 253" fill="none" xmlns="http://www.w3.org/2000/svg">
<rect width="51.2" height="186.944" transform="matrix(0.866025 0.5 -0.866025 0.5 162.656 0.878906)" fill="white"/>
<path d="M0.742188 94.3438L45.0859 119.946V252.162L0.742188 226.56V94.3438Z" fill="url(#paint0_linear_1187_5348)"/>
<rect width="186.952" height="132.223" transform="matrix(0.866025 -0.5 0 1 45.0859 119.945)" fill="url(#paint1_linear_1187_5348)"/>
<path d="M89.1631 75.1406L78.3865 68.9187L80.6192 67.6296L85.3972 70.3882L85.5461 70.3023L84.6827 65.2835L87.3769 63.7281L88.1807 68.8328L98.1981 69.9242L95.5189 71.471L88.0765 70.6289L88.3146 72.0726L91.3958 73.8515L89.1631 75.1406ZM102.173 67.6293L91.3964 61.4074L95.6237 58.9668C98.0797 57.5488 100.863 57.5402 102.992 58.7691C104.465 59.6199 104.86 60.6297 104.153 61.6395L110.642 62.7395L108.172 64.166L102.292 63.1434L100.58 64.1316L104.406 66.3402L102.173 67.6293ZM98.7644 63.0832L100.342 62.1723C101.667 61.4074 101.756 60.7199 100.685 60.1012C99.5979 59.4738 98.3625 59.4996 97.0377 60.2645L95.4599 61.1754L98.7644 63.0832ZM113.3 61.2053L110.888 62.5975L103.848 54.2186L106.721 52.56L121.218 56.6334L118.822 58.017L115.532 57.0459L111.633 59.2975L113.3 61.2053ZM110.457 57.9655L113.225 56.367L107.748 54.7686L107.673 54.8115L110.457 57.9655ZM121.479 48.0438C120.169 47.6313 118.725 47.743 117.55 48.4219C115.882 49.3844 116.031 50.7766 118.294 52.0829C120.571 53.3977 122.968 53.5094 124.679 52.5211C126.22 51.6317 126.265 50.6004 124.932 49.7969L122.596 51.1461L120.914 50.175L125.409 47.5797L126.748 48.3532C129.577 49.986 129.368 52.1 126.644 53.6727C123.623 55.4172 119.455 55.3829 116.046 53.4149C112.548 51.3954 112.682 48.9461 115.525 47.3047C117.951 45.904 121.315 45.6805 123.742 46.7375L121.479 48.0438Z" fill="black"/>
<defs>
<linearGradient id="paint0_linear_1187_5348" x1="44.7246" y1="122.822" x2="0.00458511" y2="120.796" gradientUnits="userSpaceOnUse">
<stop stop-color="#D8D8DA"/>
<stop offset="1" stop-color="#E9E9E9"/>
</linearGradient>
<linearGradient id="paint1_linear_1187_5348" x1="81.4214" y1="48.8275" x2="110.774" y2="125.897" gradientUnits="userSpaceOnUse">
<stop stop-color="#BABABA"/>
<stop offset="1" stop-color="#CCCCCC"/>
</linearGradient>
</defs>
</svg>
