<svg width="605" height="388" viewBox="0 0 605 388" fill="none" xmlns="http://www.w3.org/2000/svg">
<rect width="348.8" height="348.8" transform="matrix(0.866025 0.5 -0.866025 0.5 302.078 0)" fill="white"/>
<path d="M0 174.398L302.07 348.798V387.198L0 212.798V174.398Z" fill="url(#paint0_linear_1187_5063)"/>
<rect width="348.8" height="38.4" transform="matrix(0.866025 -0.5 0 1 302.078 348.801)" fill="url(#paint1_linear_1187_5063)"/>
<path d="M15.9861 211.024V198.58L18.2188 199.87V205.387L18.3677 205.473L22.2824 202.216L24.9765 203.771L20.9576 207.02L25.0212 216.241L22.3419 214.694L19.3501 207.827L18.2188 208.755V212.313L15.9861 211.024ZM31.2287 207.381V219.825L28.996 218.536V206.092L31.2287 207.381ZM34.8981 216.546V221.943L32.6952 220.671V211.338L34.794 212.55V214.183L34.8833 214.235C35.2554 213.367 36.1187 213.195 37.3095 213.882C38.9915 214.853 40.1078 216.821 40.0929 218.995V224.942L37.9049 223.679V218.179C37.9049 217.027 37.3541 216.022 36.4462 215.498C35.5233 214.965 34.8981 215.309 34.8981 216.546ZM45.8016 218.905V220.813L44.194 219.885V227.31L41.9911 226.038V218.613L40.8449 217.951V216.044L41.9911 216.705V216.001C41.9911 214.041 43.0181 213.603 44.6406 214.54C45.1466 214.832 45.5634 215.124 45.9504 215.451V217.376C45.6378 217.161 45.3997 217.006 45.2806 216.937C44.5661 216.525 44.194 216.637 44.194 217.41V217.977L45.8016 218.905ZM46.7917 228.81V219.477L48.9202 220.706V222.322L49.0095 222.373C49.3072 221.393 50.0515 221.222 50.9595 221.746C51.1827 221.875 51.4655 222.072 51.659 222.236V224.504C51.4507 224.315 51.0339 224.006 50.7213 223.825C49.724 223.25 48.9947 223.636 48.9947 224.771V230.082L46.7917 228.81ZM51.8156 229.098C51.8156 227.018 53.2743 227.173 54.8224 227.964C55.4029 228.256 56.4895 228.823 56.8318 229.003V228.247C56.8169 227.465 56.3555 226.735 55.5368 226.262C54.7926 225.832 54.3163 225.953 54.1972 226.52L52.0984 225.308C52.2324 223.77 53.453 223.203 55.5964 224.44C57.3528 225.454 59.0199 227.328 59.0199 229.579V235.87L56.936 234.667V233.378L56.8765 233.343C56.4746 233.971 55.7155 234.134 54.5098 233.438C52.9618 232.544 51.8156 230.954 51.8156 229.098ZM53.9293 230.249C53.9293 230.971 54.4354 231.642 55.1349 232.046C56.1322 232.621 56.8467 232.26 56.8318 231.272V230.585C56.4969 230.408 55.5592 229.927 55.1796 229.751C54.4205 229.399 53.9293 229.528 53.9293 230.249Z" fill="black"/>
<defs>
<linearGradient id="paint0_linear_1187_5063" x1="299.608" y1="348.274" x2="202.773" y2="98.683" gradientUnits="userSpaceOnUse">
<stop stop-color="#D8D8DA"/>
<stop offset="1" stop-color="#E9E9E9"/>
</linearGradient>
<linearGradient id="paint1_linear_1187_5063" x1="151.909" y1="14.1804" x2="153.424" y2="39.7196" gradientUnits="userSpaceOnUse">
<stop stop-color="#BABABA"/>
<stop offset="1" stop-color="#CCCCCC"/>
</linearGradient>
</defs>
</svg>
