<svg width="207" height="252" viewBox="0 0 207 252" fill="none" xmlns="http://www.w3.org/2000/svg">
<rect width="51.2" height="186.944" transform="matrix(0.866025 0.5 -0.866025 0.5 161.912 0)" fill="white"/>
<path d="M0 93.4648L44.3438 119.067V251.283L0 225.681V93.4648Z" fill="url(#paint0_linear_1170_1236)"/>
<rect width="186.952" height="132.223" transform="matrix(0.866025 -0.5 0 1 44.3438 119.062)" fill="url(#paint1_linear_1170_1236)"/>
<path d="M78.0754 80.2367L67.2988 74.0149L69.5315 72.7258L74.3095 75.4844L74.4584 75.3985L73.5951 70.3797L76.2892 68.8242L77.093 73.9289L87.1105 75.0203L84.4312 76.5672L76.9888 75.725L77.227 77.1688L80.3081 78.9477L78.0754 80.2367ZM94.8363 70.7489C92.3952 72.1583 89.1949 72.0637 86.6943 70.62C84.1937 69.1762 84.0448 67.3372 86.4859 65.9278C88.927 64.5184 92.1273 64.5958 94.6279 66.0395C97.1286 67.4833 97.2774 69.3395 94.8363 70.7489ZM93.1394 69.752C94.2707 69.0989 93.7944 68.1536 92.3803 67.3372C90.9514 66.5122 89.314 66.2372 88.1828 66.8903C87.0367 67.552 87.4981 68.5059 88.927 69.3309C90.3411 70.1473 91.9933 70.4137 93.1394 69.752ZM97.2554 63.7663L101.929 66.4647L99.7263 67.7366L91.6438 63.0702L93.7426 61.8585L95.1566 62.6749L95.2459 62.6233C94.6803 61.8671 94.9631 61.0335 96.1539 60.346C97.8359 59.3749 100.098 59.3921 101.974 60.4921L107.124 63.4655L104.936 64.7288L100.173 61.9788C99.1755 61.403 98.0294 61.3772 97.1214 61.9015C96.1986 62.4343 96.1837 63.1475 97.2554 63.7663ZM111.784 60.7753L101.007 54.5535L105.234 52.1128C107.69 50.6949 110.474 50.6863 112.602 51.9152C114.076 52.766 114.47 53.7757 113.763 54.7855L120.253 55.8855L117.782 57.312L111.903 56.2894L110.191 57.2777L114.016 59.4863L111.784 60.7753ZM108.375 56.2292L109.953 55.3183C111.277 54.5535 111.367 53.866 110.295 53.2472C109.208 52.6199 107.973 52.6456 106.648 53.4105L105.07 54.3214L108.375 56.2292ZM122.91 54.3513L120.499 55.7435L113.458 47.3646L116.331 45.706L130.829 49.7795L128.433 51.163L125.143 50.192L121.243 52.4435L122.91 54.3513ZM120.067 51.1115L122.836 49.513L117.358 47.9146L117.284 47.9576L120.067 51.1115ZM131.09 41.1898C129.78 40.7773 128.336 40.889 127.16 41.568C125.493 42.5305 125.642 43.9226 127.904 45.2289C130.182 46.5437 132.578 46.6555 134.29 45.6672C135.831 44.7777 135.875 43.7465 134.543 42.943L132.206 44.2922L130.524 43.3211L135.019 40.7258L136.359 41.4992C139.187 43.132 138.979 45.2461 136.255 46.8187C133.233 48.5633 129.065 48.5289 125.657 46.5609C122.159 44.5414 122.293 42.0922 125.136 40.4508C127.562 39.05 130.926 38.8265 133.352 39.8836L131.09 41.1898Z" fill="black"/>
<defs>
<linearGradient id="paint0_linear_1170_1236" x1="43.9825" y1="121.944" x2="-0.737602" y2="119.917" gradientUnits="userSpaceOnUse">
<stop stop-color="#D8D8DA"/>
<stop offset="1" stop-color="#E9E9E9"/>
</linearGradient>
<linearGradient id="paint1_linear_1170_1236" x1="81.4214" y1="48.8275" x2="110.774" y2="125.897" gradientUnits="userSpaceOnUse">
<stop stop-color="#BABABA"/>
<stop offset="1" stop-color="#CCCCCC"/>
</linearGradient>
</defs>
</svg>
