<svg width="605" height="388" viewBox="0 0 605 388" fill="none" xmlns="http://www.w3.org/2000/svg">
<rect width="348.8" height="348.8" transform="matrix(0.866025 0.5 -0.866025 0.5 302.928 0.323975)" fill="white"/>
<path d="M0.853516 174.724L302.923 349.124V387.524L0.853516 213.124V174.724Z" fill="url(#paint0_linear_174_2389)"/>
<rect width="348.8" height="38.4" transform="matrix(0.866025 -0.5 0 1 302.928 349.124)" fill="url(#paint1_linear_174_2389)"/>
<path d="M16.8435 209.348V196.904L19.0762 198.194V203.711L19.2251 203.797L23.1398 200.54L25.8339 202.095L21.815 205.344L25.8786 214.565L23.1993 213.018L20.2075 206.151L19.0762 207.079V210.637L16.8435 209.348ZM33.4407 219.12C30.9996 217.71 29.4813 214.892 29.4813 212.004C29.4813 209.117 30.9996 208.068 33.4407 209.477C35.8818 210.887 37.4149 213.697 37.4149 216.584C37.4149 219.472 35.8818 220.529 33.4407 219.12ZM33.4556 217.152C34.5868 217.805 35.1673 216.92 35.1673 215.287C35.1673 213.637 34.5868 212.081 33.4556 211.428C32.3094 210.767 31.714 211.643 31.714 213.293C31.714 214.926 32.3094 216.49 33.4556 217.152ZM40.6973 217.723V223.12L38.4944 221.848V212.516L40.5931 213.727V215.36L40.6824 215.412C41.0546 214.544 41.9179 214.372 43.1087 215.059C44.7906 216.03 45.907 217.998 45.8921 220.173V226.119L43.7041 224.856V219.356C43.7041 218.205 43.1533 217.199 42.2453 216.675C41.3225 216.142 40.6973 216.486 40.6973 217.723ZM50.5517 228.81V216.366L54.779 218.806C57.2349 220.224 58.6341 222.631 58.6341 225.089C58.6341 226.79 57.9569 227.637 56.7289 227.529L59.0211 233.699L56.5502 232.273L54.4961 226.67L52.7844 225.681V230.099L50.5517 228.81ZM52.7844 223.585L54.3622 224.496C55.6869 225.26 56.327 224.994 56.327 223.756C56.327 222.502 55.6869 221.445 54.3622 220.68L52.7844 219.769V223.585ZM61.6784 235.234L59.267 233.841L63.0031 223.555L65.8759 225.213L69.5971 239.805L67.2006 238.422L66.3968 235.088L62.497 232.836L61.6784 235.234ZM63.0627 231.152L65.8312 232.75L64.4767 227.207L64.4023 227.164L63.0627 231.152ZM72.7455 229.179V241.623L70.5128 240.334V227.89L72.7455 229.179Z" fill="black"/>
<g clip-path="url(#clip0_174_2389)">
<path d="M319.721 273.877C331.845 280.877 329.42 289.277 322.849 297.131C322.5 297.539 321.917 297.865 321.2 298.055C307.596 301.877 293.047 303.277 280.923 296.277L263.949 286.477C263.306 286.105 262.944 285.602 262.944 285.077C262.944 284.552 263.306 284.048 263.949 283.677C268.798 280.877 271.951 275.697 272.484 271.133C272.559 270.583 272.971 270.066 273.647 269.676C274.323 269.286 275.217 269.048 276.17 269.005C284.124 268.697 293.047 266.877 297.897 264.077C298.54 263.705 299.412 263.497 300.322 263.497C301.231 263.497 302.103 263.705 302.747 264.077L319.721 273.877Z" stroke="#DDDDDD" stroke-width="4" stroke-linecap="round" stroke-linejoin="round"/>
<path d="M301.015 301.224C299.266 299.02 298.728 296.559 299.471 294.173C300.215 291.787 302.206 289.589 305.176 287.875C308.147 286.161 311.954 285.013 316.087 284.585C320.221 284.157 324.482 284.469 328.299 285.48" stroke="#DDDDDD" stroke-width="4" stroke-linecap="round" stroke-linejoin="round"/>
<path d="M305.171 287.876C310.528 284.783 310.528 279.769 305.171 276.676C299.814 273.583 291.129 273.583 285.772 276.676C280.415 279.769 280.415 284.783 285.772 287.876C291.129 290.969 299.814 290.969 305.171 287.876Z" stroke="#DDDDDD" stroke-width="4" stroke-linecap="round" stroke-linejoin="round"/>
</g>
<g clip-path="url(#clip1_174_2389)">
<path d="M126.398 181.676H136.097C137.052 181.676 137.998 181.567 138.881 181.356C139.763 181.145 140.565 180.836 141.241 180.446C141.916 180.056 142.452 179.593 142.818 179.083C143.183 178.574 143.372 178.027 143.372 177.476C143.372 176.924 143.183 176.378 142.818 175.869C142.452 175.359 141.916 174.896 141.241 174.506C140.565 174.116 139.763 173.807 138.881 173.596C137.998 173.385 137.052 173.276 136.097 173.276" stroke="#DDDDDD" stroke-width="4" stroke-linecap="round" stroke-linejoin="round"/>
<path d="M126.39 173.276L138.515 173.276C140.444 173.276 142.294 172.833 143.659 172.045C145.023 171.258 145.789 170.189 145.789 169.076C145.789 167.962 145.023 166.893 143.659 166.106C142.294 165.318 140.444 164.876 138.515 164.876L119.698 164.876C116.971 164.877 114.357 165.502 112.429 166.615C110.502 167.728 109.418 169.238 109.416 170.812L109.416 173.276C109.416 174.389 108.65 175.458 107.286 176.245C105.921 177.033 104.071 177.476 102.142 177.476C100.212 177.476 98.362 177.033 96.9977 176.245C95.6335 175.458 94.867 174.389 94.867 173.276L94.867 165.408C94.8728 162.857 96.3521 160.38 99.0708 158.369C101.79 156.358 105.592 154.928 109.877 154.306L111.696 154.04C113.351 153.803 114.795 153.219 115.745 152.402L119.116 149.476" stroke="#DDDDDD" stroke-width="4" stroke-linecap="round" stroke-linejoin="round"/>
<path d="M116.698 148.076L145.797 162.076L140.947 164.876" stroke="#DDDDDD" stroke-width="4" stroke-linecap="round" stroke-linejoin="round"/>
<path d="M73.0479 173.276L97.2966 190.076L128.82 190.076C130.749 190.076 132.6 189.633 133.964 188.846C135.328 188.058 136.095 186.99 136.095 185.876C136.095 184.762 135.328 183.694 133.964 182.906C132.6 182.118 130.749 181.676 128.82 181.676" stroke="#DDDDDD" stroke-width="4" stroke-linecap="round" stroke-linejoin="round"/>
<path d="M75.4727 174.676L94.8716 163.476" stroke="#DDDDDD" stroke-width="4" stroke-linecap="round" stroke-linejoin="round"/>
</g>
<g clip-path="url(#clip2_174_2389)">
<path d="M508.495 176.476L496.37 161.076L523.044 168.076C522.51 170.204 520.813 172.164 518.194 173.676C515.575 175.188 512.18 176.168 508.495 176.476Z" stroke="#DDDDDD" stroke-width="4" stroke-linecap="round" stroke-linejoin="round"/>
<path d="M474.545 196.076L462.421 180.676L489.095 187.676C488.561 189.804 486.864 191.764 484.245 193.276C481.626 194.788 478.231 195.768 474.545 196.076Z" stroke="#DDDDDD" stroke-width="4" stroke-linecap="round" stroke-linejoin="round"/>
<path d="M498.797 196.076L523.046 182.076" stroke="#DDDDDD" stroke-width="4" stroke-linecap="round" stroke-linejoin="round"/>
<path d="M467.266 163.876L510.913 189.076" stroke="#DDDDDD" stroke-width="4" stroke-linecap="round" stroke-linejoin="round"/>
<path d="M455.147 182.076L459.996 179.276C464.846 176.476 469.696 170.876 472.121 166.676C479.395 165.276 489.095 162.476 493.945 159.676L498.794 156.876" stroke="#DDDDDD" stroke-width="4" stroke-linecap="round" stroke-linejoin="round"/>
</g>
<g clip-path="url(#clip3_174_2389)">
<path d="M329.32 56.2765C341.445 63.2765 339.02 71.6765 332.448 79.5305C332.099 79.9388 331.517 80.2652 330.799 80.4545C317.196 84.2765 302.647 85.6765 290.522 78.6765L273.548 68.8765C272.905 68.5052 272.544 68.0016 272.544 67.4765C272.544 66.9514 272.905 66.4478 273.548 66.0765C278.398 63.2765 281.55 58.0965 282.084 53.5325C282.159 52.9825 282.571 52.466 283.247 52.0759C283.922 51.6858 284.817 51.4477 285.77 51.4045C293.723 51.0965 302.647 49.2765 307.496 46.4765C308.14 46.1052 309.012 45.8966 309.921 45.8966C310.831 45.8966 311.703 46.1052 312.346 46.4765L329.32 56.2765Z" stroke="#DDDDDD" stroke-width="4" stroke-linecap="round" stroke-linejoin="round"/>
<path d="M311.136 58.0956L312.591 70.6956L299.497 70.6956" stroke="#DDDDDD" stroke-width="4" stroke-linecap="round" stroke-linejoin="round"/>
</g>
<defs>
<linearGradient id="paint0_linear_174_2389" x1="300.462" y1="348.599" x2="203.626" y2="99.0087" gradientUnits="userSpaceOnUse">
<stop stop-color="#D8D8DA"/>
<stop offset="1" stop-color="#E9E9E9"/>
</linearGradient>
<linearGradient id="paint1_linear_174_2389" x1="151.909" y1="14.1804" x2="153.424" y2="39.7196" gradientUnits="userSpaceOnUse">
<stop stop-color="#BABABA"/>
<stop offset="1" stop-color="#CCCCCC"/>
</linearGradient>
<clipPath id="clip0_174_2389">
<rect width="67.2" height="67.2" fill="white" transform="matrix(0.866025 -0.5 0.866025 0.5 239.697 283.676)"/>
</clipPath>
<clipPath id="clip1_174_2389">
<rect width="67.2" height="67.2" fill="white" transform="matrix(0.866025 -0.5 0.866025 0.5 58.498 173.276)"/>
</clipPath>
<clipPath id="clip2_174_2389">
<rect width="67.2" height="67.2" fill="white" transform="matrix(0.866025 -0.5 0.866025 0.5 430.896 176.476)"/>
</clipPath>
<clipPath id="clip3_174_2389">
<rect width="67.2" height="67.2" fill="white" transform="matrix(0.866025 -0.5 0.866025 0.5 249.297 66.0759)"/>
</clipPath>
</defs>
</svg>
