<svg width="605" height="388" viewBox="0 0 605 388" fill="none" xmlns="http://www.w3.org/2000/svg">
<rect width="348.8" height="348.8" transform="matrix(0.866025 0.5 -0.866025 0.5 302.93 0.266602)" fill="url(#paint0_linear_174_4215)"/>
<path d="M0.855469 174.667L302.925 349.067V387.467L0.855469 213.067V174.667Z" fill="#F72422"/>
<path d="M302.93 349.067L604.999 174.667V213.067L302.93 387.467V349.067Z" fill="url(#paint1_linear_174_4215)"/>
<path d="M16.3904 209.508V197.064L18.6231 198.353V203.87L18.772 203.956L22.6867 200.699L25.3808 202.254L21.3619 205.503L25.4255 214.724L22.7462 213.177L19.7544 206.311L18.6231 207.239V210.797L16.3904 209.508ZM32.9876 219.279C30.5464 217.861 29.0208 215.047 29.0282 212.163C29.0208 209.28 30.5464 208.227 32.9876 209.637C35.4361 211.051 36.9544 213.861 36.9618 216.744C36.9544 219.627 35.4361 220.684 32.9876 219.279ZM31.2609 213.452C31.2609 215.085 31.8489 216.636 33.0024 217.311C34.1262 217.951 34.7216 217.083 34.7142 215.446C34.7216 213.809 34.1262 212.236 33.0024 211.588C31.8489 210.922 31.2609 211.811 31.2609 213.452ZM40.2442 217.883V223.28L38.0412 222.008V212.675L40.14 213.887V215.519L40.2293 215.571C40.594 214.707 41.4573 214.527 42.6555 215.219C44.345 216.194 45.4464 218.162 45.439 220.332V226.279L43.2509 225.016V219.516C43.2435 218.36 42.7076 217.363 41.7922 216.834C40.8768 216.306 40.2442 216.654 40.2442 217.883ZM50.0985 228.969V216.525L54.3258 218.966C56.7744 220.38 58.181 222.782 58.181 225.248C58.181 226.949 57.5037 227.796 56.2757 227.697L58.568 233.859L56.0971 232.432L54.0356 226.825L52.3313 225.841V230.258L50.0985 228.969ZM52.3313 223.744L53.9091 224.655C55.2338 225.42 55.8813 225.166 55.8738 223.916C55.8813 222.666 55.2338 221.613 53.9091 220.839L52.3313 219.928V223.744ZM61.2252 235.393L58.8139 234.001L62.55 223.714L65.4228 225.373L69.144 239.965L66.7475 238.581L65.9363 235.243L62.0365 232.991L61.2252 235.393ZM62.6021 231.307L65.3707 232.905L64.0236 227.366L63.9492 227.323L62.6021 231.307ZM72.2924 229.339V241.783L70.0597 240.494V228.05L72.2924 229.339Z" fill="white"/>
<defs>
<linearGradient id="paint0_linear_174_4215" x1="223.392" y1="209.069" x2="-442.364" y2="188.685" gradientUnits="userSpaceOnUse">
<stop stop-color="#FF3D2F"/>
<stop offset="1" stop-color="#EC0C0C"/>
</linearGradient>
<linearGradient id="paint1_linear_174_4215" x1="-176.733" y1="632.019" x2="-132.963" y2="701.234" gradientUnits="userSpaceOnUse">
<stop stop-color="#E31313"/>
<stop offset="1" stop-color="#FF4A4A" stop-opacity="0.98"/>
</linearGradient>
</defs>
</svg>
