<svg width="605" height="388" viewBox="0 0 605 388" fill="none" xmlns="http://www.w3.org/2000/svg">
<rect width="348.8" height="348.8" transform="matrix(0.866025 0.5 -0.866025 0.5 302.074 0)" fill="white"/>
<path d="M0 174.398L302.07 348.798V387.198L0 212.798V174.398Z" fill="url(#paint0_linear_1170_1305)"/>
<rect width="348.8" height="38.4" transform="matrix(0.866025 -0.5 0 1 302.074 348.801)" fill="url(#paint1_linear_1170_1305)"/>
<path d="M15.99 209.024V196.58L18.2227 197.87V203.387L18.3716 203.473L22.2863 200.216L24.9804 201.771L20.9615 205.02L25.0251 214.241L22.3458 212.694L19.354 205.827L18.2227 206.755V210.313L15.99 209.024ZM32.5872 218.796C30.1461 217.386 28.6278 214.568 28.6278 211.68C28.6278 208.793 30.1461 207.744 32.5872 209.153C35.0283 210.563 36.5614 213.373 36.5614 216.261C36.5614 219.148 35.0283 220.205 32.5872 218.796ZM32.6021 216.828C33.7333 217.481 34.3138 216.596 34.3138 214.963C34.3138 213.313 33.7333 211.757 32.6021 211.104C31.4559 210.443 30.8605 211.319 30.8605 212.969C30.8605 214.602 31.4559 216.166 32.6021 216.828ZM39.8438 217.399V222.796L37.6409 221.524V212.192L39.7396 213.403V215.036L39.8289 215.088C40.201 214.22 41.0644 214.048 42.2552 214.735C43.9371 215.706 45.0535 217.674 45.0386 219.849V225.795L42.8505 224.532V219.032C42.8505 217.881 42.2998 216.875 41.3918 216.351C40.469 215.818 39.8438 216.162 39.8438 217.399ZM49.6982 228.486V216.042L53.9254 218.483C56.3814 219.9 57.7806 222.307 57.7806 224.765C57.7806 226.466 57.1033 227.313 55.8753 227.205L58.1676 233.375L55.6967 231.949L53.6426 226.346L51.9309 225.358V229.775L49.6982 228.486ZM51.9309 223.261L53.5087 224.172C54.8334 224.936 55.4735 224.67 55.4735 223.433C55.4735 222.178 54.8334 221.121 53.5087 220.356L51.9309 219.445V223.261ZM60.8248 234.91L58.4135 233.517L62.1496 223.231L65.0224 224.889L68.7436 239.482L66.3471 238.098L65.5433 234.764L61.6435 232.512L60.8248 234.91ZM62.2091 230.828L64.9777 232.426L63.6232 226.883L63.5488 226.84L62.2091 230.828ZM71.892 228.856V241.299L69.6593 240.01V227.566L71.892 228.856Z" fill="black"/>
<defs>
<linearGradient id="paint0_linear_1170_1305" x1="299.608" y1="348.274" x2="202.773" y2="98.683" gradientUnits="userSpaceOnUse">
<stop stop-color="#D8D8DA"/>
<stop offset="1" stop-color="#E9E9E9"/>
</linearGradient>
<linearGradient id="paint1_linear_1170_1305" x1="151.909" y1="14.1804" x2="153.424" y2="39.7196" gradientUnits="userSpaceOnUse">
<stop stop-color="#BABABA"/>
<stop offset="1" stop-color="#CCCCCC"/>
</linearGradient>
</defs>
</svg>
