<svg width="207" height="252" viewBox="0 0 207 252" fill="none" xmlns="http://www.w3.org/2000/svg">
<path d="M162.488 0.328125L206.829 25.9281L44.9305 119.4L0.590031 93.8001L162.488 0.328125Z" fill="url(#paint0_linear_1184_3281)"/>
<path d="M0.574219 93.793L44.918 119.395V251.611L0.574219 226.009V93.793Z" fill="#F72422"/>
<path d="M44.918 119.393L206.823 25.9166V158.14L44.918 251.616V119.393Z" fill="url(#paint1_linear_1184_3281)"/>
<path d="M88.9951 74.5898L78.2185 68.3679L80.4512 67.0789L85.2292 69.8375L85.3781 69.7515L84.5148 64.7328L87.2089 63.1773L88.0127 68.282L98.0302 69.3734L95.3509 70.9203L87.9085 70.0781L88.1467 71.5218L91.2278 73.3007L88.9951 74.5898ZM102.005 67.0785L91.2284 60.8566L95.4557 58.416C97.9117 56.998 100.695 56.9895 102.824 58.2184C104.297 59.0691 104.692 60.0789 103.985 61.0887L110.474 62.1887L108.004 63.6152L102.124 62.5926L100.412 63.5809L104.238 65.7895L102.005 67.0785ZM98.5964 62.5324L100.174 61.6215C101.499 60.8566 101.588 60.1691 100.517 59.5504C99.4299 58.923 98.1945 58.9488 96.8698 59.7137L95.292 60.6246L98.5964 62.5324ZM113.132 60.6545L110.72 62.0467L103.68 53.6678L106.553 52.0092L121.05 56.0826L118.654 57.4662L115.364 56.4951L111.465 58.7467L113.132 60.6545ZM110.289 57.4147L113.057 55.8162L107.58 54.2178L107.505 54.2608L110.289 57.4147ZM121.311 47.493C120.001 47.0805 118.558 47.1922 117.382 47.8711C115.715 48.8336 115.863 50.2258 118.126 51.5321C120.403 52.8469 122.8 52.9586 124.511 51.9704C126.052 51.0809 126.097 50.0497 124.764 49.2461L122.428 50.5954L120.746 49.6243L125.241 47.029L126.58 47.8024C129.409 49.4352 129.2 51.5493 126.476 53.1219C123.455 54.8665 119.287 54.8321 115.878 52.8641C112.38 50.8446 112.514 48.3954 115.357 46.754C117.784 45.3532 121.147 45.1297 123.574 46.1868L121.311 47.493Z" fill="white"/>
<defs>
<linearGradient id="paint0_linear_1184_3281" x1="120.362" y1="4.04437" x2="127.881" y2="120.9" gradientUnits="userSpaceOnUse">
<stop stop-color="#FF4A4A"/>
<stop offset="1" stop-color="#EC0C0C"/>
</linearGradient>
<linearGradient id="paint1_linear_1184_3281" x1="-6.28086" y1="162.221" x2="31.8731" y2="261.498" gradientUnits="userSpaceOnUse">
<stop stop-color="#E31313"/>
<stop offset="1" stop-color="#FF4A4A" stop-opacity="0.98"/>
</linearGradient>
</defs>
</svg>
