<svg width="605" height="388" viewBox="0 0 605 388" fill="none" xmlns="http://www.w3.org/2000/svg">
<rect width="348.8" height="348.8" transform="matrix(0.866025 0.5 -0.866025 0.5 302.93 0.267578)" fill="url(#paint0_linear_1184_3596)"/>
<path d="M0.855469 174.668L302.925 349.068V387.468L0.855469 213.068V174.668Z" fill="#F72422"/>
<path d="M302.93 349.068L604.999 174.668V213.068L302.93 387.468V349.068Z" fill="url(#paint1_linear_1184_3596)"/>
<path d="M16.3923 209.509V197.065L18.6251 198.354V203.871L18.7739 203.957L22.6886 200.7L25.3828 202.255L21.3639 205.504L25.4274 214.725L22.7482 213.178L19.7563 206.312L18.6251 207.24V210.798L16.3923 209.509ZM29.4023 217.02V204.576L33.6296 207.017C36.0856 208.435 37.4847 210.841 37.4847 213.299C37.4847 215 36.8075 215.847 35.5795 215.739L37.8717 221.91L35.4008 220.483L33.3467 214.88L31.635 213.892V218.309L29.4023 217.02ZM31.635 211.795L33.2128 212.706C34.5375 213.471 35.1776 213.204 35.1776 211.967C35.1776 210.712 34.5375 209.655 33.2128 208.89L31.635 207.979V211.795ZM40.529 223.444L38.1176 222.052L41.8537 211.765L44.7265 213.424L48.4477 228.016L46.0512 226.632L45.2475 223.298L41.3476 221.046L40.529 223.444ZM41.9133 219.362L44.6818 220.96L43.3273 215.417L43.2529 215.374L41.9133 219.362ZM51.5961 217.39V229.834L49.3634 228.544V216.101L51.5961 217.39Z" fill="white"/>
<defs>
<linearGradient id="paint0_linear_1184_3596" x1="223.392" y1="209.069" x2="-442.364" y2="188.685" gradientUnits="userSpaceOnUse">
<stop stop-color="#FF3D2F"/>
<stop offset="1" stop-color="#EC0C0C"/>
</linearGradient>
<linearGradient id="paint1_linear_1184_3596" x1="-176.733" y1="632.02" x2="-132.963" y2="701.235" gradientUnits="userSpaceOnUse">
<stop stop-color="#E31313"/>
<stop offset="1" stop-color="#FF4A4A" stop-opacity="0.98"/>
</linearGradient>
</defs>
</svg>
