<svg width="207" height="253" viewBox="0 0 207 253" fill="none" xmlns="http://www.w3.org/2000/svg">
<rect width="51.2" height="186.944" transform="matrix(0.866025 0.5 -0.866025 0.5 162.598 0.848877)" fill="white"/>
<path d="M0.685547 94.313L45.0293 119.915V252.131L0.685547 226.53V94.313Z" fill="url(#paint0_linear_174_2754)"/>
<rect width="186.952" height="132.223" transform="matrix(0.866025 -0.5 0 1 45.0293 119.913)" fill="url(#paint1_linear_174_2754)"/>
<path d="M78.7609 81.0863L67.9843 74.8645L70.2171 73.5754L74.9951 76.334L75.1439 76.2481L74.2806 71.2293L76.9748 69.6738L77.7785 74.7785L87.796 75.8699L85.1168 77.4168L77.6744 76.5746L77.9125 78.0184L80.9937 79.7973L78.7609 81.0863ZM95.5218 71.5985C93.0807 73.0079 89.8805 72.9133 87.3798 71.4696C84.8792 70.0258 84.7304 68.1868 87.1715 66.7774C89.6126 65.368 92.8128 65.4454 95.3135 66.8891C97.8141 68.3329 97.963 70.1891 95.5218 71.5985ZM93.825 70.6016C94.9562 69.9485 94.4799 69.0032 93.0658 68.1868C91.6369 67.3618 89.9996 67.0868 88.8683 67.7399C87.7222 68.4016 88.1836 69.3555 89.6126 70.1805C91.0266 70.9969 92.6788 71.2633 93.825 70.6016ZM97.9409 64.6159L102.615 67.3143L100.412 68.5862L92.3293 63.9198L94.4281 62.7081L95.8422 63.5245L95.9315 63.4729C95.3658 62.7167 95.6487 61.8831 96.8394 61.1956C98.5214 60.2245 100.784 60.2417 102.659 61.3417L107.81 64.3151L105.621 65.5784L100.858 62.8284C99.8611 62.2526 98.7149 62.2268 97.807 62.7511C96.8841 63.2839 96.8692 63.9972 97.9409 64.6159ZM112.469 61.6249L101.692 55.4031L105.92 52.9624C108.376 51.5445 111.159 51.5359 113.288 52.7648C114.761 53.6156 115.156 54.6253 114.449 55.6351L120.939 56.7351L118.468 58.1617L112.588 57.139L110.876 58.1273L114.702 60.3359L112.469 61.6249ZM109.06 57.0788L110.638 56.1679C111.963 55.4031 112.052 54.7156 110.981 54.0968C109.894 53.4695 108.659 53.4953 107.334 54.2601L105.756 55.171L109.06 57.0788ZM123.596 55.2009L121.184 56.5931L114.144 48.2142L117.017 46.5556L131.515 50.6291L129.118 52.0127L125.829 51.0416L121.929 53.2931L123.596 55.2009ZM120.753 51.9611L123.521 50.3627L118.044 48.7642L117.969 48.8072L120.753 51.9611ZM131.775 42.0394C130.465 41.6269 129.022 41.7387 127.846 42.4176C126.179 43.3801 126.327 44.7722 128.59 46.0785C130.867 47.3933 133.264 47.5051 134.976 46.5168C136.516 45.6273 136.561 44.5961 135.229 43.7926L132.892 45.1418L131.21 44.1707L135.705 41.5754L137.045 42.3488C139.873 43.9816 139.664 46.0957 136.94 47.6683C133.919 49.4129 129.751 49.3785 126.342 47.4105C122.844 45.391 122.978 42.9418 125.821 41.3004C128.248 39.8996 131.612 39.6762 134.038 40.7332L131.775 42.0394Z" fill="black"/>
<g clip-path="url(#clip0_174_2754)">
<path d="M125.311 140.608C125.947 140.241 126.463 139.349 126.463 138.615C126.463 137.88 125.947 137.583 125.311 137.95C124.676 138.317 124.16 139.21 124.16 139.944C124.16 140.678 124.676 140.976 125.311 140.608Z" stroke="#DFDFDF" stroke-width="2.4" stroke-linecap="round" stroke-linejoin="round"/>
<path d="M134.756 144.728C137.105 140.673 134.78 134.931 129.576 131.9C124.35 128.909 118.214 129.767 115.877 133.828C113.528 137.882 115.854 143.624 121.057 146.655C126.284 149.646 132.42 148.789 134.756 144.728Z" stroke="#DFDFDF" stroke-width="2.4" stroke-linecap="round" stroke-linejoin="round"/>
<path d="M129.576 141.737C134.78 132.698 137.105 124.27 134.756 122.927C132.42 121.565 126.284 127.793 121.057 136.818C115.854 145.858 113.528 154.285 115.877 155.628C118.214 156.991 124.35 150.763 129.576 141.737Z" stroke="#DFDFDF" stroke-width="2.4" stroke-linecap="round" stroke-linejoin="round"/>
</g>
<defs>
<linearGradient id="paint0_linear_174_2754" x1="44.668" y1="122.792" x2="-0.0520555" y2="120.765" gradientUnits="userSpaceOnUse">
<stop stop-color="#D8D8DA"/>
<stop offset="1" stop-color="#E9E9E9"/>
</linearGradient>
<linearGradient id="paint1_linear_174_2754" x1="81.4214" y1="48.8275" x2="110.774" y2="125.897" gradientUnits="userSpaceOnUse">
<stop stop-color="#BABABA"/>
<stop offset="1" stop-color="#CCCCCC"/>
</linearGradient>
<clipPath id="clip0_174_2754">
<rect width="38.4" height="38.4" fill="white" transform="matrix(0.866025 -0.5 0 1 108.686 129.677)"/>
</clipPath>
</defs>
</svg>
