<svg width="207" height="253" viewBox="0 0 207 253" fill="none" xmlns="http://www.w3.org/2000/svg">
<path d="M162.48 0.746094L206.821 26.3461L44.9227 119.818L0.582218 94.2181L162.48 0.746094Z" fill="url(#paint0_linear_1187_6521)"/>
<path d="M0.568359 94.2109L44.9121 119.813V252.029L0.568359 226.427V94.2109Z" fill="url(#paint1_linear_1187_6521)"/>
<path d="M44.9121 119.809L206.817 26.3326V158.556L44.9121 252.032V119.809Z" fill="url(#paint2_linear_1187_6521)"/>
<path d="M88.9912 75.0078L78.2146 68.7859L80.4473 67.4968L85.2253 70.2554L85.3742 70.1695L84.5109 65.1507L87.205 63.5953L88.0088 68.7L98.0263 69.7914L95.347 71.3382L87.9046 70.496L88.1428 71.9398L91.2239 73.7187L88.9912 75.0078ZM102.001 67.4965L91.2245 61.2746L95.4518 58.834C97.9078 57.416 100.691 57.4074 102.82 58.6363C104.293 59.4871 104.688 60.4969 103.981 61.5066L110.471 62.6066L108 64.0332L102.12 63.0105L100.408 63.9988L104.234 66.2074L102.001 67.4965ZM98.5925 62.9504L100.17 62.0395C101.495 61.2746 101.584 60.5871 100.513 59.9684C99.426 59.341 98.1906 59.3668 96.8659 60.1316L95.2881 61.0426L98.5925 62.9504ZM113.128 61.0725L110.716 62.4647L103.676 54.0858L106.549 52.4272L121.047 56.5006L118.65 57.8842L115.361 56.9131L111.461 59.1647L113.128 61.0725ZM110.285 57.8326L113.053 56.2342L107.576 54.6358L107.501 54.6787L110.285 57.8326ZM121.307 47.911C119.997 47.4985 118.554 47.6102 117.378 48.2891C115.711 49.2516 115.859 50.6438 118.122 51.95C120.399 53.2649 122.796 53.3766 124.508 52.3883C126.048 51.4989 126.093 50.4676 124.761 49.6641L122.424 51.0133L120.742 50.0422L125.237 47.4469L126.577 48.2204C129.405 49.8532 129.196 51.9672 126.472 53.5399C123.451 55.2844 119.283 55.25 115.874 53.2821C112.376 51.2625 112.51 48.8133 115.353 47.1719C117.78 45.7711 121.144 45.5477 123.57 46.6047L121.307 47.911Z" fill="white"/>
<defs>
<linearGradient id="paint0_linear_1187_6521" x1="296.988" y1="-104.706" x2="327.816" y2="-49.1609" gradientUnits="userSpaceOnUse">
<stop stop-color="#FF5454"/>
<stop offset="1" stop-color="#FF3A3A"/>
</linearGradient>
<linearGradient id="paint1_linear_1187_6521" x1="57.9902" y1="125.795" x2="-38.9992" y2="108.133" gradientUnits="userSpaceOnUse">
<stop stop-color="#EE2826"/>
<stop offset="1" stop-color="#E23629"/>
</linearGradient>
<linearGradient id="paint2_linear_1187_6521" x1="29.7202" y1="229.479" x2="71.7864" y2="307.838" gradientUnits="userSpaceOnUse">
<stop stop-color="#C01919"/>
<stop offset="1" stop-color="#FD2A2A" stop-opacity="0.98"/>
</linearGradient>
</defs>
</svg>
