<svg width="207" height="252" viewBox="0 0 207 252" fill="none" xmlns="http://www.w3.org/2000/svg">
<path d="M162.486 0.325684L206.827 25.9257L44.9286 119.398L0.588078 93.7977L162.486 0.325684Z" fill="url(#paint0_linear_174_3914)"/>
<path d="M0.574219 93.7896L44.918 119.391V251.608L0.574219 226.006V93.7896Z" fill="#F72422"/>
<path d="M44.918 119.39L206.823 25.9137V158.137L44.918 251.613V119.39Z" fill="url(#paint1_linear_174_3914)"/>
<path d="M78.6477 80.5629L67.8711 74.341L70.1038 73.052L74.8818 75.8106L75.0307 75.7246L74.1673 70.7059L76.8615 69.1504L77.6653 74.2551L87.6827 75.3465L85.0035 76.8934L77.5611 76.0512L77.7992 77.4949L80.8804 79.2738L78.6477 80.5629ZM95.4086 71.0751C92.9675 72.4844 89.7672 72.3899 87.2666 70.9462C84.7659 69.5024 84.6171 67.6633 87.0582 66.254C89.4993 64.8446 92.6995 64.9219 95.2002 66.3657C97.7008 67.8094 97.8497 69.6657 95.4086 71.0751ZM93.7117 70.0782C94.8429 69.4251 94.3666 68.4798 92.9526 67.6633C91.5236 66.8383 89.8863 66.5633 88.755 67.2165C87.6089 67.8782 88.0703 68.8321 89.4993 69.6571C90.9133 70.4735 92.5656 70.7399 93.7117 70.0782ZM97.8276 64.0925L102.501 66.7909L100.299 68.0628L92.2161 63.3964L94.3148 62.1847L95.7289 63.0011L95.8182 62.9495C95.2526 62.1933 95.5354 61.3597 96.7262 60.6722C98.4081 59.7011 100.671 59.7183 102.546 60.8183L107.696 63.7917L105.508 65.055L100.745 62.305C99.7478 61.7292 98.6016 61.7034 97.6937 62.2276C96.7708 62.7604 96.7559 63.4737 97.8276 64.0925ZM112.356 61.1015L101.579 54.8796L105.806 52.439C108.262 51.021 111.046 51.0124 113.174 52.2413C114.648 53.0921 115.043 54.1019 114.335 55.1117L120.825 56.2117L118.354 57.6382L112.475 56.6156L110.763 57.6038L114.589 59.8124L112.356 61.1015ZM108.947 56.5554L110.525 55.6445C111.85 54.8796 111.939 54.1921 110.867 53.5734C109.781 52.946 108.545 52.9718 107.221 53.7367L105.643 54.6476L108.947 56.5554ZM123.483 54.6775L121.071 56.0697L114.031 47.6908L116.903 46.0322L131.401 50.1056L129.005 51.4892L125.715 50.5181L121.815 52.7697L123.483 54.6775ZM120.64 51.4377L123.408 49.8392L117.93 48.2408L117.856 48.2837L120.64 51.4377ZM131.662 41.516C130.352 41.1035 128.908 41.2152 127.732 41.8941C126.065 42.8566 126.214 44.2488 128.477 45.5551C130.754 46.8699 133.15 46.9816 134.862 45.9933C136.403 45.1039 136.447 44.0726 135.115 43.2691L132.778 44.6183L131.096 43.6472L135.592 41.0519L136.931 41.8254C139.759 43.4582 139.551 45.5722 136.827 47.1449C133.805 48.8894 129.638 48.8551 126.229 46.8871C122.731 44.8676 122.865 42.4183 125.708 40.7769C128.134 39.3762 131.498 39.1527 133.925 40.2097L131.662 41.516Z" fill="white"/>
<defs>
<linearGradient id="paint0_linear_174_3914" x1="120.36" y1="4.04193" x2="127.879" y2="120.897" gradientUnits="userSpaceOnUse">
<stop stop-color="#FF4A4A"/>
<stop offset="1" stop-color="#EC0C0C"/>
</linearGradient>
<linearGradient id="paint1_linear_174_3914" x1="-6.28086" y1="162.218" x2="31.8731" y2="261.495" gradientUnits="userSpaceOnUse">
<stop stop-color="#E31313"/>
<stop offset="1" stop-color="#FF4A4A" stop-opacity="0.98"/>
</linearGradient>
</defs>
</svg>
