<svg width="207" height="252" viewBox="0 0 207 252" fill="none" xmlns="http://www.w3.org/2000/svg">
<path d="M162.488 0.328125L206.829 25.9281L44.9305 119.4L0.590031 93.8001L162.488 0.328125Z" fill="url(#paint0_linear_1170_1413)"/>
<path d="M0.576172 93.793L44.9199 119.395V251.611L0.576172 226.009V93.793Z" fill="#F72422"/>
<path d="M44.9199 119.391L206.825 25.9146V158.138L44.9199 251.614V119.391Z" fill="url(#paint1_linear_1170_1413)"/>
<path d="M78.6496 80.5649L67.873 74.343L70.1057 73.0539L74.8838 75.8125L75.0326 75.7266L74.1693 70.7078L76.8634 69.1524L77.6672 74.257L87.6847 75.3485L85.0054 76.8953L77.563 76.0531L77.8012 77.4969L80.8823 79.2758L78.6496 80.5649ZM95.4105 71.077C92.9694 72.4864 89.7692 72.3919 87.2685 70.9481C84.7679 69.5044 84.619 67.6653 87.0601 66.2559C89.5012 64.8465 92.7015 64.9239 95.2021 66.3676C97.7028 67.8114 97.8516 69.6676 95.4105 71.077ZM93.7136 70.0801C94.8449 69.427 94.3686 68.4817 92.9545 67.6653C91.5256 66.8403 89.8882 66.5653 88.757 67.2184C87.6109 67.8801 88.0723 68.834 89.5012 69.659C90.9153 70.4755 92.5675 70.7419 93.7136 70.0801ZM97.8296 64.0944L102.503 66.7929L100.3 68.0647L92.218 63.3983L94.3168 62.1866L95.7308 63.003L95.8201 62.9515C95.2545 62.1952 95.5373 61.3616 96.7281 60.6741C98.4101 59.703 100.673 59.7202 102.548 60.8202L107.698 63.7936L105.51 65.0569L100.747 62.3069C99.7497 61.7311 98.6036 61.7054 97.6956 62.2296C96.7728 62.7624 96.7579 63.4757 97.8296 64.0944ZM112.358 61.1035L101.581 54.8816L105.808 52.441C108.264 51.023 111.048 51.0144 113.176 52.2433C114.65 53.0941 115.044 54.1038 114.337 55.1136L120.827 56.2136L118.356 57.6402L112.477 56.6175L110.765 57.6058L114.59 59.8144L112.358 61.1035ZM108.949 56.5574L110.527 55.6464C111.852 54.8816 111.941 54.1941 110.869 53.5753C109.783 52.948 108.547 52.9738 107.223 53.7386L105.645 54.6495L108.949 56.5574ZM123.484 54.6795L121.073 56.0716L114.033 47.6927L116.905 46.0341L131.403 50.1076L129.007 51.4912L125.717 50.5201L121.817 52.7716L123.484 54.6795ZM120.641 51.4396L123.41 49.8412L117.932 48.2427L117.858 48.2857L120.641 51.4396ZM131.664 41.518C130.354 41.1055 128.91 41.2172 127.734 41.8961C126.067 42.8586 126.216 44.2508 128.479 45.557C130.756 46.8719 133.152 46.9836 134.864 45.9953C136.405 45.1058 136.449 44.0746 135.117 43.2711L132.78 44.6203L131.098 43.6492L135.594 41.0539L136.933 41.8273C139.761 43.4601 139.553 45.5742 136.829 47.1469C133.807 48.8914 129.64 48.857 126.231 46.889C122.733 44.8695 122.867 42.4203 125.71 40.7789C128.136 39.3781 131.5 39.1547 133.926 40.2117L131.664 41.518Z" fill="white"/>
<defs>
<linearGradient id="paint0_linear_1170_1413" x1="120.362" y1="4.04437" x2="127.881" y2="120.9" gradientUnits="userSpaceOnUse">
<stop stop-color="#FF4A4A"/>
<stop offset="1" stop-color="#EC0C0C"/>
</linearGradient>
<linearGradient id="paint1_linear_1170_1413" x1="-6.27891" y1="162.219" x2="31.875" y2="261.496" gradientUnits="userSpaceOnUse">
<stop stop-color="#E31313"/>
<stop offset="1" stop-color="#FF4A4A" stop-opacity="0.98"/>
</linearGradient>
</defs>
</svg>
