<svg width="605" height="388" viewBox="0 0 605 388" fill="none" xmlns="http://www.w3.org/2000/svg">
<rect width="348.8" height="348.8" transform="matrix(0.866025 0.5 -0.866025 0.5 302.078 0)" fill="white"/>
<path d="M0 174.4L302.07 348.8V387.2L0 212.8V174.4Z" fill="url(#paint0_linear_1184_2195)"/>
<rect width="348.8" height="38.4" transform="matrix(0.866025 -0.5 0 1 302.078 348.801)" fill="url(#paint1_linear_1184_2195)"/>
<path d="M15.9861 211.024V198.58L18.2188 199.87V205.387L18.3677 205.473L22.2824 202.216L24.9765 203.771L20.9576 207.02L25.0212 216.241L22.3419 214.694L19.3501 207.827L18.2188 208.755V212.313L15.9861 211.024ZM28.996 218.536V206.092L33.2233 208.532C35.6793 209.95 37.0785 212.357 37.0785 214.814C37.0785 216.516 36.4012 217.362 35.1732 217.255L37.4655 223.425L34.9946 221.999L32.9405 216.396L31.2287 215.407V219.825L28.996 218.536ZM31.2287 213.311L32.8065 214.221C34.1313 214.986 34.7713 214.72 34.7713 213.482C34.7713 212.228 34.1313 211.171 32.8065 210.406L31.2287 209.495V213.311ZM40.1227 224.96L37.7114 223.567L41.4475 213.281L44.3202 214.939L48.0414 229.531L45.645 228.148L44.8412 224.813L40.9414 222.562L40.1227 224.96ZM41.507 220.877L44.2756 222.476L42.9211 216.933L42.8466 216.89L41.507 220.877ZM51.1899 218.905V231.349L48.9572 230.06V217.616L51.1899 218.905Z" fill="black"/>
<defs>
<linearGradient id="paint0_linear_1184_2195" x1="299.608" y1="348.276" x2="202.773" y2="98.6849" gradientUnits="userSpaceOnUse">
<stop stop-color="#D8D8DA"/>
<stop offset="1" stop-color="#E9E9E9"/>
</linearGradient>
<linearGradient id="paint1_linear_1184_2195" x1="151.909" y1="14.1804" x2="153.424" y2="39.7196" gradientUnits="userSpaceOnUse">
<stop stop-color="#BABABA"/>
<stop offset="1" stop-color="#CCCCCC"/>
</linearGradient>
</defs>
</svg>
