<svg width="605" height="388" viewBox="0 0 605 388" fill="none" xmlns="http://www.w3.org/2000/svg">
<rect width="348.8" height="348.8" transform="matrix(0.866025 0.5 -0.866025 0.5 302.93 0.265625)" fill="url(#paint0_linear_1170_1439)"/>
<path d="M0.855469 174.664L302.925 349.064V387.464L0.855469 213.064V174.664Z" fill="#F72422"/>
<path d="M302.93 349.066L604.999 174.666V213.066L302.93 387.466V349.066Z" fill="url(#paint1_linear_1170_1439)"/>
<path d="M16.3904 209.505V197.061L18.6231 198.35V203.867L18.772 203.953L22.6867 200.696L25.3808 202.252L21.3619 205.5L25.4255 214.721L22.7462 213.174L19.7544 206.308L18.6231 207.236V210.794L16.3904 209.505ZM32.9876 219.276C30.5464 217.858 29.0208 215.044 29.0282 212.161C29.0208 209.277 30.5464 208.225 32.9876 209.634C35.4361 211.048 36.9544 213.858 36.9618 216.741C36.9544 219.624 35.4361 220.681 32.9876 219.276ZM31.2609 213.45C31.2609 215.082 31.8489 216.634 33.0024 217.308C34.1262 217.948 34.7216 217.08 34.7142 215.443C34.7216 213.806 34.1262 212.234 33.0024 211.585C31.8489 210.919 31.2609 211.808 31.2609 213.45ZM40.2442 217.88V223.277L38.0412 222.005V212.672L40.14 213.884V215.517L40.2293 215.568C40.594 214.704 41.4573 214.524 42.6555 215.216C44.345 216.191 45.4464 218.159 45.439 220.329V226.276L43.2509 225.013V219.513C43.2435 218.357 42.7076 217.36 41.7922 216.831C40.8768 216.303 40.2442 216.651 40.2442 217.88ZM50.0985 228.966V216.522L54.3258 218.963C56.7744 220.377 58.181 222.779 58.181 225.245C58.181 226.947 57.5037 227.793 56.2757 227.694L58.568 233.856L56.0971 232.429L54.0356 226.822L52.3313 225.838V230.255L50.0985 228.966ZM52.3313 223.741L53.9091 224.652C55.2338 225.417 55.8813 225.163 55.8738 223.913C55.8813 222.663 55.2338 221.61 53.9091 220.836L52.3313 219.925V223.741ZM61.2252 235.39L58.8139 233.998L62.55 223.711L65.4228 225.37L69.144 239.962L66.7475 238.578L65.9363 235.24L62.0365 232.988L61.2252 235.39ZM62.6021 231.304L65.3707 232.902L64.0236 227.364L63.9492 227.321L62.6021 231.304ZM72.2924 229.336V241.78L70.0597 240.491V228.047L72.2924 229.336Z" fill="white"/>
<defs>
<linearGradient id="paint0_linear_1170_1439" x1="223.392" y1="209.069" x2="-442.364" y2="188.685" gradientUnits="userSpaceOnUse">
<stop stop-color="#FF3D2F"/>
<stop offset="1" stop-color="#EC0C0C"/>
</linearGradient>
<linearGradient id="paint1_linear_1170_1439" x1="-176.733" y1="632.018" x2="-132.963" y2="701.233" gradientUnits="userSpaceOnUse">
<stop stop-color="#E31313"/>
<stop offset="1" stop-color="#FF4A4A" stop-opacity="0.98"/>
</linearGradient>
</defs>
</svg>
