<svg width="605" height="389" viewBox="0 0 605 389" fill="none" xmlns="http://www.w3.org/2000/svg">
<rect width="348.8" height="348.8" transform="matrix(0.866025 0.5 -0.866025 0.5 302.93 0.898438)" fill="url(#paint0_linear_1187_6791)"/>
<path d="M0.851562 175.297L302.921 349.697V388.097L0.851562 213.697V175.297Z" fill="url(#paint1_linear_1187_6791)"/>
<path d="M302.93 349.699L604.999 175.299V213.699L302.93 388.099V349.699Z" fill="url(#paint2_linear_1187_6791)"/>
<path d="M16.3884 209.923V197.479L18.6212 198.768V204.285L18.77 204.371L22.6847 201.114L25.3789 202.67L21.36 205.918L25.4235 215.139L22.7443 213.592L19.7524 206.726L18.6212 207.654V211.212L16.3884 209.923ZM31.6311 206.279V218.723L29.3984 217.434V204.99L31.6311 206.279ZM35.3005 215.445V220.842L33.0975 219.57V210.237L35.1963 211.449V213.081L35.2856 213.133C35.6577 212.265 36.521 212.093 37.7118 212.781C39.3938 213.752 40.5102 215.72 40.4953 217.894V223.841L38.3072 222.577V217.077C38.3072 215.926 37.7565 214.92 36.8485 214.396C35.9257 213.863 35.3005 214.207 35.3005 215.445ZM46.2039 217.804V219.712L44.5964 218.784V226.209L42.3934 224.937V217.512L41.2473 216.85V214.942L42.3934 215.604V214.899C42.3934 212.94 43.4205 212.501 45.0429 213.438C45.549 213.73 45.9658 214.023 46.3528 214.349V216.274C46.0402 216.059 45.802 215.905 45.6829 215.836C44.9685 215.423 44.5964 215.535 44.5964 216.309V216.876L46.2039 217.804ZM47.1941 227.708V218.375L49.3226 219.604V221.22L49.4119 221.272C49.7096 220.292 50.4538 220.12 51.3618 220.644C51.5851 220.773 51.8679 220.971 52.0614 221.134V223.403C51.853 223.214 51.4362 222.904 51.1236 222.724C50.1264 222.148 49.397 222.535 49.397 223.669V228.98L47.1941 227.708ZM52.218 227.996C52.218 225.917 53.6767 226.071 55.2247 226.862C55.8052 227.154 56.8918 227.721 57.2342 227.902V227.146C57.2193 226.364 56.7578 225.633 55.9392 225.16C55.1949 224.731 54.7186 224.851 54.5995 225.418L52.5008 224.207C52.6347 222.668 53.8553 222.101 55.9987 223.339C57.7551 224.353 59.4222 226.226 59.4222 228.478V234.768L57.3383 233.565V232.276L57.2788 232.242C56.8769 232.869 56.1178 233.032 54.9121 232.336C53.3641 231.442 52.218 229.853 52.218 227.996ZM54.3316 229.148C54.3316 229.87 54.8377 230.54 55.5373 230.944C56.5346 231.52 57.249 231.159 57.2342 230.171V229.483C56.8992 229.307 55.9615 228.826 55.5819 228.649C54.8228 228.297 54.3316 228.426 54.3316 229.148Z" fill="white"/>
<defs>
<linearGradient id="paint0_linear_1187_6791" x1="123.374" y1="-246.049" x2="485.474" y2="-165.779" gradientUnits="userSpaceOnUse">
<stop stop-color="#FF4747"/>
<stop offset="1" stop-color="#FF3C3C"/>
</linearGradient>
<linearGradient id="paint1_linear_1187_6791" x1="392.009" y1="400.676" x2="438.235" y2="255.591" gradientUnits="userSpaceOnUse">
<stop stop-color="#EE2826"/>
<stop offset="1" stop-color="#E23629"/>
</linearGradient>
<linearGradient id="paint2_linear_1187_6791" x1="257.142" y1="374.276" x2="326.609" y2="456.559" gradientUnits="userSpaceOnUse">
<stop stop-color="#BD0000"/>
<stop offset="1" stop-color="#D10000"/>
</linearGradient>
</defs>
</svg>
