<svg width="606" height="356" viewBox="0 0 606 356" fill="none" xmlns="http://www.w3.org/2000/svg">
<rect width="348.8" height="348.8" transform="matrix(0.866025 0.5 -0.866025 0.5 303.008 0.328125)" fill="url(#paint0_linear_1184_2277)"/>
<rect width="348.8" height="6.4" transform="matrix(0.866025 0.5 0 1 0.9375 174.729)" fill="url(#paint1_linear_1184_2277)"/>
<rect width="348.8" height="6.4" transform="matrix(0.866025 -0.5 0 1 303.008 349.129)" fill="url(#paint2_linear_1184_2277)"/>
<path d="M303.212 330.686L289.497 322.768L292.338 321.127L298.42 324.638L298.609 324.529L297.51 318.141L300.939 316.161L301.962 322.658L314.712 324.047L311.302 326.016L301.83 324.944L302.133 326.782L306.054 329.046L303.212 330.686ZM308.897 311.567L322.612 319.486L319.771 321.127L306.055 313.208L308.897 311.567ZM321.334 313.355L327.282 316.79L324.479 318.408L314.192 312.469L316.863 310.927L318.663 311.966L318.776 311.901C318.056 310.938 318.416 309.877 319.932 309.002C322.073 307.766 324.952 307.788 327.339 309.188L333.894 312.972L331.109 314.58L325.047 311.08C323.778 310.347 322.319 310.315 321.163 310.982C319.989 311.66 319.97 312.568 321.334 313.355ZM330.873 302.839L332.976 304.053L330.93 305.234L339.113 309.959L336.31 311.578L328.126 306.853L326.667 307.695L324.564 306.481L326.023 305.639L325.246 305.19C323.087 303.943 323.257 302.532 325.322 301.34C325.966 300.968 326.553 300.695 327.16 300.476L329.281 301.701C328.846 301.909 328.524 302.073 328.372 302.16C327.463 302.685 327.349 303.167 328.202 303.659L328.827 304.02L330.873 302.839ZM342.42 308.05L332.133 302.111L334.842 300.547L336.623 301.575L336.736 301.509C335.846 300.558 336.13 299.628 337.286 298.961C337.57 298.797 337.968 298.611 338.271 298.502L340.771 299.945C340.43 300.055 339.824 300.317 339.426 300.547C338.157 301.28 338.119 302.33 339.37 303.052L345.223 306.431L342.42 308.05ZM345.934 302.696C343.642 301.373 344.741 299.863 346.597 298.66C347.289 298.206 348.605 297.369 349.022 297.107L348.189 296.626C347.317 296.144 346.218 296.188 345.176 296.79C344.229 297.337 344.059 297.938 344.608 298.43L341.937 299.973C340.327 298.846 340.478 297.14 343.206 295.565C345.442 294.274 348.567 293.629 351.049 295.062L357.983 299.065L355.331 300.596L353.91 299.776L353.834 299.819C354.27 300.662 353.967 301.602 352.432 302.488C350.462 303.626 347.98 303.877 345.934 302.696ZM348.548 301.099C349.344 301.558 350.405 301.427 351.295 300.913C352.565 300.18 352.622 299.163 351.523 298.551L350.765 298.113C350.358 298.37 349.23 299.098 348.795 299.404C347.923 300.016 347.753 300.64 348.548 301.099Z" fill="black"/>
<defs>
<linearGradient id="paint0_linear_1184_2277" x1="355.833" y1="341.511" x2="-446.291" y2="316.951" gradientUnits="userSpaceOnUse">
<stop stop-color="white"/>
<stop offset="1" stop-color="#CECECE"/>
</linearGradient>
<linearGradient id="paint1_linear_1184_2277" x1="345.958" y1="0.149353" x2="339.417" y2="-46.7993" gradientUnits="userSpaceOnUse">
<stop stop-color="#DFDFDF"/>
<stop offset="1" stop-color="#CBCBCB"/>
</linearGradient>
<linearGradient id="paint2_linear_1184_2277" x1="194.562" y1="5.15284" x2="148.753" y2="48.8181" gradientUnits="userSpaceOnUse">
<stop stop-color="#D8D8D8"/>
<stop offset="1" stop-color="#D0D0D0"/>
</linearGradient>
</defs>
</svg>
