<svg width="605" height="356" viewBox="0 0 605 356" fill="none" xmlns="http://www.w3.org/2000/svg">
<rect width="348.8" height="348.8" transform="matrix(0.866025 0.5 -0.866025 0.5 302.883 0.255859)" fill="url(#paint0_linear_1184_1861)"/>
<path d="M0.8125 174.656L302.882 349.056V355.456L0.8125 181.056V174.656Z" fill="#F72422"/>
<path d="M302.883 349.057L604.952 174.657V181.057L302.883 355.457V349.057Z" fill="url(#paint1_linear_1184_1861)"/>
<path d="M303.302 330.87L289.587 322.951L292.428 321.311L298.509 324.821L298.699 324.712L297.6 318.325L301.029 316.345L302.052 322.842L314.802 324.231L311.392 326.2L301.919 325.128L302.223 326.965L306.144 329.229L303.302 330.87ZM308.986 311.751L322.702 319.669L319.86 321.31L306.145 313.391L308.986 311.751ZM321.424 313.539L327.372 316.973L324.568 318.592L314.282 312.653L316.953 311.111L318.753 312.15L318.866 312.084C318.146 311.122 318.506 310.061 320.022 309.186C322.163 307.95 325.042 307.972 327.429 309.372L333.984 313.156L331.199 314.764L325.137 311.264C323.868 310.531 322.409 310.498 321.253 311.165C320.079 311.843 320.06 312.751 321.424 313.539ZM330.963 303.022L333.065 304.236L331.019 305.417L339.203 310.142L336.4 311.761L328.216 307.036L326.757 307.878L324.654 306.664L326.113 305.822L325.336 305.374C323.176 304.127 323.347 302.716 325.412 301.524C326.056 301.152 326.643 300.878 327.249 300.66L329.371 301.885C328.935 302.092 328.613 302.257 328.462 302.344C327.553 302.869 327.439 303.35 328.291 303.842L328.917 304.203L330.963 303.022ZM342.509 308.234L332.223 302.295L334.932 300.731L336.713 301.759L336.826 301.693C335.936 300.741 336.22 299.812 337.376 299.145C337.66 298.981 338.058 298.795 338.361 298.685L340.861 300.129C340.52 300.238 339.914 300.501 339.516 300.731C338.247 301.463 338.209 302.513 339.459 303.235L345.313 306.615L342.509 308.234ZM346.024 302.88C343.732 301.556 344.831 300.047 346.687 298.844C347.379 298.39 348.695 297.553 349.112 297.29L348.278 296.809C347.407 296.328 346.308 296.372 345.266 296.973C344.319 297.52 344.149 298.122 344.698 298.614L342.027 300.156C340.417 299.03 340.568 297.323 343.296 295.748C345.531 294.458 348.657 293.812 351.139 295.245L358.073 299.248L355.42 300.78L354 299.959L353.924 300.003C354.36 300.845 354.056 301.786 352.522 302.672C350.552 303.809 348.07 304.061 346.024 302.88ZM348.638 301.283C349.434 301.742 350.495 301.611 351.385 301.097C352.655 300.364 352.711 299.347 351.613 298.734L350.855 298.297C350.448 298.554 349.32 299.281 348.885 299.587C348.013 300.2 347.843 300.823 348.638 301.283Z" fill="#FFDAD8"/>
<defs>
<linearGradient id="paint0_linear_1184_1861" x1="223.392" y1="209.069" x2="-442.364" y2="188.685" gradientUnits="userSpaceOnUse">
<stop stop-color="#FF3D2F"/>
<stop offset="1" stop-color="#EC0C0C"/>
</linearGradient>
<linearGradient id="paint1_linear_1184_1861" x1="-176.78" y1="626.993" x2="-169.732" y2="639.008" gradientUnits="userSpaceOnUse">
<stop stop-color="#E31313"/>
<stop offset="1" stop-color="#FF4A4A" stop-opacity="0.98"/>
</linearGradient>
</defs>
</svg>
