<svg width="605" height="356" viewBox="0 0 605 356" fill="none" xmlns="http://www.w3.org/2000/svg">
<rect width="348.8" height="348.8" transform="matrix(0.866025 0.5 -0.866025 0.5 302.742 0.623047)" fill="#505050"/>
<rect width="348.8" height="6.4" transform="matrix(0.866025 0.5 0 1 0.671875 175.023)" fill="#444444"/>
<rect width="348.8" height="6.4" transform="matrix(0.866025 -0.5 0 1 302.742 349.424)" fill="#444444"/>
<path d="M303.16 331.237L289.444 323.318L292.286 321.678L298.367 325.189L298.556 325.079L297.458 318.692L300.886 316.712L301.909 323.209L314.659 324.598L311.249 326.567L301.777 325.495L302.08 327.332L306.001 329.596L303.16 331.237ZM324.492 319.162C321.385 320.955 317.312 320.835 314.129 318.998C310.947 317.16 310.757 314.819 313.864 313.026C316.971 311.232 321.044 311.33 324.227 313.168C327.409 315.005 327.599 317.368 324.492 319.162ZM322.332 317.893C323.772 317.062 323.166 315.859 321.366 314.819C319.547 313.769 317.463 313.419 316.024 314.251C314.565 315.093 315.152 316.307 316.971 317.357C318.771 318.396 320.873 318.735 322.332 317.893ZM327.571 310.275L333.519 313.709L330.715 315.328L320.429 309.389L323.1 307.847L324.899 308.886L325.013 308.82C324.293 307.858 324.653 306.797 326.169 305.922C328.309 304.686 331.189 304.708 333.576 306.108L340.131 309.892L337.346 311.5L331.284 308C330.014 307.267 328.556 307.234 327.4 307.901C326.226 308.579 326.207 309.487 327.571 310.275ZM346.288 296.012C344.545 295.268 342.443 295.41 340.851 296.329C338.711 297.565 338.957 299.326 341.836 300.988C344.792 302.695 347.785 302.782 349.888 301.568C351.46 300.66 351.744 299.49 350.551 298.473L353.449 296.821C355.666 298.473 355.855 301.032 352.369 303.045C348.694 305.166 343.409 305.243 338.938 302.662C334.467 300.081 334.657 296.996 338.275 294.907C341.439 293.081 345.644 292.752 349.168 294.349L346.288 296.012ZM348.742 289.083L362.458 297.001L359.654 298.62L345.938 290.701L348.742 289.083ZM369.079 293.419C365.972 295.213 361.899 295.093 358.717 293.255C355.534 291.418 355.344 289.077 358.451 287.283C361.558 285.489 365.631 285.588 368.814 287.425C371.997 289.263 372.186 291.625 369.079 293.419ZM366.919 292.15C368.359 291.319 367.753 290.116 365.953 289.077C364.135 288.027 362.051 287.677 360.611 288.508C359.152 289.35 359.74 290.564 361.558 291.614C363.358 292.654 365.461 292.993 366.919 292.15ZM377.519 283.253L371.609 279.84L374.412 278.221L384.699 284.16L382.009 285.713L380.152 284.642L380.039 284.707C380.759 285.67 380.456 286.763 378.902 287.66C376.837 288.853 373.977 288.82 371.571 287.431L365.016 283.646L367.82 282.028L373.882 285.528C375.094 286.228 376.572 286.271 377.671 285.637C378.694 285.046 378.921 284.062 377.519 283.253ZM390.449 281.037C388.1 282.394 384.387 282.372 380.958 280.392C377.434 278.358 377.586 276.236 379.859 274.923C381.583 273.928 383.421 274.048 384.633 274.311L384.728 274.256L379.575 271.281L382.379 269.662L396.094 277.581L393.329 279.178L391.68 278.227L391.548 278.303C392.002 279.025 392.116 280.075 390.449 281.037ZM389.085 279.244C390.487 278.434 390.051 277.264 388.195 276.192C386.338 275.12 384.368 274.902 382.966 275.711C381.545 276.531 382.019 277.68 383.819 278.719C385.637 279.769 387.664 280.064 389.085 279.244Z" fill="#969696"/>
<g clip-path="url(#clip0_1135_337)">
<path d="M302.736 69.5352L322.135 80.7352" stroke="#6A6A6A" stroke-width="4.8" stroke-linecap="round" stroke-linejoin="round"/>
<path d="M287.944 83.3937C284.302 83.3711 280.717 82.8703 277.459 81.9291C274.202 80.988 271.358 79.6312 269.144 77.9616C266.929 76.2919 265.402 74.3532 264.677 72.2923C263.952 70.2313 264.05 68.1022 264.961 66.0662C265.873 64.0301 267.575 62.1406 269.939 60.5406C272.303 58.9407 275.267 57.6723 278.605 56.8316C281.944 55.9909 285.57 55.5998 289.21 55.6881C292.849 55.7763 296.406 56.3416 299.61 57.3411L303.951 54.8351C306.292 53.4832 309.324 52.6019 312.599 52.3213C315.874 52.0407 319.219 52.3757 322.139 53.2769C325.059 54.1781 327.4 55.5976 328.815 57.3257C330.23 59.0539 330.645 60.999 329.999 62.8739" stroke="#6A6A6A" stroke-width="4.8" stroke-linecap="round" stroke-linejoin="round"/>
<path d="M302.742 80.7348L302.742 69.5348L322.141 69.5348" stroke="#6A6A6A" stroke-width="4.8" stroke-linecap="round" stroke-linejoin="round"/>
</g>
<defs>
<clipPath id="clip0_1135_337">
<rect width="67.2" height="67.2" fill="white" transform="matrix(0.866025 -0.5 0.866025 0.5 242.117 68.1348)"/>
</clipPath>
</defs>
</svg>
