<svg width="605" height="356" viewBox="0 0 605 356" fill="none" xmlns="http://www.w3.org/2000/svg">
<rect width="348.8" height="348.8" transform="matrix(0.866025 0.5 -0.866025 0.5 302.882 0.255859)" fill="url(#paint0_linear_1135_632)"/>
<path d="M0.813477 174.656L302.883 349.056V355.456L0.813477 181.056V174.656Z" fill="#F72422"/>
<path d="M302.882 349.057L604.951 174.657V181.057L302.882 355.457V349.057Z" fill="url(#paint1_linear_1135_632)"/>
<path d="M303.301 330.87L289.586 322.951L292.427 321.311L298.508 324.821L298.698 324.712L297.599 318.325L301.028 316.345L302.051 322.842L314.801 324.231L311.391 326.2L301.918 325.128L302.222 326.965L306.143 329.229L303.301 330.87ZM324.633 318.794C321.527 320.588 317.454 320.468 314.271 318.63C311.088 316.793 310.899 314.452 314.006 312.659C317.113 310.865 321.186 310.963 324.368 312.801C327.551 314.638 327.74 317.001 324.633 318.794ZM322.474 317.526C323.914 316.694 323.307 315.491 321.508 314.452C319.689 313.402 317.605 313.052 316.165 313.884C314.707 314.726 315.294 315.94 317.113 316.99C318.912 318.029 321.015 318.368 322.474 317.526ZM327.712 309.908L333.661 313.342L330.857 314.961L320.57 309.022L323.241 307.479L325.041 308.518L325.155 308.453C324.435 307.49 324.795 306.429 326.31 305.554C328.451 304.318 331.331 304.34 333.718 305.74L340.272 309.525L337.487 311.133L331.425 307.633C330.156 306.9 328.697 306.867 327.542 307.534C326.367 308.212 326.348 309.12 327.712 309.908ZM346.43 295.645C344.687 294.901 342.584 295.043 340.993 295.962C338.852 297.198 339.099 298.959 341.978 300.621C344.933 302.327 347.927 302.415 350.029 301.201C351.602 300.293 351.886 299.123 350.692 298.106L353.591 296.454C355.807 298.106 355.997 300.665 352.511 302.677C348.836 304.799 343.55 304.876 339.08 302.295C334.609 299.713 334.798 296.629 338.417 294.54C341.58 292.713 345.786 292.385 349.309 293.982L346.43 295.645ZM348.884 288.715L362.599 296.634L359.796 298.253L346.08 290.334L348.884 288.715ZM369.221 293.052C366.114 294.846 362.041 294.725 358.858 292.888C355.676 291.05 355.486 288.71 358.593 286.916C361.7 285.122 365.773 285.221 368.955 287.058C372.138 288.896 372.328 291.258 369.221 293.052ZM367.061 291.783C368.501 290.952 367.895 289.749 366.095 288.71C364.276 287.66 362.192 287.31 360.753 288.141C359.294 288.983 359.881 290.197 361.7 291.247C363.5 292.286 365.602 292.625 367.061 291.783ZM377.661 282.885L371.75 279.473L374.554 277.854L384.841 283.793L382.151 285.346L380.294 284.274L380.18 284.34C380.9 285.303 380.597 286.396 379.044 287.293C376.979 288.485 374.118 288.453 371.712 287.063L365.158 283.279L367.961 281.66L374.023 285.16C375.236 285.86 376.714 285.904 377.812 285.27C378.835 284.679 379.063 283.695 377.661 282.885ZM390.591 280.67C388.242 282.027 384.528 282.005 381.1 280.025C377.576 277.991 377.727 275.869 380.001 274.556C381.725 273.561 383.562 273.681 384.775 273.944L384.869 273.889L379.717 270.914L382.52 269.295L396.236 277.214L393.47 278.811L391.822 277.859L391.689 277.936C392.144 278.658 392.258 279.708 390.591 280.67ZM389.227 278.877C390.629 278.067 390.193 276.897 388.336 275.825C386.48 274.753 384.51 274.534 383.108 275.344C381.687 276.164 382.16 277.312 383.96 278.352C385.779 279.402 387.806 279.697 389.227 278.877Z" fill="#FFDAD8"/>
<defs>
<linearGradient id="paint0_linear_1135_632" x1="223.392" y1="209.069" x2="-442.364" y2="188.685" gradientUnits="userSpaceOnUse">
<stop stop-color="#FF3D2F"/>
<stop offset="1" stop-color="#EC0C0C"/>
</linearGradient>
<linearGradient id="paint1_linear_1135_632" x1="-176.781" y1="626.993" x2="-169.733" y2="639.008" gradientUnits="userSpaceOnUse">
<stop stop-color="#E31313"/>
<stop offset="1" stop-color="#FF4A4A" stop-opacity="0.98"/>
</linearGradient>
</defs>
</svg>
