<svg width="606" height="356" viewBox="0 0 606 356" fill="none" xmlns="http://www.w3.org/2000/svg">
<rect width="348.8" height="348.8" transform="matrix(0.866025 0.5 -0.866025 0.5 303.004 0.328125)" fill="url(#paint0_linear_1171_1461)"/>
<rect width="348.8" height="6.4" transform="matrix(0.866025 0.5 0 1 0.933594 174.727)" fill="url(#paint1_linear_1171_1461)"/>
<rect width="348.8" height="6.4" transform="matrix(0.866025 -0.5 0 1 303.004 349.129)" fill="url(#paint2_linear_1171_1461)"/>
<path d="M303.207 330.684L289.491 322.766L292.333 321.125L298.414 324.636L298.603 324.527L297.504 318.139L300.933 316.159L301.956 322.656L314.706 324.045L311.296 326.014L301.824 324.942L302.127 326.78L306.048 329.044L303.207 330.684ZM324.539 318.609C321.432 320.403 317.359 320.282 314.176 318.445C310.993 316.607 310.804 314.267 313.911 312.473C317.018 310.679 321.091 310.778 324.273 312.615C327.456 314.453 327.646 316.815 324.539 318.609ZM322.379 317.34C323.819 316.509 323.213 315.306 321.413 314.267C319.594 313.217 317.51 312.867 316.071 313.698C314.612 314.54 315.199 315.754 317.018 316.804C318.817 317.843 320.92 318.182 322.379 317.34ZM327.618 309.722L333.566 313.156L330.762 314.775L320.476 308.836L323.147 307.294L324.946 308.333L325.06 308.267C324.34 307.305 324.7 306.244 326.216 305.369C328.356 304.133 331.236 304.155 333.623 305.555L340.178 309.339L337.393 310.947L331.331 307.447C330.061 306.714 328.603 306.681 327.447 307.349C326.272 308.027 326.254 308.935 327.618 309.722ZM346.335 295.459C344.592 294.715 342.49 294.858 340.898 295.776C338.758 297.012 339.004 298.773 341.883 300.436C344.839 302.142 347.832 302.229 349.935 301.015C351.507 300.108 351.791 298.937 350.598 297.92L353.496 296.268C355.713 297.92 355.902 300.479 352.416 302.492C348.741 304.614 343.456 304.69 338.985 302.109C334.514 299.528 334.703 296.443 338.322 294.354C341.485 292.528 345.691 292.2 349.215 293.797L346.335 295.459ZM348.789 288.53L362.505 296.449L359.701 298.067L345.985 290.149L348.789 288.53ZM369.126 292.866C366.019 294.66 361.946 294.54 358.763 292.702C355.581 290.865 355.391 288.524 358.498 286.731C361.605 284.937 365.678 285.035 368.861 286.873C372.043 288.71 372.233 291.073 369.126 292.866ZM366.966 291.598C368.406 290.766 367.8 289.563 366 288.524C364.182 287.474 362.098 287.124 360.658 287.956C359.199 288.798 359.786 290.012 361.605 291.062C363.405 292.101 365.508 292.44 366.966 291.598ZM377.566 282.7L371.655 279.287L374.459 277.669L384.746 283.608L382.056 285.161L380.199 284.089L380.086 284.154C380.806 285.117 380.502 286.211 378.949 287.108C376.884 288.3 374.023 288.267 371.618 286.878L365.063 283.094L367.867 281.475L373.929 284.975C375.141 285.675 376.619 285.719 377.718 285.084C378.741 284.494 378.968 283.509 377.566 282.7ZM390.496 280.485C388.147 281.841 384.434 281.819 381.005 279.839C377.481 277.805 377.633 275.683 379.906 274.371C381.63 273.375 383.468 273.496 384.68 273.758L384.775 273.703L379.622 270.728L382.426 269.11L396.141 277.028L393.375 278.625L391.727 277.674L391.595 277.75C392.049 278.472 392.163 279.522 390.496 280.485ZM389.132 278.691C390.534 277.882 390.098 276.711 388.242 275.639C386.385 274.568 384.415 274.349 383.013 275.158C381.592 275.978 382.066 277.127 383.865 278.166C385.684 279.216 387.711 279.511 389.132 278.691Z" fill="black"/>
<defs>
<linearGradient id="paint0_linear_1171_1461" x1="355.833" y1="341.511" x2="-446.291" y2="316.951" gradientUnits="userSpaceOnUse">
<stop stop-color="white"/>
<stop offset="1" stop-color="#CECECE"/>
</linearGradient>
<linearGradient id="paint1_linear_1171_1461" x1="345.958" y1="0.149353" x2="339.417" y2="-46.7993" gradientUnits="userSpaceOnUse">
<stop stop-color="#DFDFDF"/>
<stop offset="1" stop-color="#CBCBCB"/>
</linearGradient>
<linearGradient id="paint2_linear_1171_1461" x1="194.562" y1="5.15284" x2="148.753" y2="48.8181" gradientUnits="userSpaceOnUse">
<stop stop-color="#D8D8D8"/>
<stop offset="1" stop-color="#D0D0D0"/>
</linearGradient>
</defs>
</svg>
