<svg width="605" height="372" viewBox="0 0 605 372" fill="none" xmlns="http://www.w3.org/2000/svg">
<rect width="348.8" height="348.8" transform="matrix(0.866025 0.5 -0.866025 0.5 302.875 0.898438)" fill="url(#paint0_linear_1187_5794)"/>
<path d="M0.804688 175.297L302.874 349.697V371.097L0.804688 196.697V175.297Z" fill="url(#paint1_linear_1187_5794)"/>
<path d="M302.875 349.699L604.945 175.299V196.699L302.875 371.099V349.699Z" fill="url(#paint2_linear_1187_5794)"/>
<path d="M303.291 331.513L289.575 323.594L292.417 321.953L298.498 325.464L298.687 325.355L297.588 318.967L301.017 316.988L302.04 323.484L314.79 324.873L311.38 326.842L301.908 325.77L302.211 327.608L306.132 329.872L303.291 331.513ZM319.849 321.953L306.133 314.034L311.513 310.928C314.639 309.123 318.182 309.112 320.891 310.676C322.766 311.759 323.268 313.044 322.368 314.329L330.628 315.729L327.483 317.545L320 316.243L317.822 317.501L322.69 320.312L319.849 321.953ZM315.51 316.167L317.519 315.007C319.205 314.034 319.318 313.159 317.954 312.371C316.571 311.573 314.999 311.606 313.313 312.579L311.305 313.739L315.51 316.167ZM334.01 313.777L330.941 315.549L321.98 304.885L325.637 302.774L344.088 307.958L341.038 309.719L336.852 308.483L331.888 311.349L334.01 313.777ZM330.392 309.653L333.915 307.619L326.944 305.585L326.849 305.639L330.392 309.653ZM334.38 297.726L348.095 305.644L345.254 307.285L331.538 299.366L334.38 297.726Z" fill="#FFDAD8"/>
<defs>
<linearGradient id="paint0_linear_1187_5794" x1="123.374" y1="-246.049" x2="485.474" y2="-165.779" gradientUnits="userSpaceOnUse">
<stop stop-color="#FF4747"/>
<stop offset="1" stop-color="#FF3C3C"/>
</linearGradient>
<linearGradient id="paint1_linear_1187_5794" x1="391.963" y1="400.878" x2="424.446" y2="325.886" gradientUnits="userSpaceOnUse">
<stop stop-color="#EE2826"/>
<stop offset="1" stop-color="#E23629"/>
</linearGradient>
<linearGradient id="paint2_linear_1187_5794" x1="257.087" y1="375.099" x2="294.428" y2="426.526" gradientUnits="userSpaceOnUse">
<stop stop-color="#BD0000"/>
<stop offset="1" stop-color="#D10000"/>
</linearGradient>
</defs>
</svg>
