<svg width="606" height="371" viewBox="0 0 606 371" fill="none" xmlns="http://www.w3.org/2000/svg">
<rect width="348.8" height="348.8" transform="matrix(0.866025 0.5 -0.866025 0.5 303.008 0.328125)" fill="url(#paint0_linear_1187_5145)"/>
<path d="M0.9375 174.727L303.007 349.127V370.527L0.9375 196.127V174.727Z" fill="url(#paint1_linear_1187_5145)"/>
<path d="M303.008 349.129L605.077 174.729V196.129L303.008 370.529V349.129Z" fill="url(#paint2_linear_1187_5145)"/>
<path d="M303.212 330.684L289.497 322.766L292.338 321.125L298.42 324.636L298.609 324.527L297.51 318.139L300.939 316.159L301.962 322.656L314.712 324.045L311.302 326.014L301.83 324.942L302.133 326.78L306.054 329.044L303.212 330.684ZM319.771 321.125L306.055 313.206L311.435 310.1C314.561 308.295 318.103 308.284 320.813 309.848C322.688 310.931 323.19 312.216 322.29 313.501L330.55 314.901L327.405 316.717L319.922 315.415L317.744 316.673L322.612 319.484L319.771 321.125ZM315.432 315.339L317.44 314.179C319.126 313.206 319.24 312.331 317.876 311.543C316.493 310.745 314.921 310.778 313.235 311.751L311.227 312.911L315.432 315.339ZM333.932 312.949L330.863 314.72L321.902 304.056L325.558 301.945L344.01 307.13L340.96 308.891L336.773 307.655L331.81 310.52L333.932 312.949ZM330.313 308.825L333.837 306.791L326.866 304.756L326.771 304.811L330.313 308.825ZM334.302 296.898L348.017 304.816L345.176 306.457L331.46 298.538L334.302 296.898Z" fill="black"/>
<defs>
<linearGradient id="paint0_linear_1187_5145" x1="355.833" y1="341.511" x2="-446.291" y2="316.951" gradientUnits="userSpaceOnUse">
<stop stop-color="white"/>
<stop offset="1" stop-color="#CECECE"/>
</linearGradient>
<linearGradient id="paint1_linear_1187_5145" x1="334.438" y1="459.474" x2="392.653" y2="234.138" gradientUnits="userSpaceOnUse">
<stop stop-color="#DBDBDB"/>
<stop offset="0.538207" stop-color="#E6E6E6"/>
<stop offset="0.935976" stop-color="#DDDDDD"/>
</linearGradient>
<linearGradient id="paint2_linear_1187_5145" x1="302.937" y1="408.476" x2="496.153" y2="53.4562" gradientUnits="userSpaceOnUse">
<stop stop-color="#C3C3C3"/>
<stop offset="1" stop-color="#DFDFDF"/>
</linearGradient>
</defs>
</svg>
