<svg width="408" height="417" viewBox="0 0 408 417" fill="none" xmlns="http://www.w3.org/2000/svg">
<rect width="196.8" height="180.8" transform="matrix(-0.866025 -0.5 0 1 374.125 137.274)" fill="url(#paint0_linear_174_2668)"/>
<path d="M0.000976562 118.074L33.2559 137.275L203.691 38.8743L374.123 137.275L407.379 118.074L236.944 19.6741L236.943 19.675L203.688 0.47583L0.000976562 118.074Z" fill="white"/>
<rect width="196.8" height="180.8" transform="matrix(0.866025 -0.5 0 1 33.2559 137.274)" fill="url(#paint1_linear_174_2668)"/>
<rect width="196.8" height="196.8" transform="matrix(0.866025 0.5 -0.866025 0.5 203.693 181.274)" fill="url(#paint2_linear_174_2668)"/>
<path d="M33.2617 318.074L203.695 416.475V378.074L33.2617 279.674V318.074ZM0.00488281 298.874L33.2607 318.074V137.274L0.00488281 118.074V298.874Z" fill="url(#paint3_linear_174_2668)"/>
<path d="M374.126 137.274V279.675L203.693 378.074V416.475L374.128 318.074V318.072L407.381 298.874V118.074L374.126 137.274Z" fill="url(#paint4_linear_174_2668)"/>
<path d="M63.2841 321.994V309.55L65.5168 310.839V316.356L65.6656 316.442L69.5803 313.185L72.2745 314.741L68.2556 317.989L72.3191 327.21L69.6399 325.663L66.648 318.797L65.5168 319.725V323.283L63.2841 321.994ZM79.8812 331.765C77.4401 330.356 75.9219 327.537 75.9219 324.65C75.9219 321.762 77.4401 320.714 79.8812 322.123C82.3223 323.532 83.8555 326.343 83.8555 329.23C83.8555 332.118 82.3223 333.175 79.8812 331.765ZM79.8961 329.797C81.0274 330.45 81.6079 329.565 81.6079 327.932C81.6079 326.282 81.0274 324.727 79.8961 324.074C78.75 323.412 78.1546 324.289 78.1546 325.939C78.1546 327.572 78.75 329.136 79.8961 329.797ZM87.1379 330.369V335.766L84.9349 334.494V325.161L87.0337 326.373V328.006L87.123 328.057C87.4951 327.189 88.3584 327.017 89.5492 327.705C91.2312 328.676 92.3476 330.644 92.3327 332.818V338.765L90.1446 337.502V332.002C90.1446 330.85 89.5939 329.845 88.6859 329.321C87.763 328.788 87.1379 329.131 87.1379 330.369ZM102.842 335.947C102.753 334.915 102.068 333.936 100.981 333.308C99.8501 332.655 99.2249 332.896 99.21 333.712C99.1952 334.597 100.014 335.483 100.937 336.256L101.904 337.09C103.75 338.636 105.134 340.519 105.134 342.598C105.134 344.884 103.586 345.434 100.966 343.922C98.3616 342.418 96.6945 340.063 96.635 337.365L98.8082 338.619C98.8826 339.917 99.7459 341.051 100.937 341.739C102.113 342.418 102.872 342.22 102.872 341.292C102.872 340.45 102.202 339.668 101.026 338.645L99.8501 337.64C98.0341 336.076 96.9178 334.383 96.9178 332.561C96.9178 330.292 98.6444 329.794 100.996 331.151C103.378 332.526 104.956 334.967 104.985 337.184L102.842 335.947ZM110.5 339.921V341.829L108.982 340.953V345.507C108.982 346.246 109.295 346.616 109.741 346.891C109.965 347.02 110.352 347.226 110.62 347.346V349.357C110.381 349.271 109.994 349.082 109.444 348.764C107.851 347.845 106.764 346.393 106.779 344.596V339.681L105.663 339.036V337.128L106.779 337.773V335.539L108.982 336.81V339.045L110.5 339.921ZM116.76 348.898V343.535L118.963 344.807V354.14L116.849 352.92V351.235L116.76 351.184C116.388 352.052 115.524 352.275 114.304 351.57C112.681 350.634 111.58 348.674 111.58 346.492V340.545L113.783 341.817V347.317C113.783 348.417 114.334 349.439 115.197 349.938C116.001 350.402 116.76 350.17 116.76 348.898ZM123.347 356.826C121.501 355.76 120.057 353.225 120.057 350.114C120.057 346.917 121.56 346.187 123.347 347.218C124.701 348 125.341 349.298 125.639 350.226L125.713 350.269V345.594L127.916 346.866V359.309L125.743 358.055V356.559L125.639 356.499C125.326 357.092 124.657 357.582 123.347 356.826ZM124.031 355.193C125.133 355.829 125.758 355.073 125.758 353.388C125.758 351.704 125.133 350.277 124.031 349.641C122.915 348.997 122.32 349.77 122.32 351.403C122.32 353.053 122.915 354.548 124.031 355.193ZM129.383 360.156V350.823L131.586 352.095V361.428L129.383 360.156ZM130.484 350.239C129.814 349.852 129.279 348.958 129.279 348.254C129.279 347.532 129.814 347.257 130.484 347.643C131.139 348.022 131.675 348.915 131.675 349.637C131.675 350.342 131.139 350.617 130.484 350.239ZM136.625 364.526C134.183 363.117 132.665 360.298 132.665 357.41C132.665 354.523 134.183 353.474 136.625 354.884C139.066 356.293 140.599 359.103 140.599 361.991C140.599 364.878 139.066 365.935 136.625 364.526ZM136.639 362.558C137.771 363.211 138.351 362.326 138.351 360.693C138.351 359.043 137.771 357.488 136.639 356.835C135.493 356.173 134.898 357.049 134.898 358.699C134.898 360.332 135.493 361.896 136.639 362.558Z" fill="black"/>
<g clip-path="url(#clip0_174_2668)">
<path d="M113.967 161.276C113.967 159.785 113.967 159.039 114.178 158.329C114.459 157.383 114.999 156.448 115.678 155.731C116.187 155.194 116.832 154.821 118.124 154.076V154.076C119.415 153.33 120.061 152.957 120.57 152.907C121.249 152.84 121.788 153.151 122.07 153.773C122.281 154.239 122.281 154.985 122.281 156.476V156.476C122.281 157.967 122.281 158.712 122.07 159.422C121.788 160.368 121.249 161.303 120.57 162.02C120.061 162.557 119.415 162.93 118.124 163.676V163.676C116.832 164.421 116.187 164.794 115.678 164.844C114.999 164.912 114.459 164.6 114.178 163.978C113.967 163.512 113.967 162.767 113.967 161.276V161.276Z" stroke="#DFDFDF" stroke-width="2.4"/>
<circle cx="4" cy="4" r="4" transform="matrix(0.866025 -0.5 0 1 123.66 141.276)" stroke="#DFDFDF" stroke-width="2.4"/>
<circle cx="4" cy="4" r="4" transform="matrix(0.866025 -0.5 0 1 123.66 162.074)" stroke="#DFDFDF" stroke-width="2.4"/>
<circle cx="4" cy="4" r="4" transform="matrix(0.866025 -0.5 0 1 105.648 172.476)" stroke="#DFDFDF" stroke-width="2.4"/>
<circle cx="4" cy="4" r="4" transform="matrix(0.866025 -0.5 0 1 105.648 151.676)" stroke="#DFDFDF" stroke-width="2.4"/>
<path d="M111.885 155.276L114.656 156.876M111.885 169.676L113.963 166.076M124.356 162.476L122.277 161.276M122.277 151.676L124.356 148.076" stroke="#DFDFDF" stroke-width="2.4" stroke-linecap="square"/>
</g>
<g clip-path="url(#clip1_174_2668)">
<path d="M299.119 153.219C296.962 149.48 294.151 146.256 291.124 144.048C288.098 141.84 285.024 140.773 282.381 141.011" stroke="#F4F4F4" stroke-width="2.4" stroke-linecap="round" stroke-linejoin="round"/>
<path d="M278.238 142.875L278.252 142.883" stroke="#F4F4F4" stroke-width="2.4" stroke-linecap="round" stroke-linejoin="round"/>
<path d="M275.868 147.299C275.349 149.442 275.336 151.985 275.83 154.721C276.324 157.456 277.312 160.308 278.713 163.043C280.113 165.779 281.888 168.322 283.892 170.466C285.897 172.609 288.074 174.293 290.248 175.381C292.422 176.468 294.531 176.929 296.404 176.725C298.277 176.521 299.861 175.658 301.028 174.207C302.195 172.755 302.911 170.756 303.118 168.372C303.326 165.987 303.019 163.285 302.223 160.483" stroke="#F4F4F4" stroke-width="2.4" stroke-linecap="round" stroke-linejoin="round"/>
<path d="M295.198 155.483C294.401 154.096 293.448 152.818 292.398 151.725C291.349 150.633 290.224 149.75 289.093 149.13C287.963 148.51 286.85 148.166 285.823 148.12C284.795 148.073 283.876 148.325 283.119 148.86C282.363 149.394 281.787 150.201 281.425 151.229C281.063 152.258 280.924 153.487 281.016 154.841C281.107 156.196 281.428 157.648 281.958 159.107C282.488 160.567 283.217 162.004 284.099 163.331" stroke="#F4F4F4" stroke-width="2.4" stroke-linecap="round" stroke-linejoin="round"/>
<path d="M289.318 168.475L289.332 168.483" stroke="#F4F4F4" stroke-width="2.4" stroke-linecap="round" stroke-linejoin="round"/>
<path d="M297.619 163.123C297.694 164.689 297.455 166.072 296.92 167.157C296.385 168.242 295.57 168.998 294.543 169.363" stroke="#F4F4F4" stroke-width="2.4" stroke-linecap="round" stroke-linejoin="round"/>
<path d="M289.322 162.075C290.853 162.959 292.093 162.243 292.093 160.475C292.093 158.708 290.853 156.559 289.322 155.675C287.792 154.792 286.551 155.508 286.551 157.275C286.551 159.043 287.792 161.192 289.322 162.075Z" stroke="#F4F4F4" stroke-width="2.4" stroke-linecap="round" stroke-linejoin="round"/>
<path d="M291.275 157.747L299.118 153.219" stroke="#F4F4F4" stroke-width="2.4" stroke-linecap="round" stroke-linejoin="round"/>
</g>
<defs>
<linearGradient id="paint0_linear_174_2668" x1="93.4839" y1="-1.73215" x2="97.186" y2="180.825" gradientUnits="userSpaceOnUse">
<stop stop-color="#D6D6D6"/>
<stop offset="1" stop-color="#EBEBEB"/>
</linearGradient>
<linearGradient id="paint1_linear_174_2668" x1="85.7104" y1="-32.2997" x2="173.044" y2="144.23" gradientUnits="userSpaceOnUse">
<stop stop-color="#BABABA"/>
<stop offset="1" stop-color="#CCCCCC"/>
</linearGradient>
<linearGradient id="paint2_linear_174_2668" x1="132.356" y1="123.92" x2="-249.424" y2="112.607" gradientUnits="userSpaceOnUse">
<stop stop-color="white"/>
<stop offset="1" stop-color="#CECECE"/>
</linearGradient>
<linearGradient id="paint3_linear_174_2668" x1="-55.3044" y1="23.2608" x2="172.68" y2="6.67157" gradientUnits="userSpaceOnUse">
<stop stop-color="#D8D8DA"/>
<stop offset="1" stop-color="#E9E9E9"/>
</linearGradient>
<linearGradient id="paint4_linear_174_2668" x1="371.492" y1="-46.7393" x2="-80.2283" y2="166.59" gradientUnits="userSpaceOnUse">
<stop stop-color="#B9B9BA"/>
<stop offset="1" stop-color="#D8D8DA"/>
</linearGradient>
<clipPath id="clip0_174_2668">
<rect width="38.4" height="38.4" fill="white" transform="matrix(0.866025 -0.5 0 1 101.492 149.276)"/>
</clipPath>
<clipPath id="clip1_174_2668">
<rect width="38.4" height="38.4" fill="white" transform="matrix(0.866025 0.5 0 1 272.693 130.075)"/>
</clipPath>
</defs>
</svg>
