<svg width="408" height="417" viewBox="0 0 408 417" fill="none" xmlns="http://www.w3.org/2000/svg">
<rect width="196.8" height="180.8" transform="matrix(-0.866025 -0.5 0 1 374.125 137.305)" fill="url(#paint0_linear_1187_5316)"/>
<path d="M0 118.106L33.2549 137.307L203.686 38.9092L374.116 137.307L407.371 118.107L236.941 19.709L236.943 19.708L203.688 0.507812L0 118.106Z" fill="white"/>
<rect width="196.8" height="180.8" transform="matrix(0.866025 -0.5 0 1 33.25 137.305)" fill="url(#paint1_linear_1187_5316)"/>
<rect width="196.8" height="196.8" transform="matrix(0.866025 0.5 -0.866025 0.5 203.688 181.305)" fill="url(#paint2_linear_1187_5316)"/>
<path d="M0 298.905L33.25 318.102V318.104L203.684 416.503V378.104L33.2559 279.706V137.306L0 118.105V298.905Z" fill="url(#paint3_linear_1187_5316)"/>
<path d="M374.119 137.306V279.706L203.688 378.105V416.506L374.121 318.105V318.104L407.375 298.905V118.105L374.119 137.306Z" fill="url(#paint4_linear_1187_5316)"/>
<path d="M73.2051 327.752V315.309L75.4379 316.598V322.115L75.5867 322.201L79.5014 318.944L82.1956 320.499L78.1767 323.748L82.2402 332.969L79.5609 331.422L76.5691 324.555L75.4379 325.484V329.041L73.2051 327.752ZM92.0648 329.755C91.9755 328.724 91.2908 327.744 90.2042 327.117C89.0729 326.464 88.4478 326.704 88.4329 327.521C88.418 328.406 89.2367 329.291 90.1595 330.064L91.127 330.898C92.9728 332.445 94.357 334.327 94.357 336.407C94.357 338.693 92.809 339.243 90.1893 337.73C87.5845 336.226 85.9174 333.871 85.8578 331.173L88.031 332.428C88.1054 333.725 88.9687 334.86 90.1595 335.547C91.3354 336.226 92.0946 336.028 92.0946 335.1C92.0946 334.258 91.4247 333.476 90.2488 332.453L89.0729 331.448C87.257 329.884 86.1406 328.191 86.1406 326.369C86.1406 324.1 87.8673 323.602 90.2191 324.96C92.6006 326.335 94.1784 328.775 94.2082 330.993L92.0648 329.755ZM99.7233 333.73V335.638L98.2051 334.761V339.316C98.2051 340.055 98.5177 340.424 98.9642 340.699C99.1875 340.828 99.5745 341.034 99.8424 341.155V343.166C99.6042 343.08 99.2172 342.891 98.6665 342.573C97.0738 341.653 95.9872 340.201 96.0021 338.405V333.489L94.8858 332.845V330.937L96.0021 331.581V329.347L98.2051 330.619V332.853L99.7233 333.73ZM105.983 342.706V337.344L108.186 338.616V347.948L106.072 346.728V345.044L105.983 344.992C105.611 345.86 104.747 346.083 103.527 345.379C101.904 344.442 100.803 342.483 100.803 340.3V334.353L103.006 335.625V341.125C103.006 342.225 103.556 343.248 104.42 343.746C105.224 344.21 105.983 343.978 105.983 342.706ZM112.57 350.634C110.724 349.568 109.28 347.033 109.28 343.922C109.28 340.725 110.783 339.995 112.57 341.026C113.924 341.808 114.564 343.106 114.862 344.034L114.936 344.077V339.402L117.139 340.674V353.118L114.966 351.863V350.368L114.862 350.307C114.549 350.9 113.879 351.39 112.57 350.634ZM113.254 349.001C114.356 349.637 114.981 348.881 114.981 347.197C114.981 345.512 114.356 344.086 113.254 343.45C112.138 342.805 111.542 343.579 111.542 345.211C111.542 346.861 112.138 348.357 113.254 349.001ZM118.606 353.964V344.631L120.809 345.903V355.236L118.606 353.964ZM119.707 344.047C119.037 343.66 118.501 342.767 118.501 342.062C118.501 341.34 119.037 341.065 119.707 341.452C120.362 341.83 120.898 342.724 120.898 343.446C120.898 344.15 120.362 344.425 119.707 344.047ZM125.847 358.334C123.406 356.925 121.888 354.106 121.888 351.219C121.888 348.331 123.406 347.283 125.847 348.692C128.288 350.102 129.822 352.912 129.822 355.799C129.822 358.687 128.288 359.744 125.847 358.334ZM125.862 356.366C126.993 357.02 127.574 356.134 127.574 354.502C127.574 352.852 126.993 351.296 125.862 350.643C124.716 349.981 124.121 350.858 124.121 352.508C124.121 354.141 124.716 355.705 125.862 356.366Z" fill="black"/>
<defs>
<linearGradient id="paint0_linear_1187_5316" x1="93.4839" y1="-1.73215" x2="97.186" y2="180.825" gradientUnits="userSpaceOnUse">
<stop stop-color="#D6D6D6"/>
<stop offset="1" stop-color="#EBEBEB"/>
</linearGradient>
<linearGradient id="paint1_linear_1187_5316" x1="85.7104" y1="-32.2997" x2="173.044" y2="144.23" gradientUnits="userSpaceOnUse">
<stop stop-color="#BABABA"/>
<stop offset="1" stop-color="#CCCCCC"/>
</linearGradient>
<linearGradient id="paint2_linear_1187_5316" x1="132.356" y1="123.92" x2="-249.424" y2="112.607" gradientUnits="userSpaceOnUse">
<stop stop-color="white"/>
<stop offset="1" stop-color="#CECECE"/>
</linearGradient>
<linearGradient id="paint3_linear_1187_5316" x1="-55.3075" y1="23.2924" x2="172.669" y2="6.70418" gradientUnits="userSpaceOnUse">
<stop stop-color="#D8D8DA"/>
<stop offset="1" stop-color="#E9E9E9"/>
</linearGradient>
<linearGradient id="paint4_linear_1187_5316" x1="371.486" y1="-46.708" x2="-80.2342" y2="166.621" gradientUnits="userSpaceOnUse">
<stop stop-color="#B9B9BA"/>
<stop offset="1" stop-color="#D8D8DA"/>
</linearGradient>
</defs>
</svg>
