<svg width="409" height="417" viewBox="0 0 409 417" fill="none" xmlns="http://www.w3.org/2000/svg">
<rect width="196.8" height="180.8" transform="matrix(-0.866025 -0.5 0 1 374.871 137.143)" fill="url(#paint0_linear_174_3288)"/>
<path d="M0.746094 117.944L34.001 137.144L204.436 38.7432L374.868 137.144L408.123 117.943L237.689 19.543L237.688 19.5439L204.434 0.344727L0.746094 117.944Z" fill="url(#paint1_linear_174_3288)"/>
<path d="M34.002 137.143L204.436 38.7431V219.543L34.002 317.943V137.143Z" fill="url(#paint2_linear_174_3288)"/>
<rect width="196.8" height="196.8" transform="matrix(0.866025 0.5 -0.866025 0.5 204.439 181.143)" fill="url(#paint3_linear_174_3288)"/>
<path d="M34.0078 317.943L204.441 416.344V377.943L34.0078 279.544V317.943ZM0.750977 298.743L34.0068 317.943V137.144L0.750977 117.943V298.743Z" fill="url(#paint4_linear_174_3288)"/>
<path d="M374.871 137.144V279.544L204.439 377.943V416.344L374.873 317.943V317.941L408.127 298.743V117.943L374.871 137.144Z" fill="url(#paint5_linear_174_3288)"/>
<path d="M64.0302 321.863V309.419L66.2629 310.708V316.225L66.4117 316.311L70.3264 313.054L73.0206 314.61L69.0017 317.858L73.0652 327.079L70.386 325.532L67.3941 318.666L66.2629 319.594V323.152L64.0302 321.863ZM80.6273 331.634C78.1862 330.225 76.668 327.406 76.668 324.519C76.668 321.631 78.1862 320.583 80.6273 321.992C83.0684 323.401 84.6016 326.211 84.6016 329.099C84.6016 331.986 83.0684 333.044 80.6273 331.634ZM80.6422 329.666C81.7734 330.319 82.354 329.434 82.354 327.801C82.354 326.151 81.7734 324.596 80.6422 323.943C79.4961 323.281 78.9007 324.158 78.9007 325.808C78.9007 327.44 79.4961 329.004 80.6422 329.666ZM87.884 330.238V335.635L85.681 334.363V325.03L87.7798 326.242V327.875L87.8691 327.926C88.2412 327.058 89.1045 326.886 90.2953 327.574C91.9773 328.545 93.0936 330.513 93.0788 332.687V338.634L90.8907 337.371V331.871C90.8907 330.719 90.34 329.714 89.432 329.189C88.5091 328.657 87.884 329 87.884 330.238ZM103.588 335.816C103.499 334.784 102.814 333.805 101.727 333.177C100.596 332.524 99.971 332.765 99.9561 333.581C99.9413 334.466 100.76 335.351 101.683 336.125L102.65 336.958C104.496 338.505 105.88 340.387 105.88 342.467C105.88 344.753 104.332 345.303 101.713 343.791C99.1077 342.287 97.4406 339.932 97.3811 337.233L99.5543 338.488C99.6287 339.786 100.492 340.92 101.683 341.608C102.859 342.287 103.618 342.089 103.618 341.161C103.618 340.319 102.948 339.537 101.772 338.514L100.596 337.508C98.7802 335.944 97.6639 334.251 97.6639 332.43C97.6639 330.161 99.3905 329.662 101.742 331.02C104.124 332.395 105.702 334.836 105.731 337.053L103.588 335.816ZM111.247 339.79V341.698L109.728 340.822V345.376C109.728 346.115 110.041 346.485 110.487 346.76C110.711 346.889 111.098 347.095 111.366 347.215V349.226C111.127 349.14 110.74 348.951 110.19 348.633C108.597 347.714 107.51 346.261 107.525 344.465V339.55L106.409 338.905V336.997L107.525 337.642V335.407L109.728 336.679V338.914L111.247 339.79ZM117.506 348.767V343.404L119.709 344.676V354.009L117.595 352.789V351.104L117.506 351.053C117.134 351.921 116.27 352.144 115.05 351.439C113.427 350.503 112.326 348.543 112.326 346.36V340.414L114.529 341.685V347.185C114.529 348.285 115.08 349.308 115.943 349.806C116.747 350.271 117.506 350.039 117.506 348.767ZM124.093 356.695C122.247 355.629 120.803 353.094 120.803 349.983C120.803 346.786 122.307 346.055 124.093 347.087C125.447 347.869 126.087 349.166 126.385 350.095L126.459 350.138V345.463L128.662 346.734V359.178L126.489 357.923V356.428L126.385 356.368C126.072 356.961 125.403 357.451 124.093 356.695ZM124.777 355.062C125.879 355.698 126.504 354.941 126.504 353.257C126.504 351.573 125.879 350.146 124.777 349.51C123.661 348.866 123.066 349.639 123.066 351.272C123.066 352.922 123.661 354.417 124.777 355.062ZM130.129 360.025V350.692L132.332 351.964V361.297L130.129 360.025ZM131.23 350.108C130.561 349.721 130.025 348.827 130.025 348.122C130.025 347.401 130.561 347.126 131.23 347.512C131.885 347.89 132.421 348.784 132.421 349.506C132.421 350.211 131.885 350.486 131.23 350.108ZM137.371 364.395C134.929 362.986 133.411 360.167 133.411 357.279C133.411 354.392 134.929 353.343 137.371 354.753C139.812 356.162 141.345 358.972 141.345 361.86C141.345 364.747 139.812 365.804 137.371 364.395ZM137.385 362.427C138.517 363.08 139.097 362.195 139.097 360.562C139.097 358.912 138.517 357.357 137.385 356.703C136.239 356.042 135.644 356.918 135.644 358.568C135.644 360.201 136.239 361.765 137.385 362.427Z" fill="white"/>
<g clip-path="url(#clip0_174_3288)">
<path d="M114.715 161.145C114.715 159.654 114.715 158.908 114.926 158.198C115.207 157.252 115.747 156.317 116.426 155.601C116.935 155.063 117.581 154.69 118.872 153.945V153.945C120.163 153.199 120.809 152.826 121.318 152.776C121.997 152.709 122.536 153.02 122.818 153.642C123.029 154.108 123.029 154.854 123.029 156.345V156.345C123.029 157.836 123.029 158.581 122.818 159.291C122.536 160.238 121.997 161.172 121.318 161.889C120.809 162.426 120.163 162.799 118.872 163.545V163.545C117.581 164.29 116.935 164.663 116.426 164.713C115.747 164.781 115.207 164.469 114.926 163.848C114.715 163.381 114.715 162.636 114.715 161.145V161.145Z" stroke="#FF675E" stroke-width="2.4"/>
<circle cx="4" cy="4" r="4" transform="matrix(0.866025 -0.5 0 1 124.41 141.145)" stroke="#FF675E" stroke-width="2.4"/>
<circle cx="4" cy="4" r="4" transform="matrix(0.866025 -0.5 0 1 124.41 161.943)" stroke="#FF675E" stroke-width="2.4"/>
<circle cx="4" cy="4" r="4" transform="matrix(0.866025 -0.5 0 1 106.396 172.345)" stroke="#FF675E" stroke-width="2.4"/>
<circle cx="4" cy="4" r="4" transform="matrix(0.866025 -0.5 0 1 106.396 151.544)" stroke="#FF675E" stroke-width="2.4"/>
<path d="M112.635 155.145L115.406 156.745M112.635 169.545L114.713 165.945M125.106 162.345L123.027 161.145M123.027 151.545L125.106 147.945" stroke="#FF675E" stroke-width="2.4" stroke-linecap="square"/>
</g>
<g clip-path="url(#clip1_174_3288)">
<path d="M299.865 153.088C297.708 149.349 294.897 146.124 291.871 143.917C288.844 141.709 285.77 140.642 283.127 140.88" stroke="#FF675E" stroke-width="2.4" stroke-linecap="round" stroke-linejoin="round"/>
<path d="M278.984 142.745L278.998 142.753" stroke="#FF675E" stroke-width="2.4" stroke-linecap="round" stroke-linejoin="round"/>
<path d="M276.614 147.168C276.095 149.311 276.082 151.854 276.576 154.59C277.07 157.325 278.058 160.177 279.459 162.912C280.86 165.648 282.634 168.191 284.639 170.335C286.643 172.478 288.82 174.162 290.994 175.25C293.168 176.337 295.277 176.798 297.15 176.594C299.023 176.39 300.608 175.527 301.774 174.076C302.941 172.624 303.657 170.625 303.865 168.241C304.072 165.856 303.766 163.154 302.969 160.352" stroke="#FF675E" stroke-width="2.4" stroke-linecap="round" stroke-linejoin="round"/>
<path d="M295.942 155.352C295.145 153.965 294.192 152.687 293.142 151.594C292.093 150.502 290.968 149.619 289.837 148.999C288.707 148.379 287.594 148.035 286.567 147.989C285.539 147.942 284.62 148.194 283.864 148.729C283.107 149.263 282.531 150.07 282.169 151.098C281.807 152.127 281.668 153.356 281.76 154.711C281.851 156.065 282.172 157.517 282.702 158.976C283.233 160.436 283.961 161.873 284.843 163.2" stroke="#FF675E" stroke-width="2.4" stroke-linecap="round" stroke-linejoin="round"/>
<path d="M290.064 168.344L290.078 168.352" stroke="#FF675E" stroke-width="2.4" stroke-linecap="round" stroke-linejoin="round"/>
<path d="M298.365 162.992C298.441 164.558 298.201 165.941 297.666 167.026C297.131 168.111 296.316 168.867 295.289 169.232" stroke="#FF675E" stroke-width="2.4" stroke-linecap="round" stroke-linejoin="round"/>
<path d="M290.066 161.944C291.597 162.828 292.837 162.112 292.837 160.344C292.837 158.577 291.597 156.428 290.066 155.544C288.536 154.661 287.295 155.377 287.295 157.144C287.295 158.912 288.536 161.061 290.066 161.944Z" stroke="#FF675E" stroke-width="2.4" stroke-linecap="round" stroke-linejoin="round"/>
<path d="M292.021 157.616L299.864 153.088" stroke="#FF675E" stroke-width="2.4" stroke-linecap="round" stroke-linejoin="round"/>
</g>
<defs>
<linearGradient id="paint0_linear_174_3288" x1="93.4839" y1="-1.73215" x2="97.186" y2="180.825" gradientUnits="userSpaceOnUse">
<stop stop-color="#EC0C0C"/>
<stop offset="1" stop-color="#FD4133"/>
</linearGradient>
<linearGradient id="paint1_linear_174_3288" x1="572.072" y1="20.8619" x2="550.129" y2="211.605" gradientUnits="userSpaceOnUse">
<stop stop-color="#FF4A4A"/>
<stop offset="1" stop-color="#EC0C0C"/>
</linearGradient>
<linearGradient id="paint2_linear_174_3288" x1="-19.8939" y1="186.403" x2="15.2651" y2="348.946" gradientUnits="userSpaceOnUse">
<stop stop-color="#E31313"/>
<stop offset="1" stop-color="#FF4A4A" stop-opacity="0.98"/>
</linearGradient>
<linearGradient id="paint3_linear_174_3288" x1="126.042" y1="117.961" x2="-249.591" y2="106.46" gradientUnits="userSpaceOnUse">
<stop stop-color="#FF5246"/>
<stop offset="1" stop-color="#EC0C0C"/>
</linearGradient>
<linearGradient id="paint4_linear_174_3288" x1="-35.1771" y1="72.7449" x2="189.804" y2="11.4064" gradientUnits="userSpaceOnUse">
<stop stop-color="#F72422"/>
<stop offset="1" stop-color="#FF564A"/>
</linearGradient>
<linearGradient id="paint5_linear_174_3288" x1="383.22" y1="117.945" x2="6.02393" y2="228.404" gradientUnits="userSpaceOnUse">
<stop stop-color="#E31313"/>
<stop offset="1" stop-color="#FF4A4A"/>
</linearGradient>
<clipPath id="clip0_174_3288">
<rect width="38.4" height="38.4" fill="white" transform="matrix(0.866025 -0.5 0 1 102.24 149.145)"/>
</clipPath>
<clipPath id="clip1_174_3288">
<rect width="38.4" height="38.4" fill="white" transform="matrix(0.866025 0.5 0 1 273.439 129.944)"/>
</clipPath>
</defs>
</svg>
