<svg width="409" height="417" viewBox="0 0 409 417" fill="none" xmlns="http://www.w3.org/2000/svg">
<rect width="196.8" height="180.8" transform="matrix(-0.866025 -0.5 0 1 374.867 137.145)" fill="url(#paint0_linear_1184_2641)"/>
<path d="M0.744141 117.945L33.999 137.145L204.434 38.7441L374.866 137.145L408.121 117.944L237.688 19.5439L237.686 19.5449L204.432 0.345703L0.744141 117.945Z" fill="url(#paint1_linear_1184_2641)"/>
<path d="M34 137.145L204.434 38.7445V219.545L34 317.945V137.145Z" fill="url(#paint2_linear_1184_2641)"/>
<rect width="196.8" height="196.8" transform="matrix(0.866025 0.5 -0.866025 0.5 204.438 181.145)" fill="url(#paint3_linear_1184_2641)"/>
<path d="M34.0078 317.943L204.441 416.344V377.943L34.0078 279.544V317.943ZM0.750977 298.743L34.0068 317.943V137.144L0.750977 117.943V298.743Z" fill="url(#paint4_linear_1184_2641)"/>
<path d="M374.869 137.144V279.544L204.438 377.943V416.344L374.871 317.943V317.941L408.125 298.743V117.943L374.869 137.144Z" fill="url(#paint5_linear_1184_2641)"/>
<path d="M73.9473 327.588V315.145L76.18 316.434V321.951L76.3289 322.037L80.2436 318.78L82.9377 320.335L78.9188 323.584L82.9824 332.805L80.3031 331.258L77.3113 324.391L76.18 325.32V328.877L73.9473 327.588ZM92.807 329.591C92.7177 328.56 92.033 327.58 90.9464 326.953C89.8151 326.3 89.19 326.54 89.1751 327.357C89.1602 328.242 89.9789 329.127 90.9017 329.9L91.8692 330.734C93.7149 332.281 95.0992 334.163 95.0992 336.243C95.0992 338.528 93.5512 339.078 90.9315 337.566C88.3266 336.062 86.6595 333.707 86.6 331.009L88.7732 332.264C88.8476 333.561 89.7109 334.696 90.9017 335.383C92.0776 336.062 92.8367 335.864 92.8367 334.936C92.8367 334.094 92.1669 333.312 90.991 332.289L89.8151 331.284C87.9992 329.72 86.8828 328.027 86.8828 326.205C86.8828 323.936 88.6095 323.438 90.9613 324.796C93.3428 326.171 94.9206 328.611 94.9504 330.828L92.807 329.591ZM100.466 333.566V335.474L98.9473 334.597V339.152C98.9473 339.891 99.2598 340.26 99.7064 340.535C99.9297 340.664 100.317 340.87 100.585 340.991V343.002C100.346 342.916 99.9594 342.727 99.4087 342.409C97.816 341.489 96.7294 340.037 96.7443 338.241V333.325L95.6279 332.681V330.773L96.7443 331.417V329.183L98.9473 330.455V332.689L100.466 333.566ZM106.725 342.542V337.18L108.928 338.451V347.784L106.814 346.564V344.88L106.725 344.828C106.353 345.696 105.489 345.919 104.269 345.215C102.646 344.278 101.545 342.319 101.545 340.136V334.189L103.748 335.461V340.961C103.748 342.061 104.299 343.083 105.162 343.582C105.966 344.046 106.725 343.814 106.725 342.542ZM113.312 350.47C111.466 349.404 110.022 346.869 110.022 343.758C110.022 340.561 111.526 339.831 113.312 340.862C114.666 341.644 115.306 342.942 115.604 343.87L115.678 343.913V339.238L117.881 340.51V352.954L115.708 351.699V350.204L115.604 350.143C115.291 350.736 114.622 351.226 113.312 350.47ZM113.996 348.837C115.098 349.473 115.723 348.717 115.723 347.032C115.723 345.348 115.098 343.922 113.996 343.286C112.88 342.641 112.285 343.415 112.285 345.047C112.285 346.697 112.88 348.193 113.996 348.837ZM119.348 353.8V344.467L121.551 345.739V355.072L119.348 353.8ZM120.449 343.883C119.779 343.496 119.244 342.603 119.244 341.898C119.244 341.176 119.779 340.901 120.449 341.288C121.104 341.666 121.64 342.56 121.64 343.281C121.64 343.986 121.104 344.261 120.449 343.883ZM126.59 358.17C124.148 356.761 122.63 353.942 122.63 351.055C122.63 348.167 124.148 347.119 126.59 348.528C129.031 349.938 130.564 352.748 130.564 355.635C130.564 358.523 129.031 359.58 126.59 358.17ZM126.604 356.202C127.736 356.855 128.316 355.97 128.316 354.338C128.316 352.688 127.736 351.132 126.604 350.479C125.458 349.817 124.863 350.694 124.863 352.344C124.863 353.977 125.458 355.541 126.604 356.202Z" fill="white"/>
<defs>
<linearGradient id="paint0_linear_1184_2641" x1="93.4839" y1="-1.73215" x2="97.186" y2="180.825" gradientUnits="userSpaceOnUse">
<stop stop-color="#EC0C0C"/>
<stop offset="1" stop-color="#FD4133"/>
</linearGradient>
<linearGradient id="paint1_linear_1184_2641" x1="584" y1="-25.499" x2="573.623" y2="172.128" gradientUnits="userSpaceOnUse">
<stop stop-color="#FF4A4A"/>
<stop offset="1" stop-color="#FF2828"/>
</linearGradient>
<linearGradient id="paint2_linear_1184_2641" x1="-19.8958" y1="186.404" x2="15.2631" y2="348.947" gradientUnits="userSpaceOnUse">
<stop stop-color="#E31313"/>
<stop offset="1" stop-color="#FF4A4A" stop-opacity="0.98"/>
</linearGradient>
<linearGradient id="paint3_linear_1184_2641" x1="126.042" y1="117.961" x2="-249.591" y2="106.46" gradientUnits="userSpaceOnUse">
<stop stop-color="#FF5246"/>
<stop offset="1" stop-color="#EC0C0C"/>
</linearGradient>
<linearGradient id="paint4_linear_1184_2641" x1="-35.1771" y1="72.7449" x2="189.804" y2="11.4064" gradientUnits="userSpaceOnUse">
<stop stop-color="#E41614"/>
<stop offset="1" stop-color="#E94E43"/>
</linearGradient>
<linearGradient id="paint5_linear_1184_2641" x1="439" y1="103.5" x2="74.7002" y2="194.693" gradientUnits="userSpaceOnUse">
<stop stop-color="#D00B0B"/>
<stop offset="1" stop-color="#D61B1B"/>
</linearGradient>
</defs>
</svg>
