<svg width="408" height="417" viewBox="0 0 408 417" fill="none" xmlns="http://www.w3.org/2000/svg">
<rect width="196.8" height="180.8" transform="matrix(-0.866025 -0.5 0 1 374.25 137.305)" fill="url(#paint0_linear_1184_2448)"/>
<path d="M0.125 118.104L33.3799 137.305L203.811 38.9072L374.241 137.305L407.496 118.105L237.066 19.707L237.068 19.7061L203.812 0.505859L0.125 118.104Z" fill="white"/>
<rect width="196.8" height="180.8" transform="matrix(0.866025 -0.5 0 1 33.375 137.305)" fill="url(#paint1_linear_1184_2448)"/>
<rect width="196.8" height="196.8" transform="matrix(0.866025 0.5 -0.866025 0.5 203.812 181.305)" fill="url(#paint2_linear_1184_2448)"/>
<path d="M0.125 298.903L33.375 318.1V318.104L203.809 416.503V378.104L33.3809 279.706V137.304L0.125 118.104V298.903Z" fill="url(#paint3_linear_1184_2448)"/>
<path d="M374.244 137.304V279.704L203.812 378.104V416.504L374.246 318.104V318.102L407.5 298.903V118.104L374.244 137.304Z" fill="url(#paint4_linear_1184_2448)"/>
<path d="M73.3301 327.748V315.305L75.5629 316.594V322.111L75.7117 322.197L79.6264 318.94L82.3206 320.495L78.3017 323.744L82.3652 332.965L79.6859 331.418L76.6941 324.552L75.5629 325.48V329.037L73.3301 327.748ZM92.1898 329.751C92.1005 328.72 91.4158 327.74 90.3292 327.113C89.1979 326.46 88.5728 326.7 88.5579 327.517C88.543 328.402 89.3617 329.287 90.2845 330.06L91.252 330.894C93.0978 332.441 94.482 334.323 94.482 336.403C94.482 338.689 92.934 339.239 90.3143 337.726C87.7095 336.222 86.0424 333.868 85.9828 331.169L88.156 332.424C88.2304 333.721 89.0937 334.856 90.2845 335.543C91.4604 336.222 92.2196 336.025 92.2196 335.096C92.2196 334.254 91.5497 333.472 90.3738 332.45L89.1979 331.444C87.382 329.88 86.2656 328.187 86.2656 326.365C86.2656 324.096 87.9923 323.598 90.3441 324.956C92.7256 326.331 94.3034 328.771 94.3332 330.989L92.1898 329.751ZM99.8483 333.726V335.634L98.3301 334.757V339.312C98.3301 340.051 98.6427 340.42 99.0892 340.695C99.3125 340.824 99.6995 341.031 99.9674 341.151V343.162C99.7292 343.076 99.3422 342.887 98.7915 342.569C97.1988 341.649 96.1122 340.197 96.1271 338.401V333.485L95.0108 332.841V330.933L96.1271 331.577V329.343L98.3301 330.615V332.849L99.8483 333.726ZM106.108 342.702V337.34L108.311 338.612V347.944L106.197 346.724V345.04L106.108 344.988C105.736 345.856 104.872 346.08 103.652 345.375C102.029 344.438 100.928 342.479 100.928 340.296V334.349L103.131 335.621V341.121C103.131 342.221 103.681 343.244 104.545 343.742C105.349 344.206 106.108 343.974 106.108 342.702ZM112.695 350.63C110.849 349.565 109.405 347.029 109.405 343.918C109.405 340.722 110.908 339.991 112.695 341.022C114.049 341.804 114.689 343.102 114.987 344.03L115.061 344.073V339.398L117.264 340.67V353.114L115.091 351.859V350.364L114.987 350.304C114.674 350.897 114.004 351.386 112.695 350.63ZM113.379 348.997C114.481 349.633 115.106 348.877 115.106 347.193C115.106 345.508 114.481 344.082 113.379 343.446C112.263 342.801 111.667 343.575 111.667 345.207C111.667 346.857 112.263 348.353 113.379 348.997ZM118.731 353.96V344.628L120.934 345.899V355.232L118.731 353.96ZM119.832 344.043C119.162 343.656 118.626 342.763 118.626 342.058C118.626 341.336 119.162 341.061 119.832 341.448C120.487 341.826 121.023 342.72 121.023 343.442C121.023 344.146 120.487 344.421 119.832 344.043ZM125.972 358.33C123.531 356.921 122.013 354.102 122.013 351.215C122.013 348.327 123.531 347.279 125.972 348.688C128.413 350.098 129.947 352.908 129.947 355.795C129.947 358.683 128.413 359.74 125.972 358.33ZM125.987 356.363C127.118 357.016 127.699 356.13 127.699 354.498C127.699 352.848 127.118 351.292 125.987 350.639C124.841 349.977 124.246 350.854 124.246 352.504C124.246 354.137 124.841 355.701 125.987 356.363Z" fill="black"/>
<defs>
<linearGradient id="paint0_linear_1184_2448" x1="93.4839" y1="-1.73215" x2="97.186" y2="180.825" gradientUnits="userSpaceOnUse">
<stop stop-color="#D6D6D6"/>
<stop offset="1" stop-color="#EBEBEB"/>
</linearGradient>
<linearGradient id="paint1_linear_1184_2448" x1="85.7104" y1="-32.2997" x2="173.044" y2="144.23" gradientUnits="userSpaceOnUse">
<stop stop-color="#BABABA"/>
<stop offset="1" stop-color="#CCCCCC"/>
</linearGradient>
<linearGradient id="paint2_linear_1184_2448" x1="132.356" y1="123.92" x2="-249.424" y2="112.607" gradientUnits="userSpaceOnUse">
<stop stop-color="white"/>
<stop offset="1" stop-color="#CECECE"/>
</linearGradient>
<linearGradient id="paint3_linear_1184_2448" x1="-55.1825" y1="23.2904" x2="172.794" y2="6.70223" gradientUnits="userSpaceOnUse">
<stop stop-color="#D8D8DA"/>
<stop offset="1" stop-color="#E9E9E9"/>
</linearGradient>
<linearGradient id="paint4_linear_1184_2448" x1="371.611" y1="-46.71" x2="-80.1092" y2="166.619" gradientUnits="userSpaceOnUse">
<stop stop-color="#B9B9BA"/>
<stop offset="1" stop-color="#D8D8DA"/>
</linearGradient>
</defs>
</svg>
