<svg width="409" height="417" viewBox="0 0 409 417" fill="none" xmlns="http://www.w3.org/2000/svg">
<rect width="196.8" height="180.8" transform="matrix(-0.866025 -0.5 0 1 374.871 137.141)" fill="url(#paint0_linear_1172_1472)"/>
<path d="M0.746094 117.943L34.001 137.143L204.436 38.7422L374.868 137.143L408.123 117.942L237.689 19.542L237.688 19.543L204.434 0.34375L0.746094 117.943Z" fill="url(#paint1_linear_1172_1472)"/>
<path d="M34.002 137.141L204.436 38.7406V219.541L34.002 317.941V137.141Z" fill="url(#paint2_linear_1172_1472)"/>
<rect width="196.8" height="196.8" transform="matrix(0.866025 0.5 -0.866025 0.5 204.439 181.141)" fill="url(#paint3_linear_1172_1472)"/>
<path d="M34.0078 317.941L204.441 416.342V377.941L34.0078 279.542V317.941ZM0.750977 298.741L34.0068 317.941V137.142L0.750977 117.941V298.741Z" fill="url(#paint4_linear_1172_1472)"/>
<path d="M374.871 137.142V279.542L204.439 377.941V416.342L374.873 317.941V317.939L408.127 298.741V117.941L374.871 137.142Z" fill="url(#paint5_linear_1172_1472)"/>
<path d="M64.0302 321.863V309.419L66.2629 310.709V316.226L66.4117 316.312L70.3264 313.055L73.0206 314.61L69.0017 317.859L73.0652 327.08L70.386 325.533L67.3941 318.666L66.2629 319.594V323.152L64.0302 321.863ZM80.6273 331.635C78.1862 330.225 76.668 327.407 76.668 324.519C76.668 321.632 78.1862 320.583 80.6273 321.992C83.0684 323.402 84.6016 326.212 84.6016 329.099C84.6016 331.987 83.0684 333.044 80.6273 331.635ZM80.6422 329.667C81.7734 330.32 82.354 329.435 82.354 327.802C82.354 326.152 81.7734 324.596 80.6422 323.943C79.4961 323.282 78.9007 324.158 78.9007 325.808C78.9007 327.441 79.4961 329.005 80.6422 329.667ZM87.884 330.238V335.635L85.681 334.363V325.031L87.7798 326.242V327.875L87.8691 327.927C88.2412 327.059 89.1045 326.887 90.2953 327.574C91.9773 328.545 93.0936 330.513 93.0788 332.688V338.634L90.8907 337.371V331.871C90.8907 330.72 90.34 329.714 89.432 329.19C88.5091 328.657 87.884 329.001 87.884 330.238ZM103.588 335.816C103.499 334.785 102.814 333.805 101.727 333.178C100.596 332.525 99.971 332.765 99.9561 333.582C99.9413 334.467 100.76 335.352 101.683 336.125L102.65 336.959C104.496 338.506 105.88 340.388 105.88 342.468C105.88 344.754 104.332 345.304 101.713 343.791C99.1077 342.287 97.4406 339.932 97.3811 337.234L99.5543 338.489C99.6287 339.786 100.492 340.921 101.683 341.608C102.859 342.287 103.618 342.089 103.618 341.161C103.618 340.319 102.948 339.537 101.772 338.514L100.596 337.509C98.7802 335.945 97.6639 334.252 97.6639 332.43C97.6639 330.161 99.3905 329.663 101.742 331.021C104.124 332.396 105.702 334.836 105.731 337.054L103.588 335.816ZM111.247 339.791V341.699L109.728 340.822V345.377C109.728 346.116 110.041 346.485 110.487 346.76C110.711 346.889 111.098 347.095 111.366 347.216V349.227C111.127 349.141 110.74 348.952 110.19 348.634C108.597 347.714 107.51 346.262 107.525 344.466V339.55L106.409 338.906V336.998L107.525 337.642V335.408L109.728 336.68V338.914L111.247 339.791ZM117.506 348.767V343.405L119.709 344.677V354.009L117.595 352.789V351.105L117.506 351.053C117.134 351.921 116.27 352.144 115.05 351.44C113.427 350.503 112.326 348.544 112.326 346.361V340.414L114.529 341.686V347.186C114.529 348.286 115.08 349.309 115.943 349.807C116.747 350.271 117.506 350.039 117.506 348.767ZM124.093 356.695C122.247 355.629 120.803 353.094 120.803 349.983C120.803 346.786 122.307 346.056 124.093 347.087C125.447 347.869 126.087 349.167 126.385 350.095L126.459 350.138V345.463L128.662 346.735V359.179L126.489 357.924V356.429L126.385 356.368C126.072 356.961 125.403 357.451 124.093 356.695ZM124.777 355.062C125.879 355.698 126.504 354.942 126.504 353.258C126.504 351.573 125.879 350.147 124.777 349.511C123.661 348.866 123.066 349.64 123.066 351.272C123.066 352.922 123.661 354.418 124.777 355.062ZM130.129 360.025V350.692L132.332 351.964V361.297L130.129 360.025ZM131.23 350.108C130.561 349.721 130.025 348.828 130.025 348.123C130.025 347.401 130.561 347.126 131.23 347.513C131.885 347.891 132.421 348.785 132.421 349.507C132.421 350.211 131.885 350.486 131.23 350.108ZM137.371 364.395C134.929 362.986 133.411 360.167 133.411 357.28C133.411 354.392 134.929 353.344 137.371 354.753C139.812 356.163 141.345 358.973 141.345 361.86C141.345 364.748 139.812 365.805 137.371 364.395ZM137.385 362.427C138.517 363.081 139.097 362.195 139.097 360.563C139.097 358.913 138.517 357.357 137.385 356.704C136.239 356.042 135.644 356.919 135.644 358.569C135.644 360.202 136.239 361.766 137.385 362.427Z" fill="white"/>
<defs>
<linearGradient id="paint0_linear_1172_1472" x1="93.4839" y1="-1.73215" x2="97.186" y2="180.825" gradientUnits="userSpaceOnUse">
<stop stop-color="#EC0C0C"/>
<stop offset="1" stop-color="#FD4133"/>
</linearGradient>
<linearGradient id="paint1_linear_1172_1472" x1="584.002" y1="-25.501" x2="573.625" y2="172.126" gradientUnits="userSpaceOnUse">
<stop stop-color="#FF4A4A"/>
<stop offset="1" stop-color="#FF2828"/>
</linearGradient>
<linearGradient id="paint2_linear_1172_1472" x1="-19.8939" y1="186.401" x2="15.2651" y2="348.943" gradientUnits="userSpaceOnUse">
<stop stop-color="#E31313"/>
<stop offset="1" stop-color="#FF4A4A" stop-opacity="0.98"/>
</linearGradient>
<linearGradient id="paint3_linear_1172_1472" x1="126.042" y1="117.961" x2="-249.591" y2="106.46" gradientUnits="userSpaceOnUse">
<stop stop-color="#FF5246"/>
<stop offset="1" stop-color="#EC0C0C"/>
</linearGradient>
<linearGradient id="paint4_linear_1172_1472" x1="-35.1771" y1="72.7429" x2="189.804" y2="11.4045" gradientUnits="userSpaceOnUse">
<stop stop-color="#E41614"/>
<stop offset="1" stop-color="#E94E43"/>
</linearGradient>
<linearGradient id="paint5_linear_1172_1472" x1="439.002" y1="103.498" x2="74.7022" y2="194.691" gradientUnits="userSpaceOnUse">
<stop stop-color="#D00B0B"/>
<stop offset="1" stop-color="#D61B1B"/>
</linearGradient>
</defs>
</svg>
