<svg width="408" height="416" viewBox="0 0 408 416" fill="none" xmlns="http://www.w3.org/2000/svg">
<rect width="196.8" height="180.8" transform="matrix(-0.866025 -0.5 0 1 374.125 136.797)" fill="url(#paint0_linear_1170_1255)"/>
<path d="M0.000976562 117.599L33.2559 136.799L203.691 38.3984L374.123 136.799L407.379 117.599L236.944 19.1982L236.943 19.1992L203.688 0L0.000976562 117.599Z" fill="white"/>
<rect width="196.8" height="180.8" transform="matrix(0.866025 -0.5 0 1 33.2559 136.797)" fill="url(#paint1_linear_1170_1255)"/>
<rect width="196.8" height="196.8" transform="matrix(0.866025 0.5 -0.866025 0.5 203.693 180.797)" fill="url(#paint2_linear_1170_1255)"/>
<path d="M33.2617 317.598L203.695 415.998V377.598L33.2617 279.197V317.598ZM0.00488281 298.397L33.2607 317.598V136.798L0.00488281 117.598V298.397Z" fill="url(#paint3_linear_1170_1255)"/>
<path d="M374.126 136.798V279.198L203.693 377.598V415.998L374.128 317.598V317.596L407.381 298.397V117.598L374.126 136.798Z" fill="url(#paint4_linear_1170_1255)"/>
<path d="M63.2841 321.519V309.076L65.5168 310.365V315.882L65.6656 315.968L69.5803 312.711L72.2745 314.266L68.2556 317.515L72.3191 326.736L69.6399 325.189L66.648 318.323L65.5168 319.251V322.809L63.2841 321.519ZM79.8812 331.291C77.4401 329.882 75.9219 327.063 75.9219 324.175C75.9219 321.288 77.4401 320.239 79.8812 321.649C82.3223 323.058 83.8555 325.868 83.8555 328.756C83.8555 331.643 82.3223 332.7 79.8812 331.291ZM79.8961 329.323C81.0274 329.976 81.6079 329.091 81.6079 327.458C81.6079 325.808 81.0274 324.253 79.8961 323.599C78.75 322.938 78.1546 323.814 78.1546 325.464C78.1546 327.097 78.75 328.661 79.8961 329.323ZM87.1379 329.895V335.291L84.9349 334.02V324.687L87.0337 325.898V327.531L87.123 327.583C87.4951 326.715 88.3584 326.543 89.5492 327.231C91.2312 328.202 92.3476 330.17 92.3327 332.344V338.291L90.1446 337.027V331.527C90.1446 330.376 89.5939 329.37 88.6859 328.846C87.763 328.313 87.1379 328.657 87.1379 329.895ZM102.842 335.472C102.753 334.441 102.068 333.461 100.981 332.834C99.8501 332.181 99.2249 332.421 99.21 333.238C99.1952 334.123 100.014 335.008 100.937 335.782L101.904 336.615C103.75 338.162 105.134 340.044 105.134 342.124C105.134 344.41 103.586 344.96 100.966 343.447C98.3616 341.943 96.6945 339.589 96.635 336.89L98.8082 338.145C98.8826 339.443 99.7459 340.577 100.937 341.264C102.113 341.943 102.872 341.746 102.872 340.818C102.872 339.975 102.202 339.193 101.026 338.171L99.8501 337.165C98.0341 335.601 96.9178 333.908 96.9178 332.086C96.9178 329.818 98.6444 329.319 100.996 330.677C103.378 332.052 104.956 334.493 104.985 336.71L102.842 335.472ZM110.5 339.447V341.355L108.982 340.478V345.033C108.982 345.772 109.295 346.142 109.741 346.417C109.965 346.545 110.352 346.752 110.62 346.872V348.883C110.381 348.797 109.994 348.608 109.444 348.29C107.851 347.37 106.764 345.918 106.779 344.122V339.206L105.663 338.562V336.654L106.779 337.299V335.064L108.982 336.336V338.57L110.5 339.447ZM116.76 348.423V343.061L118.963 344.333V353.666L116.849 352.445V350.761L116.76 350.709C116.388 351.577 115.524 351.801 114.304 351.096C112.681 350.159 111.58 348.2 111.58 346.017V340.07L113.783 341.342V346.842C113.783 347.942 114.334 348.965 115.197 349.463C116.001 349.927 116.76 349.695 116.76 348.423ZM123.347 356.351C121.501 355.286 120.057 352.751 120.057 349.64C120.057 346.443 121.56 345.712 123.347 346.743C124.701 347.526 125.341 348.823 125.639 349.751L125.713 349.794V345.119L127.916 346.391V358.835L125.743 357.58V356.085L125.639 356.025C125.326 356.618 124.657 357.108 123.347 356.351ZM124.031 354.718C125.133 355.354 125.758 354.598 125.758 352.914C125.758 351.229 125.133 349.803 124.031 349.167C122.915 348.522 122.32 349.296 122.32 350.929C122.32 352.579 122.915 354.074 124.031 354.718ZM129.383 359.682V350.349L131.586 351.621V360.953L129.383 359.682ZM130.484 349.764C129.814 349.378 129.279 348.484 129.279 347.779C129.279 347.057 129.814 346.782 130.484 347.169C131.139 347.547 131.675 348.441 131.675 349.163C131.675 349.867 131.139 350.142 130.484 349.764ZM136.625 364.052C134.183 362.642 132.665 359.824 132.665 356.936C132.665 354.049 134.183 353 136.625 354.409C139.066 355.819 140.599 358.629 140.599 361.516C140.599 364.404 139.066 365.461 136.625 364.052ZM136.639 362.084C137.771 362.737 138.351 361.852 138.351 360.219C138.351 358.569 137.771 357.013 136.639 356.36C135.493 355.699 134.898 356.575 134.898 358.225C134.898 359.858 135.493 361.422 136.639 362.084Z" fill="black"/>
<defs>
<linearGradient id="paint0_linear_1170_1255" x1="93.4839" y1="-1.73215" x2="97.186" y2="180.825" gradientUnits="userSpaceOnUse">
<stop stop-color="#D6D6D6"/>
<stop offset="1" stop-color="#EBEBEB"/>
</linearGradient>
<linearGradient id="paint1_linear_1170_1255" x1="85.7104" y1="-32.2997" x2="173.044" y2="144.23" gradientUnits="userSpaceOnUse">
<stop stop-color="#BABABA"/>
<stop offset="1" stop-color="#CCCCCC"/>
</linearGradient>
<linearGradient id="paint2_linear_1170_1255" x1="132.356" y1="123.92" x2="-249.424" y2="112.607" gradientUnits="userSpaceOnUse">
<stop stop-color="white"/>
<stop offset="1" stop-color="#CECECE"/>
</linearGradient>
<linearGradient id="paint3_linear_1170_1255" x1="-55.3044" y1="22.7843" x2="172.68" y2="6.19501" gradientUnits="userSpaceOnUse">
<stop stop-color="#D8D8DA"/>
<stop offset="1" stop-color="#E9E9E9"/>
</linearGradient>
<linearGradient id="paint4_linear_1170_1255" x1="371.492" y1="-47.2158" x2="-80.2283" y2="166.114" gradientUnits="userSpaceOnUse">
<stop stop-color="#B9B9BA"/>
<stop offset="1" stop-color="#D8D8DA"/>
</linearGradient>
</defs>
</svg>
