<svg width="409" height="417" viewBox="0 0 409 417" fill="none" xmlns="http://www.w3.org/2000/svg">
<rect width="196.8" height="180.8" transform="matrix(-0.866025 -0.5 0 1 374.859 137.695)" fill="url(#paint0_linear_1187_5980)"/>
<path d="M0.736328 118.498L33.9912 137.697L204.426 39.2969L374.858 137.697L408.113 118.497L237.68 20.0967L237.678 20.0977L204.424 0.898438L0.736328 118.498Z" fill="url(#paint1_linear_1187_5980)"/>
<path d="M33.9922 137.695L204.426 39.2953V220.095L33.9922 318.495V137.695Z" fill="url(#paint2_linear_1187_5980)"/>
<rect width="196.8" height="196.8" transform="matrix(0.866025 0.5 -0.866025 0.5 204.43 181.695)" fill="url(#paint3_linear_1187_5980)"/>
<path d="M34 318.496L204.434 416.896V378.496L34 280.097V318.496ZM0.743164 299.296L33.999 318.496V137.696L0.743164 118.496V299.296Z" fill="url(#paint4_linear_1187_5980)"/>
<path d="M374.861 137.696V280.097L204.43 378.496V416.896L374.863 318.496V318.494L408.117 299.296V118.496L374.861 137.696Z" fill="url(#paint5_linear_1187_5980)"/>
<path d="M73.9356 328.143V315.699L76.1683 316.988V322.505L76.3172 322.591L80.2319 319.334L82.926 320.89L78.9071 324.138L82.9707 333.359L80.2914 331.812L77.2996 324.946L76.1683 325.874V329.432L73.9356 328.143ZM92.7953 330.146C92.7059 329.114 92.0212 328.135 90.9347 327.507C89.8034 326.854 89.1782 327.095 89.1634 327.911C89.1485 328.796 89.9671 329.682 90.89 330.455L91.8575 331.289C93.7032 332.835 95.0875 334.718 95.0875 336.797C95.0875 339.083 93.5395 339.633 90.9198 338.121C88.3149 336.617 86.6478 334.262 86.5883 331.564L88.7615 332.818C88.8359 334.116 89.6992 335.25 90.89 335.938C92.0659 336.617 92.825 336.419 92.825 335.491C92.825 334.649 92.1552 333.867 90.9793 332.844L89.8034 331.839C87.9875 330.275 86.8711 328.582 86.8711 326.76C86.8711 324.491 88.5977 323.993 90.9495 325.35C93.3311 326.725 94.9089 329.166 94.9387 331.383L92.7953 330.146ZM100.454 334.12V336.028L98.9355 335.152V339.706C98.9355 340.445 99.2481 340.815 99.6947 341.09C99.9179 341.219 100.305 341.425 100.573 341.545V343.556C100.335 343.47 99.9477 343.281 99.397 342.963C97.8043 342.044 96.7177 340.592 96.7326 338.795V333.88L95.6162 333.235V331.327L96.7326 331.972V329.738L98.9355 331.009V333.244L100.454 334.12ZM106.713 343.097V337.734L108.916 339.006V348.339L106.802 347.119V345.434L106.713 345.383C106.341 346.251 105.478 346.474 104.257 345.769C102.635 344.833 101.533 342.873 101.533 340.691V334.744L103.736 336.016V341.516C103.736 342.616 104.287 343.638 105.15 344.137C105.954 344.601 106.713 344.369 106.713 343.097ZM113.3 351.025C111.454 349.959 110.01 347.424 110.01 344.313C110.01 341.116 111.514 340.386 113.3 341.417C114.654 342.199 115.295 343.497 115.592 344.425L115.667 344.468V339.793L117.87 341.065V353.508L115.696 352.254V350.758L115.592 350.698C115.28 351.291 114.61 351.781 113.3 351.025ZM113.985 349.392C115.086 350.028 115.711 349.272 115.711 347.587C115.711 345.903 115.086 344.476 113.985 343.84C112.868 343.196 112.273 343.969 112.273 345.602C112.273 347.252 112.868 348.747 113.985 349.392ZM119.336 354.355V345.022L121.539 346.294V355.627L119.336 354.355ZM120.438 344.438C119.768 344.051 119.232 343.157 119.232 342.453C119.232 341.731 119.768 341.456 120.438 341.842C121.092 342.221 121.628 343.114 121.628 343.836C121.628 344.541 121.092 344.816 120.438 344.438ZM126.578 358.725C124.137 357.316 122.618 354.497 122.618 351.609C122.618 348.722 124.137 347.673 126.578 349.083C129.019 350.492 130.552 353.302 130.552 356.19C130.552 359.077 129.019 360.134 126.578 358.725ZM126.593 356.757C127.724 357.41 128.304 356.525 128.304 354.892C128.304 353.242 127.724 351.687 126.593 351.034C125.447 350.372 124.851 351.248 124.851 352.898C124.851 354.531 125.447 356.095 126.593 356.757Z" fill="white"/>
<defs>
<linearGradient id="paint0_linear_1187_5980" x1="93.4839" y1="-1.73215" x2="91.6873" y2="247.931" gradientUnits="userSpaceOnUse">
<stop stop-color="#E51E1E"/>
<stop offset="1" stop-color="#E34034"/>
</linearGradient>
<linearGradient id="paint1_linear_1187_5980" x1="264.02" y1="-95.6016" x2="-45.0039" y2="108.398" gradientUnits="userSpaceOnUse">
<stop stop-color="#FF4747"/>
<stop offset="1" stop-color="#FF3C3C"/>
</linearGradient>
<linearGradient id="paint2_linear_1187_5980" x1="18" y1="284.897" x2="74.79" y2="393.124" gradientUnits="userSpaceOnUse">
<stop stop-color="#B61414"/>
<stop offset="1" stop-color="#FD2A2A" stop-opacity="0.98"/>
</linearGradient>
<linearGradient id="paint3_linear_1187_5980" x1="242.242" y1="234.161" x2="-414.676" y2="214.048" gradientUnits="userSpaceOnUse">
<stop stop-color="#FA574F"/>
<stop offset="1" stop-color="#F90E0E"/>
</linearGradient>
<linearGradient id="paint4_linear_1187_5980" x1="-35.1849" y1="73.2976" x2="189.796" y2="11.9592" gradientUnits="userSpaceOnUse">
<stop stop-color="#E1201E"/>
<stop offset="1" stop-color="#E74A3E"/>
</linearGradient>
<linearGradient id="paint5_linear_1187_5980" x1="438.992" y1="104.053" x2="116.982" y2="208.742" gradientUnits="userSpaceOnUse">
<stop stop-color="#BD0000"/>
<stop offset="1" stop-color="#D10000"/>
</linearGradient>
</defs>
</svg>
